<svg width="781" height="655" viewBox="0 0 781 655" fill="none" xmlns="http://www.w3.org/2000/svg">
<path d="M120.4 441.8V472.7H58.5" stroke="#E5E5E5" stroke-width="6" stroke-miterlimit="10" stroke-linecap="round" stroke-linejoin="round"/>
<path d="M182.2 472.7H120.4V441.8" stroke="#E5E5E5" stroke-width="6" stroke-miterlimit="10" stroke-linecap="round" stroke-linejoin="round"/>
<path d="M151.3 472.7H89.4V503.6H151.3V472.7Z" stroke="#E5E5E5" stroke-width="6" stroke-miterlimit="10" stroke-linecap="round" stroke-linejoin="round"/>
<path d="M137.9 534.6H120.4V503.6H182.2" stroke="#E5E5E5" stroke-width="6" stroke-miterlimit="10" stroke-linecap="round" stroke-linejoin="round"/>
<path d="M58.5 503.6H120.4V534.6H70.2" stroke="#E5E5E5" stroke-width="6" stroke-miterlimit="10" stroke-linecap="round" stroke-linejoin="round"/>
<path d="M37.4 472.7H89.4V503.6H58.5" stroke="#E5E5E5" stroke-width="6" stroke-miterlimit="10" stroke-linecap="round" stroke-linejoin="round"/>
<path d="M195.9 503.6H151.3V472.7H172.7" stroke="#E5E5E5" stroke-width="6" stroke-miterlimit="10" stroke-linecap="round" stroke-linejoin="round"/>
<path d="M694.1 248.5V279.4H756" stroke="#E5E5E5" stroke-width="6" stroke-miterlimit="10" stroke-linecap="round" stroke-linejoin="round"/>
<path d="M632.3 279.4H694.1V248.5" stroke="#E5E5E5" stroke-width="6" stroke-miterlimit="10" stroke-linecap="round" stroke-linejoin="round"/>
<path d="M663.186 310.429L725.086 310.429L725.086 279.529L663.186 279.529L663.186 310.429Z" stroke="#E5E5E5" stroke-width="6" stroke-miterlimit="10" stroke-linecap="round" stroke-linejoin="round"/>
<path d="M676.6 341.3H694.1V310.4H632.3" stroke="#E5E5E5" stroke-width="6" stroke-miterlimit="10" stroke-linecap="round" stroke-linejoin="round"/>
<path d="M756 310.4H694.1V341.3H744.3" stroke="#E5E5E5" stroke-width="6" stroke-miterlimit="10" stroke-linecap="round" stroke-linejoin="round"/>
<path d="M777.1 279.4H725.1V310.4H756" stroke="#E5E5E5" stroke-width="6" stroke-miterlimit="10" stroke-linecap="round" stroke-linejoin="round"/>
<path d="M618.6 310.4H663.2V279.4H641.8" stroke="#E5E5E5" stroke-width="6" stroke-miterlimit="10" stroke-linecap="round" stroke-linejoin="round"/>
<path d="M463.5 115C494.428 115 519.5 89.9279 519.5 59C519.5 28.0721 494.428 3 463.5 3C432.572 3 407.5 28.0721 407.5 59C407.5 89.9279 432.572 115 463.5 115Z" stroke="#E5E5E5" stroke-width="6" stroke-miterlimit="10" stroke-linecap="round" stroke-linejoin="round"/>
<path d="M463.5 8.7002V14.1002" stroke="#E5E5E5" stroke-width="6" stroke-miterlimit="10" stroke-linecap="round" stroke-linejoin="round"/>
<path d="M463.5 103.8V109.2" stroke="#E5E5E5" stroke-width="6" stroke-miterlimit="10" stroke-linecap="round" stroke-linejoin="round"/>
<path d="M513.8 59H508.4" stroke="#E5E5E5" stroke-width="6" stroke-miterlimit="10" stroke-linecap="round" stroke-linejoin="round"/>
<path d="M418.7 59H413.2" stroke="#E5E5E5" stroke-width="6" stroke-miterlimit="10" stroke-linecap="round" stroke-linejoin="round"/>
<path d="M463.5 63.5C465.985 63.5 468 61.4853 468 59C468 56.5147 465.985 54.5 463.5 54.5C461.015 54.5 459 56.5147 459 59C459 61.4853 461.015 63.5 463.5 63.5Z" fill="#E5E5E5"/>
<path d="M463.5 59.0001L487.7 29.1001" stroke="#E5E5E5" stroke-width="4" stroke-miterlimit="10" stroke-linecap="round" stroke-linejoin="round"/>
<path d="M448.3 44L463.5 59" stroke="#E5E5E5" stroke-width="6" stroke-miterlimit="10" stroke-linecap="round" stroke-linejoin="round"/>
<path d="M135.6 60H12.3V185.3H135.6V60Z" stroke="#E5E5E5" stroke-width="8" stroke-miterlimit="10" stroke-linecap="round" stroke-linejoin="round"/>
<path d="M118.394 166.016L118.394 79.5156L29.4942 79.5156L29.4942 166.016H118.394Z" stroke="#E5E5E5" stroke-width="4" stroke-miterlimit="10" stroke-linecap="round" stroke-linejoin="round"/>
<path d="M274.3 20.1001H165.7V97.9001H274.3V20.1001Z" stroke="#E5E5E5" stroke-width="8" stroke-miterlimit="10" stroke-linecap="round" stroke-linejoin="round"/>
<path d="M258.391 81.9107V36.0107L181.691 36.0107V81.9107L258.391 81.9107Z" stroke="#E5E5E5" stroke-width="4" stroke-miterlimit="10" stroke-linecap="round" stroke-linejoin="round"/>
<path d="M229.347 219.819V147.219H181.647V219.819H229.347Z" stroke="#E5E5E5" stroke-width="4" stroke-miterlimit="10" stroke-linecap="round" stroke-linejoin="round"/>
<path d="M245.3 131.3H165.7V235.8H245.3V131.3Z" stroke="#E5E5E5" stroke-width="8" stroke-miterlimit="10" stroke-linecap="round" stroke-linejoin="round"/>
<path d="M710.3 591.3H718.2" stroke="#A83727" stroke-width="6" stroke-miterlimit="10" stroke-linecap="round" stroke-linejoin="round"/>
<path d="M678.8 591.3H697.3" stroke="#A83727" stroke-width="6" stroke-miterlimit="10" stroke-linecap="round" stroke-linejoin="round"/>
<path d="M349.5 591.3H664.8" stroke="#A83727" stroke-width="6" stroke-miterlimit="10" stroke-linecap="round" stroke-linejoin="round"/>
<path d="M76.5 591.3H328.5" stroke="#A83727" stroke-width="6" stroke-miterlimit="10" stroke-linecap="round" stroke-linejoin="round"/>
<path d="M33 591.3H55" stroke="#A83727" stroke-width="6" stroke-miterlimit="10" stroke-linecap="round" stroke-linejoin="round"/>
<path d="M3 591.3H15" stroke="#A83727" stroke-width="6" stroke-miterlimit="10" stroke-linecap="round" stroke-linejoin="round"/>
<path d="M207.4 481.5C189.2 469.9 157.1 449.5 143.2 407.1C133.5 377.5 133.3 340.3 143.7 336.8C155.8 332.8 176.9 375.6 184.6 371.9C190.7 369 178 342.5 176.3 297.6C175.1 267 179.5 240.7 193.3 217.3C199.6 206.6 204.2 198.7 209.3 199.3C230.2 201.7 224.3 343.3 246.6 346C257.1 347.3 265.5 316.8 277.3 319.3C287.3 321.4 294 346.1 295.8 362.1C295.9 362.9 296 363.5 296 364C301.2 415.9 270.9 453.3 260.7 466C245.4 484.8 235.1 488.6 227.1 488.7C218.7 488.6 212.3 484.7 207.4 481.5Z" fill="#6DCCA3"/>
<path d="M202 284.1C205.5 321.1 226.5 377.4 229.6 425.1C231.6 456.2 229.7 483.6 226.6 506.1" stroke="#465172" stroke-width="6" stroke-miterlimit="10" stroke-linecap="round" stroke-linejoin="round"/>
<path d="M298.5 591.3H143.5C127.9 563.7 128.5 529.8 145 502.8L167.8 465.5H274.1L296.2 500C312.6 525.5 314.5 557.8 301.4 585.1L298.5 591.3Z" fill="#2359B2"/>
<path d="M251.5 369C251.5 369 251.1 386 227.7 408.1" stroke="#465172" stroke-width="6" stroke-miterlimit="10" stroke-linecap="round" stroke-linejoin="round"/>
<path d="M177.6 408.1C177.6 408.1 193.3 440.1 230.4 440.1" stroke="#465172" stroke-width="6" stroke-miterlimit="10" stroke-linecap="round" stroke-linejoin="round"/>
<path opacity="0.67" d="M258.8 491.9C258.8 491.9 282.4 507.3 282.4 544.2" stroke="#1E2A54" stroke-width="6" stroke-miterlimit="10" stroke-linecap="round" stroke-linejoin="round"/>
<path d="M400.1 601.1C400.1 630.3 450 654.1 511.5 654.1C559.7 654.1 600.7 639.6 616.2 619.2L499.7 627.6L400.1 601.1Z" fill="#D6D6D6"/>
<path d="M600.2 598.2C597.3 597.6 594.2 597.9 591.5 599C573.9 605.9 543.1 610.5 508.1 610.5C453.4 610.5 409.1 599.3 409.1 585.5C409.1 573.3 443.8 563.1 489.7 560.9L492.9 544.2C430 548.1 382.2 567.6 382.2 591C382.2 617.2 442.2 638.5 516.2 638.5C548.6 638.5 578.3 634.4 601.5 627.6C616.5 623.1 615.6 601.4 600.2 598.2Z" fill="#FF8367"/>
<path opacity="0.26" d="M547.6 608.4L595.6 597.9C595.6 597.9 608.2 599.2 610.5 605.9C614.5 617.3 606.3 624.3 606.3 624.3C606.3 624.3 603.2 597.9 547.6 608.4Z" fill="#9B463D"/>
<path d="M600.2 598.2C597.3 597.6 594.2 597.9 591.5 599C573.9 605.9 543.1 610.5 508.1 610.5C453.4 610.5 409.1 599.3 409.1 585.5C409.1 573.3 443.8 563.1 489.7 560.9L492.9 544.2C430 548.1 382.2 567.6 382.2 591C382.2 617.2 442.2 638.5 516.2 638.5C548.6 638.5 578.3 634.4 601.5 627.6C616.5 623.1 615.6 601.4 600.2 598.2Z" stroke="#A83727" stroke-width="6" stroke-miterlimit="10" stroke-linecap="round" stroke-linejoin="round"/>
<path d="M590.8 247C574.8 241.9 557.1 239 538.6 239C520.2 239 502.7 241.8 486.7 246.8C477 224.1 463.8 205.6 449.9 194.1C447.7 192.3 444.4 192.9 443 195.4C415.3 245.5 402.9 302.8 408.1 365.3C412.9 435.1 439.8 511.8 465.3 591.1H612.1C637.7 511.9 664.3 436 669.3 367.1C674.8 304.2 662.2 246.7 633.7 196.1C632.3 193.6 629 193 626.8 194.8C613.2 206.4 600.3 224.6 590.8 247Z" fill="#FF8367"/>
<path opacity="0.26" d="M550.9 341C550.9 344.7 545.4 347.7 538.5 347.7C531.7 347.7 526.1 344.7 526.1 341L538.6 338.2L550.9 341Z" fill="#9B463D"/>
<path opacity="0.26" d="M589.8 589.7C589.8 589.7 589.8 581.8 591.3 575.2C604.5 516.5 595.8 498.4 595.8 498.4L568 589.9L589.8 589.7Z" fill="#9B463D"/>
<path opacity="0.26" d="M485.3 589.7C485.3 589.7 485.3 581.8 483.8 575.2C470.6 516.5 479.3 498.4 479.3 498.4L507.1 589.9L485.3 589.7Z" fill="#9B463D"/>
<path d="M590.8 247C574.8 241.9 557.1 239 538.6 239C520.2 239 502.7 241.8 486.7 246.8C477 224.1 463.8 205.6 449.9 194.1C447.7 192.3 444.4 192.9 443 195.4C415.3 245.5 402.9 302.8 408.1 365.3C412.9 435.1 439.8 511.8 465.3 591.1H612.1C637.7 511.9 664.3 436 669.3 367.1C674.8 304.2 662.2 246.7 633.7 196.1C632.3 193.6 629 193 626.8 194.8C613.2 206.4 600.3 224.6 590.8 247Z" stroke="#A83727" stroke-width="6" stroke-miterlimit="10" stroke-linecap="round" stroke-linejoin="round"/>
<path d="M497.1 294.9C501.518 294.9 505.1 291.318 505.1 286.9C505.1 282.482 501.518 278.9 497.1 278.9C492.682 278.9 489.1 282.482 489.1 286.9C489.1 291.318 492.682 294.9 497.1 294.9Z" fill="#A83727"/>
<path d="M580.1 294.9C584.518 294.9 588.1 291.318 588.1 286.9C588.1 282.482 584.518 278.9 580.1 278.9C575.682 278.9 572.1 282.482 572.1 286.9C572.1 291.318 575.682 294.9 580.1 294.9Z" fill="#A83727"/>
<path d="M545.3 313.8C540.9 313.4 536.5 313.4 532.1 313.8C530 314 529.3 316.1 530.9 317.2C532.3 318.1 533.7 319 535.1 320C537.1 321.4 540.4 321.4 542.4 320C543.8 319 545.2 318.1 546.6 317.2C548.1 316.1 547.3 314 545.3 313.8Z" fill="#A83727"/>
<path d="M595.6 501.3C593.9 530.8 580.2 561.8 570.8 591.3C561.1 591.3 538.6 591.3 538.6 591.3L538.8 508.2" fill="#FF8367"/>
<path d="M481.5 501.3C483.2 530.8 499.9 561.8 509.3 591.3C519 591.3 538.5 591.3 538.5 591.3L538.3 508.2" fill="#FF8367"/>
<path d="M557 340.1C555.2 341.1 553 341.7 550.8 341.7C544.1 341.7 538.7 336.8 538.7 330.8" stroke="#A83727" stroke-width="6" stroke-miterlimit="10" stroke-linecap="round" stroke-linejoin="round"/>
<path d="M520.2 340.1C522 341.1 524.2 341.7 526.4 341.7C533.1 341.7 538.5 336.8 538.5 330.8" stroke="#A83727" stroke-width="6" stroke-miterlimit="10" stroke-linecap="round" stroke-linejoin="round"/>
<path d="M595.6 501.3C593.9 530.8 577.2 561.8 567.8 591.3C558.1 591.3 538.6 591.3 538.6 591.3L538.8 508.2" stroke="#A83727" stroke-width="6" stroke-miterlimit="10" stroke-linecap="round" stroke-linejoin="round"/>
<path d="M481.5 501.3C483.2 530.8 496.9 561.8 506.3 591.3C516 591.3 538.5 591.3 538.5 591.3L538.3 508.2" stroke="#A83727" stroke-width="6" stroke-miterlimit="10" stroke-linecap="round" stroke-linejoin="round"/>
<path opacity="0.26" d="M605.6 258.5C613 235.8 623.8 230 623.8 230C623.8 230 631.6 232.9 631.6 263.8" fill="#9B463D"/>
<path opacity="0.26" d="M471.6 258.5C464.2 235.8 453.4 230 453.4 230C453.4 230 445.6 232.9 445.6 263.8" fill="#9B463D"/>
<path d="M520.8 579.3L523.3 590.6" stroke="#A83727" stroke-width="6" stroke-miterlimit="10" stroke-linecap="round" stroke-linejoin="round"/>
<path d="M556.4 579.3L553.9 590.6" stroke="#A83727" stroke-width="6" stroke-miterlimit="10" stroke-linecap="round" stroke-linejoin="round"/>
<g opacity="0.24">
<path d="M583.5 335.8C595.6 339 608.1 339.6 620.1 337.8" stroke="#A83727" stroke-width="2" stroke-miterlimit="10" stroke-linecap="round" stroke-linejoin="round"/>
<path d="M580.1 343.4C591.1 350.4 602.5 355.2 613.5 357.7" stroke="#A83727" stroke-width="2" stroke-miterlimit="10" stroke-linecap="round" stroke-linejoin="round"/>
<path d="M583.5 325C593.4 324.3 603.6 321.6 613.5 316.9" stroke="#A83727" stroke-width="2" stroke-miterlimit="10" stroke-linecap="round" stroke-linejoin="round"/>
<path d="M493.7 335.8C481.6 339 469.1 339.6 457.1 337.8" stroke="#A83727" stroke-width="2" stroke-miterlimit="10" stroke-linecap="round" stroke-linejoin="round"/>
<path d="M497.1 343.4C486.1 350.4 474.7 355.2 463.7 357.7" stroke="#A83727" stroke-width="2" stroke-miterlimit="10" stroke-linecap="round" stroke-linejoin="round"/>
<path d="M493.7 325C483.8 324.3 473.6 321.6 463.7 316.9" stroke="#A83727" stroke-width="2" stroke-miterlimit="10" stroke-linecap="round" stroke-linejoin="round"/>
</g>
</svg>
