<svg width="789" height="688" viewBox="0 0 789 688" fill="none" xmlns="http://www.w3.org/2000/svg">
<path d="M345.6 401.5L484.6 515.7C491.5 521.4 501.5 521.4 508.4 515.7C517.5 508.2 517.5 494.2 508.4 486.8L358.4 363.6C351 357.5 340.3 357.5 332.8 363.6L182.9 486.7C173.8 494.2 173.8 508.2 182.9 515.6C189.8 521.3 199.8 521.3 206.7 515.6L345.6 401.5Z" stroke="#CECECE" stroke-width="6" stroke-miterlimit="10" stroke-linecap="round" stroke-linejoin="round"/>
<path d="M345.6 401.5L231.4 495.3L241.3 684.4H450L459.8 495.3L345.6 401.5Z" stroke="#CECECE" stroke-width="6" stroke-miterlimit="10" stroke-linecap="round" stroke-linejoin="round"/>
<path d="M345.6 523.2C304.9 523.2 273 550.5 274.2 583.2L278 684.4H413.2L417 583.2C418.2 550.5 386.3 523.2 345.6 523.2Z" stroke="#CECECE" stroke-width="6" stroke-miterlimit="10" stroke-linecap="round" stroke-linejoin="round"/>
<path d="M324.9 490C326.8 494.4 331.9 496.4 336.3 494.6C339.1 493.5 342.3 492.8 345.6 492.8C348.9 492.8 352.1 493.4 354.9 494.6C359.3 496.4 364.4 494.4 366.3 490C367.2 487.9 367.7 485.6 367.7 483.3C367.7 472.7 357.8 464.2 345.5 464.2C333.2 464.2 323.3 472.8 323.3 483.3C323.5 485.7 323.9 487.9 324.9 490Z" stroke="#CECECE" stroke-width="6" stroke-miterlimit="10" stroke-linecap="round" stroke-linejoin="round"/>
<path d="M323.023 460.787C326.411 458.127 327.334 453.647 325.083 450.78C322.833 447.913 318.261 447.744 314.873 450.404C311.484 453.064 310.562 457.544 312.812 460.411C315.063 463.278 319.634 463.447 323.023 460.787Z" stroke="#CECECE" stroke-width="6" stroke-miterlimit="10" stroke-linecap="round" stroke-linejoin="round"/>
<path d="M345.6 453.5C351.233 453.5 355.8 450.411 355.8 446.6C355.8 442.789 351.233 439.7 345.6 439.7C339.967 439.7 335.4 442.789 335.4 446.6C335.4 450.411 339.967 453.5 345.6 453.5Z" stroke="#CECECE" stroke-width="6" stroke-miterlimit="10" stroke-linecap="round" stroke-linejoin="round"/>
<path d="M375.971 463.097C378.222 460.229 377.299 455.749 373.91 453.089C370.522 450.43 365.951 450.598 363.7 453.465C361.45 456.332 362.372 460.813 365.761 463.472C369.149 466.132 373.721 465.964 375.971 463.097Z" stroke="#CECECE" stroke-width="6" stroke-miterlimit="10" stroke-linecap="round" stroke-linejoin="round"/>
<path d="M78.4 684.2H89.9" stroke="#00354C" stroke-width="6" stroke-miterlimit="10" stroke-linecap="round" stroke-linejoin="round"/>
<path d="M385.1 525.8C388 508.4 394.9 488.4 403.1 471.7C391.7 490.3 381.4 516.8 377.7 539.2C372 573.3 373.9 604.6 382.6 624.5L387.8 605.7C381 585.8 379.9 557 385.1 525.8Z" fill="#D1D1D1"/>
<path d="M145.3 354.2C116.7 352.2 115.7 385.2 120.7 407.2C122.7 419.2 109.7 426.2 103.8 435.4C101.3 439.4 99 444.1 97.8 450.1C94.5 466 103.9 479.5 105.4 494C105.8 497.6 105.7 501.3 104.8 505.1C103.7 509.2 101.7 513.2 99.7 517.2C83.7 535.2 57.7 556.2 75.7 580.2C79 584.4 82.6 588.1 86.5 591.4C117.7 618.2 164.7 616.2 200.7 599.2C213.7 592.2 226.7 582.2 229.7 567.2C231.7 551.2 224.7 536.2 214 525.6C210.8 522.1 207.3 518.8 203.7 515.9C201.1 511.9 199.5 508.1 198.7 504.4C196.8 495.2 199.7 486.6 202.5 477.9C203.9 473.6 205.2 469.2 205.9 464.7C209.7 442.1 187.7 428.1 175.7 412.1C170.7 405.1 172.7 396.1 174.7 388.1C178.7 369.1 163.7 353.1 145.8 354.1" fill="#01D392"/>
<path d="M149.8 448.9C145.2 470.6 144.2 491.9 144.8 513.2C145 518.5 158.7 607.2 149.9 646C149.7 651.6 149.7 654.9 149.7 654.9" stroke="#00354C" stroke-width="6" stroke-miterlimit="10" stroke-linecap="round" stroke-linejoin="round"/>
<path d="M164.7 532.8L149.8 554.3" stroke="#00354C" stroke-width="6" stroke-miterlimit="10" stroke-linecap="round" stroke-linejoin="round"/>
<path d="M173.7 687.2H127.7C127.1 687.2 126.6 686.8 126.5 686.2L114.7 636.4H186.7L174.9 686.3C174.8 686.8 174.3 687.2 173.7 687.2Z" fill="#F7BF46"/>
<path opacity="0.68" d="M121.9 664H179.5" stroke="#F7BF46" stroke-miterlimit="10"/>
<path opacity="0.68" d="M122.8 667.6H178.6" stroke="#F7BF46" stroke-miterlimit="10"/>
<path d="M393.3 673V684" stroke="#00354C" stroke-width="6" stroke-miterlimit="10" stroke-linecap="round" stroke-linejoin="round"/>
<path d="M80.2 506.6C86.1094 506.6 90.9 498.81 90.9 489.2C90.9 479.59 86.1094 471.8 80.2 471.8C74.2906 471.8 69.5 479.59 69.5 489.2C69.5 498.81 74.2906 506.6 80.2 506.6Z" fill="#01D392"/>
<path d="M696.208 577.229L686.309 567.329L676.41 577.229L686.309 587.128L696.208 577.229Z" fill="#01D392"/>
<path d="M625.862 287.464L619.499 281.1L613.135 287.464L619.499 293.827L625.862 287.464Z" fill="#01D392"/>
<path d="M117 156.3V170.6" stroke="#00354C" stroke-width="3" stroke-miterlimit="10" stroke-linecap="round" stroke-linejoin="round"/>
<path d="M117 188.7V203" stroke="#00354C" stroke-width="3" stroke-miterlimit="10" stroke-linecap="round" stroke-linejoin="round"/>
<path d="M96.7 168L109.1 175.1" stroke="#00354C" stroke-width="3" stroke-miterlimit="10" stroke-linecap="round" stroke-linejoin="round"/>
<path d="M124.9 184.2L137.3 191.3" stroke="#00354C" stroke-width="3" stroke-miterlimit="10" stroke-linecap="round" stroke-linejoin="round"/>
<path d="M96.7 191.3L109.1 184.2" stroke="#00354C" stroke-width="3" stroke-miterlimit="10" stroke-linecap="round" stroke-linejoin="round"/>
<path d="M124.9 175.1L137.3 168" stroke="#00354C" stroke-width="3" stroke-miterlimit="10" stroke-linecap="round" stroke-linejoin="round"/>
<path d="M743 217.4V227.3" stroke="#00354C" stroke-width="3" stroke-miterlimit="10" stroke-linecap="round" stroke-linejoin="round"/>
<path d="M743 239.9V249.9" stroke="#00354C" stroke-width="3" stroke-miterlimit="10" stroke-linecap="round" stroke-linejoin="round"/>
<path d="M729 225.5L737.6 230.5" stroke="#00354C" stroke-width="3" stroke-miterlimit="10" stroke-linecap="round" stroke-linejoin="round"/>
<path d="M748.5 236.8L757.1 241.7" stroke="#00354C" stroke-width="3" stroke-miterlimit="10" stroke-linecap="round" stroke-linejoin="round"/>
<path d="M729 241.7L737.6 236.8" stroke="#00354C" stroke-width="3" stroke-miterlimit="10" stroke-linecap="round" stroke-linejoin="round"/>
<path d="M748.5 230.5L757.1 225.5" stroke="#00354C" stroke-width="3" stroke-miterlimit="10" stroke-linecap="round" stroke-linejoin="round"/>
<path d="M666.4 379.9C674.74 379.9 681.5 373.14 681.5 364.8C681.5 356.461 674.74 349.7 666.4 349.7C658.061 349.7 651.3 356.461 651.3 364.8C651.3 373.14 658.061 379.9 666.4 379.9Z" fill="#F7BF46"/>
<path d="M666.4 342.8V354.9" stroke="#00354C" stroke-width="3" stroke-miterlimit="10" stroke-linecap="round" stroke-linejoin="round"/>
<path d="M666.4 374.6V386.7" stroke="#00354C" stroke-width="3" stroke-miterlimit="10" stroke-linecap="round" stroke-linejoin="round"/>
<path d="M647.4 353.8L657.9 359.8" stroke="#00354C" stroke-width="3" stroke-miterlimit="10" stroke-linecap="round" stroke-linejoin="round"/>
<path d="M675 369.7L685.5 375.7" stroke="#00354C" stroke-width="3" stroke-miterlimit="10" stroke-linecap="round" stroke-linejoin="round"/>
<path d="M647.4 376.4L657.9 369.7" stroke="#00354C" stroke-width="3" stroke-miterlimit="10" stroke-linecap="round" stroke-linejoin="round"/>
<path d="M675 359.8L685.5 353.8" stroke="#00354C" stroke-width="3" stroke-miterlimit="10" stroke-linecap="round" stroke-linejoin="round"/>
<path d="M440.4 40.8999V55.5999" stroke="#00354C" stroke-width="4" stroke-miterlimit="10" stroke-linecap="round" stroke-linejoin="round"/>
<path d="M447.7 48.2002H433.1" stroke="#00354C" stroke-width="4" stroke-miterlimit="10" stroke-linecap="round" stroke-linejoin="round"/>
<path d="M779.6 555.1V569.8" stroke="#00354C" stroke-width="4" stroke-miterlimit="10" stroke-linecap="round" stroke-linejoin="round"/>
<path d="M786.9 562.5H772.2" stroke="#00354C" stroke-width="4" stroke-miterlimit="10" stroke-linecap="round" stroke-linejoin="round"/>
<path d="M265.1 296V305" stroke="#00354C" stroke-width="4" stroke-miterlimit="10" stroke-linecap="round" stroke-linejoin="round"/>
<path d="M269.6 300.5H260.6" stroke="#00354C" stroke-width="4" stroke-miterlimit="10" stroke-linecap="round" stroke-linejoin="round"/>
<path d="M230.287 373.352L223.216 366.281L216.145 373.352L223.216 380.423L230.287 373.352Z" fill="#F7BF46"/>
<path d="M2 331.2H28.4" stroke="#00354C" stroke-width="4" stroke-miterlimit="10" stroke-linecap="round" stroke-linejoin="round"/>
<path d="M37.4 331.2H47.5" stroke="#00354C" stroke-width="4" stroke-miterlimit="10" stroke-linecap="round" stroke-linejoin="round"/>
<path d="M16.7 344H45.9" stroke="#00354C" stroke-width="4" stroke-miterlimit="10" stroke-linecap="round" stroke-linejoin="round"/>
<path d="M574.1 455.1H600.4" stroke="#00354C" stroke-width="4" stroke-miterlimit="10" stroke-linecap="round" stroke-linejoin="round"/>
<path d="M609.4 455.1H619.5" stroke="#00354C" stroke-width="4" stroke-miterlimit="10" stroke-linecap="round" stroke-linejoin="round"/>
<path d="M588.7 465.8H618" stroke="#00354C" stroke-width="4" stroke-miterlimit="10" stroke-linecap="round" stroke-linejoin="round"/>
<path d="M654.9 684.2H696.2" stroke="#00354C" stroke-width="6" stroke-miterlimit="10" stroke-linecap="round" stroke-linejoin="round"/>
<path d="M110.9 684.2H193.6" stroke="#00354C" stroke-width="6" stroke-miterlimit="10" stroke-linecap="round" stroke-linejoin="round"/>
<path d="M590.4 144.4C618.953 144.4 642.1 121.253 642.1 92.7C642.1 64.1469 618.953 41 590.4 41C561.847 41 538.7 64.1469 538.7 92.7C538.7 121.253 561.847 144.4 590.4 144.4Z" fill="#F7BF46"/>
<path d="M642.1 103.4C670.653 103.4 693.8 80.2531 693.8 51.7C693.8 23.1469 670.653 0 642.1 0C613.547 0 590.4 23.1469 590.4 51.7C590.4 80.2531 613.547 103.4 642.1 103.4Z" fill="#F7BF46"/>
<path d="M713.8 117.4C739.868 117.4 761 96.2678 761 70.2C761 44.1322 739.868 23 713.8 23C687.732 23 666.6 44.1322 666.6 70.2C666.6 96.2678 687.732 117.4 713.8 117.4Z" fill="#F7BF46"/>
<path d="M642.1 173.5C670.543 173.5 693.6 150.443 693.6 122C693.6 93.5573 670.543 70.5 642.1 70.5C613.657 70.5 590.6 93.5573 590.6 122C590.6 150.443 613.657 173.5 642.1 173.5Z" fill="#F7BF46"/>
<path d="M696.9 156.3C715.843 156.3 731.2 140.944 731.2 122C731.2 103.057 715.843 87.7002 696.9 87.7002C677.957 87.7002 662.6 103.057 662.6 122C662.6 140.944 677.957 156.3 696.9 156.3Z" fill="#F7BF46"/>
<path d="M588.7 227.6C588.7 235.4 586.7 240.1 578.9 240.1C571.1 240.1 564.7 237.1 564.7 229.3C564.7 221.5 568.8 214.5 576.7 214.5C584.6 214.5 588.7 219.8 588.7 227.6Z" fill="#F7BF46"/>
<path d="M616.8 188.7C616.8 200.5 613.9 207.5 602.1 207.5C590.3 207.5 580.9 203 580.9 191.2C580.9 179.4 590.4 169.9 602.2 169.9C614 169.9 616.8 177 616.8 188.7Z" fill="#F7BF46"/>
<path d="M606.9 540.2C607.1 542.9 607.2 545.6 607.2 548.3C607.2 604.2 562.2 649.6 506.7 649.6C460.1 649.6 420.9 617.6 409.5 574.2C413.6 626.3 456.9 667.4 509.7 667.4C565.2 667.4 610.2 622.1 610.2 566.1C610.3 557.1 609.1 548.5 606.9 540.2Z" fill="white"/>
<path d="M606.9 540.2C607.1 542.9 607.2 545.6 607.2 548.3C607.2 604.2 562.2 649.6 506.7 649.6C460.1 649.6 420.9 617.6 409.5 574.2C413.6 626.3 456.9 667.4 509.7 667.4C565.2 667.4 610.2 622.1 610.2 566.1C610.3 557.1 609.1 548.5 606.9 540.2Z" stroke="#00354C" stroke-width="6" stroke-miterlimit="10" stroke-linecap="round" stroke-linejoin="round"/>
<path d="M431.2 449.2C414.2 441.6 384.6 497.6 377.7 539.2C372 573.3 373.9 604.6 382.6 624.5L431.2 449.2Z" fill="white"/>
<path d="M431.2 449.2C414.2 441.6 384.6 497.6 377.7 539.2C372 573.3 373.9 604.6 382.6 624.5L431.2 449.2Z" stroke="#00354C" stroke-width="6" stroke-miterlimit="10" stroke-linecap="round" stroke-linejoin="round"/>
<path d="M483.6 449.2C500.6 441.6 530.2 497.6 537.1 539.2C542.8 573.3 540.9 604.6 532.2 624.5L483.6 449.2Z" fill="white"/>
<path d="M529.8 525.8C526.9 508.4 520 488.4 511.8 471.7C523.2 490.3 533.5 516.8 537.2 539.2C542.9 573.3 541 604.6 532.3 624.5L527.1 605.7C533.9 585.8 534.9 557 529.8 525.8Z" fill="#D1D1D1"/>
<path d="M483.6 449.2C500.6 441.6 530.2 497.6 537.1 539.2C542.8 573.3 540.9 604.6 532.2 624.5L483.6 449.2Z" stroke="#00354C" stroke-width="6" stroke-miterlimit="10" stroke-linecap="round" stroke-linejoin="round"/>
<path d="M535.2 632C534.1 615.4 490.9 435.2 479.2 426.2H458.1H436.4C424.7 435.2 381.4 615.3 380.4 632C379.1 652.7 372.3 684.2 411.6 684.2H458.1H504.1C543.3 684.2 536.5 652.7 535.2 632Z" fill="white"/>
<path d="M385.1 606.5C385.1 606.5 382 632.9 396.8 642.6C408.4 650.3 418.6 653.4 437.7 656.9C448 658.8 459.2 659.6 459.2 659.6L460.4 683.3L379 683.9C379 683.9 377.6 650.6 379.6 640.6C381.6 630.7 382.6 614.1 385.1 606.5Z" fill="#D1D1D1"/>
<path d="M531.3 606.5C531.3 606.5 534.4 632.9 519.6 642.6C508 650.3 497.8 653.4 478.7 656.9C468.4 658.8 457.2 659.6 457.2 659.6L456 683.3L537.4 683.9C537.4 683.9 538.8 650.6 536.8 640.6C534.8 630.7 533.8 614.1 531.3 606.5Z" fill="#D1D1D1"/>
<path d="M493.5 462.5C491 461.8 488.6 461.4 486.5 461.4C474.3 461.4 464.6 467.9 464.6 482.9C464.6 498 486.5 515.9 498.7 515.9C502 515.9 505.1 515 507.9 513.4C503 495 498 477.2 493.5 462.5Z" fill="#F7BF46"/>
<path d="M401 592.1C414.5 592.1 425.5 578.8 425.5 562.4C425.5 546.7 415.4 533.8 402.6 532.8C397.6 552.4 392.9 571.8 389.1 588.3C392.7 590.7 396.7 592.1 401 592.1Z" fill="#F7BF46"/>
<path d="M433.3 430.5C433.3 430.5 440.4 436.2 456.7 436.2C469.9 436.2 481.5 430.5 481.5 430.5L480.5 426.6H434L433.3 430.5Z" fill="#D1D1D1"/>
<path d="M535.2 632C534.1 615.4 490.9 435.2 479.2 426.2H458.1H436.4C424.7 435.2 381.4 615.3 380.4 632C379.1 652.7 372.3 684.2 411.6 684.2H458.1H504.1C543.3 684.2 536.5 652.7 535.2 632Z" stroke="#00354C" stroke-width="6" stroke-miterlimit="10" stroke-linecap="round" stroke-linejoin="round"/>
<path d="M532.9 354.2C531 334.7 521.4 285.4 510.6 250.9C493.4 195.8 473.2 181.4 461.5 179.9C460.3 179.7 457.7 179.7 457.7 179.7C457.7 179.7 455.2 179.7 453.9 179.9C442.2 181.3 422.1 195.6 404.8 250.8C394 285.3 384.5 334.7 382.5 354.3C378.2 398.3 399.3 422.6 426.7 426.1C434.5 427.1 449.9 427.1 457.7 427.1C465.4 427.1 480.8 427.1 488.7 426.1C516 422.5 537.2 398.2 532.9 354.2Z" fill="white"/>
<path d="M457.7 394.5C468.138 394.5 476.6 387.829 476.6 379.6C476.6 371.371 468.138 364.7 457.7 364.7C447.262 364.7 438.8 371.371 438.8 379.6C438.8 387.829 447.262 394.5 457.7 394.5Z" fill="#D1D1D1"/>
<path d="M440.4 185.5C440.4 185.5 431.4 219.4 412.6 229.2C417.4 218.4 423.9 205.5 423.9 205.5C423.9 205.5 435.1 187 440.4 185.5Z" fill="#D1D1D1"/>
<path d="M461.5 180C461.5 180 485.9 222 506.2 238.1C506.2 238.1 501.6 208.3 497.1 199.3C492.6 190.3 470.6 177.2 461.5 180Z" fill="#D1D1D1"/>
<path d="M409.7 341.3C449 324.4 472.5 291.1 462.1 267C454.8 250.1 432.8 242.2 406.8 244.8C406.2 246.7 405.5 248.7 404.9 250.8C394.9 282.8 386 327.5 383.2 349.4C391.8 347.8 400.8 345.2 409.7 341.3Z" fill="#F7BF46"/>
<path d="M514 387.1C502.8 403.4 478.3 414.4 452.2 414.4C428 414.4 413.5 400.2 405 382.5" stroke="#00354C" stroke-width="6" stroke-miterlimit="10" stroke-linecap="round" stroke-linejoin="round"/>
<path d="M457.7 389.2C470.789 389.2 481.4 383.738 481.4 377C481.4 370.262 470.789 364.8 457.7 364.8C444.611 364.8 434 370.262 434 377C434 383.738 444.611 389.2 457.7 389.2Z" fill="#00354C"/>
<path d="M587.8 677.9C572.6 663.6 543.4 656.5 514.9 658.7C490.5 660.5 472.4 668.8 465.3 679.8C464.1 681.7 465.6 684.2 467.9 684.2H583.4C587.9 684.2 590.6 680.5 587.8 677.9Z" fill="white"/>
<path d="M587 677.7C586.7 677.8 586.3 677.9 585.9 677.9H470.4C469 677.9 467.8 677.6 466.9 677C466.6 677.3 466.2 677.6 465.9 677.9C463.1 680.5 465.8 684.2 470.4 684.2H585.9C588.2 684.2 589.7 681.6 588.5 679.8C588 679 587.5 678.3 587 677.7Z" fill="#D1D1D1"/>
<path d="M587.8 677.9C572.6 663.6 543.4 656.5 514.9 658.7C490.5 660.5 472.4 668.8 465.3 679.8C464.1 681.7 465.6 684.2 467.9 684.2H583.4C587.9 684.2 590.6 680.5 587.8 677.9Z" stroke="#00354C" stroke-width="6" stroke-miterlimit="10" stroke-linecap="round" stroke-linejoin="round"/>
<path d="M525.3 673V684" stroke="#00354C" stroke-width="6" stroke-miterlimit="10" stroke-linecap="round" stroke-linejoin="round"/>
<path d="M330.9 677.9C346.1 663.6 375.3 656.5 403.8 658.7C428.2 660.5 446.3 668.8 453.4 679.8C454.6 681.7 453.1 684.2 450.8 684.2H335.3C330.8 684.2 328.1 680.5 330.9 677.9Z" fill="white"/>
<path d="M452 677.7C451.7 677.8 451.3 677.9 450.9 677.9H335.4C334 677.9 332.8 677.6 331.9 677C331.6 677.3 331.2 677.6 330.9 677.9C328.1 680.5 330.8 684.2 335.4 684.2H450.9C453.2 684.2 454.7 681.6 453.5 679.8C453 679 452.5 678.3 452 677.7Z" fill="#D1D1D1"/>
<path d="M330.9 677.9C346.1 663.6 375.3 656.5 403.8 658.7C428.2 660.5 446.3 668.8 453.4 679.8C454.6 681.7 453.1 684.2 450.8 684.2H335.3C330.8 684.2 328.1 680.5 330.9 677.9Z" stroke="#00354C" stroke-width="6" stroke-miterlimit="10" stroke-linecap="round" stroke-linejoin="round"/>
<path d="M532.9 354.2C531 334.7 521.4 285.4 510.6 250.9C493.4 195.8 473.2 181.4 461.5 179.9C460.3 179.7 457.7 179.7 457.7 179.7C457.7 179.7 455.2 179.7 453.9 179.9C442.2 181.3 422.1 195.6 404.8 250.8C394 285.3 384.5 334.7 382.5 354.3C378.2 398.3 399.3 422.6 426.7 426.1C434.5 427.1 449.9 427.1 457.7 427.1C465.4 427.1 480.8 427.1 488.7 426.1C516 422.5 537.2 398.2 532.9 354.2Z" stroke="#00354C" stroke-width="6" stroke-miterlimit="10" stroke-linecap="round" stroke-linejoin="round"/>
<path d="M459.7 179.5C459.7 179.5 494.6 172.1 504.2 176.6C514.1 181.2 532 216.3 524.6 230C513.3 251 480.1 175 459.7 179.5Z" fill="white"/>
<path d="M459.7 179.5C459.7 179.5 494.6 172.1 504.2 176.6C514.1 181.2 532 216.3 524.6 230C513.3 251 480.1 175 459.7 179.5Z" stroke="#00354C" stroke-width="6" stroke-miterlimit="10" stroke-linecap="round" stroke-linejoin="round"/>
<path d="M394.2 185.8L442.5 184.4C442.5 184.4 397.7 232.6 377 243C356.3 253.4 377.5 185.7 394.2 185.8Z" fill="white"/>
<path d="M394.2 185.8L442.5 184.4C442.5 184.4 397.7 232.6 377 243C356.3 253.4 377.5 185.7 394.2 185.8Z" stroke="#00354C" stroke-width="6" stroke-miterlimit="10" stroke-linecap="round" stroke-linejoin="round"/>
<path d="M438.6 294C441.361 294 443.6 291.09 443.6 287.5C443.6 283.91 441.361 281 438.6 281C435.839 281 433.6 283.91 433.6 287.5C433.6 291.09 435.839 294 438.6 294Z" fill="#00354C"/>
<path d="M480.8 294C483.561 294 485.8 291.09 485.8 287.5C485.8 283.91 483.561 281 480.8 281C478.039 281 475.8 283.91 475.8 287.5C475.8 291.09 478.039 294 480.8 294Z" fill="#00354C"/>
<path d="M282.2 684.2H628.9" stroke="#00354C" stroke-width="6" stroke-miterlimit="10" stroke-linecap="round" stroke-linejoin="round"/>
<path d="M558.1 247C558.1 252.6 556.7 255.9 551.1 255.9C545.5 255.9 541 253.8 541 248.2C541 242.6 545.5 238.1 551.1 238.1C556.7 238.1 558.1 241.4 558.1 247Z" fill="#F7BF46"/>
<path d="M694.7 87.9998C696.2 86.1998 697.1 83.6998 696.8 80.9998C696.3 76.7998 690.6 74.6998 688.2 74.1998C685 73.5998 678.3 76.4998 678.3 81.9998C678.3 83.2998 677.3 84.3998 676 84.3998H630.5C629.2 84.3998 628.2 83.2998 628.2 82.0998C628.2 80.8998 628 79.5998 627.4 78.2998C626.1 75.2998 622.8 74.8998 619.9 74.5998C614.9 73.9998 609.6 76.4998 609.6 81.9998C609.6 84.2998 610.4 86.2998 611.8 87.8998C612.7 88.9998 612.7 90.5998 611.8 91.6998C610.3 93.4998 609.4 95.9998 609.7 98.6998C610.2 102.9 614.2 104.7 618 105.1C623 105.7 628.2 103.1 628.2 97.6998C628.2 96.3998 629.2 95.2998 630.5 95.2998H676C677.3 95.2998 678.3 96.3998 678.3 97.5998C678.3 98.7998 678.5 100.1 679.1 101.4C680.4 104.4 685.1 105.1 686.9 105.5C690.1 106.1 696.8 103.2 696.8 97.6998C696.8 95.3998 696 93.3998 694.6 91.7998C693.8 90.6998 693.8 89.0998 694.7 87.9998Z" fill="#F6F6F4"/>
</svg>
