<svg width="60" height="60" viewBox="0 0 60 60" fill="none" xmlns="http://www.w3.org/2000/svg">
<rect width="60" height="60" fill="#363A59"/>
<path d="M49.8439 31.3069C47.1991 30.3458 44.584 30.5172 41.9839 31.5006" stroke="#FAFAFA" stroke-linecap="round" stroke-linejoin="round"/>
<path d="M35.3083 18.3956V21.8748" stroke="#FAFAFA" stroke-linecap="round" stroke-linejoin="round"/>
<path d="M43.1684 14.7971C42.1179 16.235 41.0749 17.6803 39.7935 19.4386" stroke="#FAFAFA" stroke-linecap="round" stroke-linejoin="round"/>
<path d="M25.0864 18.254V21.8748" stroke="#FAFAFA" stroke-linecap="round" stroke-linejoin="round"/>
<path d="M17.6213 15.5868C18.8208 16.9353 20.0203 18.2838 21.1975 19.6099C27.4632 15.8327 34.6378 16.3095 39.6295 19.595" stroke="#FAFAFA" stroke-linecap="round" stroke-linejoin="round"/>
<path d="M49.8439 35.628C47.3257 34.4583 44.7554 33.7729 41.9839 34.6446" stroke="#FAFAFA" stroke-linecap="round" stroke-linejoin="round"/>
<path d="M18.0163 31.3069C15.3714 30.4575 12.7489 30.4501 10.1562 31.5006" stroke="#FAFAFA" stroke-linecap="round" stroke-linejoin="round"/>
<path d="M13.8888 34.4509C12.6446 34.9128 11.4004 35.3673 10.1562 35.8292" stroke="#FAFAFA" stroke-linecap="round" stroke-linejoin="round"/>
<path d="M30.1975 18.1422V21.8748" stroke="#FAFAFA" stroke-linecap="round" stroke-linejoin="round"/>
<path d="M18.016 34.4509H14.2834" stroke="#FAFAFA" stroke-linecap="round" stroke-linejoin="round"/>
<path d="M17.6215 15.5868C14.2614 21.6141 12.8607 27.4774 14.1273 34.2497C15.066 39.2414 18.5602 42.147 23.1272 43.8755C27.5229 45.5369 32.0601 45.6189 36.4707 44.2331C43.5335 42.0204 47.1469 37.0585 46.8936 29.5412C46.7372 24.9741 45.858 20.5561 43.9358 16.384C43.7943 16.0711 43.4292 15.0653 43.1685 14.8045" stroke="#FAFAFA" stroke-linecap="round" stroke-linejoin="round"/>
<path d="M23.2612 36.2762C23.2612 36.2762 27.262 40.0163 30.3837 36.2762C30.3837 36.2762 34.0343 39.8375 36.9027 36.2762" stroke="#FAFAFA" stroke-linecap="round" stroke-linejoin="round"/>
<path d="M20.7581 27.6115C20.7581 27.6115 23.0602 25.0113 24.9898 27.6115" stroke="#FAFAFA" stroke-linecap="round" stroke-linejoin="round"/>
<path d="M35.1667 27.6115C35.1667 27.6115 37.4689 25.0113 39.3985 27.6115" stroke="#FAFAFA" stroke-linecap="round" stroke-linejoin="round"/>
<path d="M29.229 31.0834H31.3374C31.777 31.0834 32.0601 31.5602 31.8441 31.9476L30.2795 33.4526L28.7149 31.9476C28.4989 31.5602 28.782 31.0834 29.2216 31.0834H29.229Z" stroke="#FAFAFA" stroke-linecap="round" stroke-linejoin="round"/>
</svg>
