<svg width="103" height="25" viewBox="0 0 103 25" fill="none" xmlns="http://www.w3.org/2000/svg">
<g clip-path="url(#clip0_321_11787)">
<path d="M16.4245 10.0556C15.5742 13.1637 8.3288 25.0019 8.3288 25.0019C8.3288 25.0019 1.08343 13.1656 0.233086 10.0556C-0.609489 6.96867 0.984415 3.71972 2.44436 2.23029C3.86936 0.773659 5.33319 0.0308742 5.90591 5.2728e-06C6.47863 -0.0289344 8.51906 0.26625 6.92321 2.62387C5.32737 4.98148 2.35894 7.84844 3.70628 10.3565C4.63234 12.0813 7.02223 12.1489 7.57941 10.8967C7.8318 10.3276 7.48428 9.68321 6.74266 8.78994C6.31749 8.27868 5.51763 7.53589 5.51763 6.81626C5.51763 5.41944 6.92321 5.43487 8.33074 5.41944C9.73633 5.43487 11.1439 5.41944 11.1439 6.81626C11.1439 7.53589 10.3421 8.27675 9.91882 8.78994C9.1772 9.68514 8.82774 10.3276 9.08207 10.8967C9.63926 12.1489 12.0291 12.0833 12.9552 10.3565C14.3025 7.84651 11.3341 4.98148 9.73827 2.62387C8.14242 0.26625 10.179 -0.0270051 10.7517 5.2728e-06C11.3244 0.0289449 12.7882 0.771729 14.2152 2.22836C15.6751 3.71779 17.2671 6.96674 16.4226 10.0536L16.4245 10.0556Z" fill="#006667"/>
<path d="M24.5783 19.3278C25.6791 19.3278 26.5333 19.133 27.1449 18.7413C27.7564 18.3362 28.0612 17.6879 28.0612 16.7985C28.0612 16.2853 27.9603 15.8609 27.7564 15.5232C27.5662 15.1721 27.308 14.8827 26.9818 14.6531C26.6556 14.41 26.2829 14.2074 25.8616 14.0454C25.4403 13.8698 24.9996 13.6885 24.5376 13.4994C23.9532 13.2698 23.4309 13.0344 22.9689 12.7913C22.5068 12.5482 22.1127 12.2781 21.7866 11.981C21.4604 11.6704 21.21 11.3193 21.0333 10.9276C20.8702 10.536 20.7887 10.0768 20.7887 9.55201C20.7887 8.35005 21.1886 7.43942 21.9904 6.82011C22.7922 6.19887 23.9046 5.88825 25.3316 5.88825C25.7121 5.88825 26.0849 5.91526 26.4518 5.96928C26.8187 6.0233 27.1585 6.09662 27.471 6.19115C27.7972 6.27219 28.0884 6.36672 28.3466 6.47476C28.6184 6.5828 28.8417 6.69663 29.0183 6.81818L28.5291 7.97191C28.135 7.7018 27.6535 7.48572 27.0828 7.32366C26.5256 7.1616 25.9218 7.08057 25.2695 7.08057C24.821 7.08057 24.4075 7.12687 24.027 7.22141C23.66 7.30244 23.3416 7.44328 23.0698 7.64585C22.798 7.83493 22.5806 8.07802 22.4175 8.37513C22.268 8.67225 22.1943 9.02917 22.1943 9.44783C22.1943 9.86649 22.2758 10.2446 22.4389 10.5417C22.602 10.8389 22.8252 11.0955 23.1106 11.3115C23.4096 11.5276 23.7552 11.7225 24.1493 11.8981C24.5434 12.0736 24.9705 12.255 25.4325 12.444C25.9897 12.6736 26.512 12.9032 27.0012 13.1328C27.504 13.3624 27.9389 13.6325 28.3039 13.9431C28.6708 14.2537 28.962 14.6319 29.1795 15.0776C29.3969 15.5232 29.5056 16.0692 29.5056 16.7175C29.5056 17.985 29.0572 18.9381 28.1622 19.5709C27.2788 20.2057 26.0771 20.5221 24.557 20.5221C24.0134 20.5221 23.5183 20.4893 23.0698 20.4217C22.6214 20.3542 22.2214 20.2732 21.8681 20.1787C21.5148 20.0706 21.2158 19.9626 20.9712 19.8545C20.7265 19.7465 20.5363 19.652 20.4004 19.5709L20.8489 18.3767C20.9848 18.4577 21.1673 18.5522 21.3983 18.6603C21.6293 18.7683 21.9011 18.8764 22.2137 18.9844C22.5262 19.0789 22.8796 19.16 23.2737 19.2275C23.6678 19.295 24.1027 19.3278 24.5764 19.3278H24.5783ZM30.82 10.1173C31.2141 10.0093 31.7441 9.88771 32.4081 9.75266C33.074 9.61761 33.8874 9.55008 34.8523 9.55008C35.6541 9.55008 36.3181 9.66391 36.8481 9.8935C37.3917 10.1231 37.8188 10.453 38.1314 10.8852C38.4575 11.3038 38.6886 11.8093 38.8244 12.4035C38.9603 12.9978 39.0283 13.6518 39.0283 14.3676V20.2172H37.7043V14.792C37.7043 14.0492 37.6499 13.4222 37.5412 12.909C37.446 12.3958 37.2771 11.9772 37.0325 11.655C36.8015 11.3308 36.4889 11.1012 36.0948 10.9662C35.7143 10.8176 35.2328 10.7443 34.6485 10.7443C34.0233 10.7443 33.4797 10.7771 33.0196 10.8446C32.5711 10.9122 32.2799 10.972 32.144 11.026V20.2153H30.82V10.1154V10.1173ZM42.5772 20.2172H41.2532V9.75266H42.5772V20.2172ZM42.882 6.59438C42.882 6.905 42.7869 7.15388 42.5966 7.34295C42.4064 7.51852 42.1753 7.60534 41.9035 7.60534C41.6317 7.60534 41.4007 7.51852 41.2105 7.34295C41.0202 7.15388 40.9251 6.905 40.9251 6.59438C40.9251 6.28376 41.0202 6.04067 41.2105 5.8651C41.4007 5.67603 41.6317 5.58149 41.9035 5.58149C42.1753 5.58149 42.4064 5.67603 42.5966 5.8651C42.7869 6.04067 42.882 6.28376 42.882 6.59438ZM48.7917 4.5088C49.3625 4.5088 49.8245 4.5551 50.1759 4.64964C50.5429 4.73067 50.7797 4.80398 50.8884 4.87151L50.6244 6.00594C50.4749 5.93841 50.2516 5.87089 49.9527 5.80336C49.6673 5.72233 49.3003 5.68182 48.8519 5.68182C47.9142 5.68182 47.2424 5.91719 46.8347 6.38987C46.4406 6.86255 46.2446 7.61691 46.2446 8.65681V9.75073H50.4807V10.8639H46.2446V20.2153H44.9205V8.6163C44.9205 7.2542 45.2331 6.22781 45.8582 5.53905C46.4969 4.85028 47.4735 4.50687 48.7917 4.50687V4.5088ZM56.1011 4.5088C56.6719 4.5088 57.134 4.5551 57.4854 4.64964C57.8523 4.73067 58.0891 4.80398 58.1979 4.87151L57.9338 6.00594C57.7843 5.93841 57.5611 5.87089 57.2621 5.80336C56.9767 5.72233 56.6098 5.68182 56.1613 5.68182C55.2236 5.68182 54.5519 5.91719 54.1442 6.38987C53.7501 6.86255 53.554 7.61691 53.554 8.65681V9.75073H57.7902V10.8639H53.554V20.2153H52.2299V8.6163C52.2299 7.2542 52.5425 6.22781 53.1676 5.53905C53.8064 4.85028 54.7829 4.50687 56.1011 4.50687V4.5088Z" fill="#006667"/>
<path d="M69.7785 20.2172C68.7573 18.4153 67.6526 16.6364 66.4644 14.8808C65.2763 13.1251 64.0105 11.4659 62.6709 9.90701V20.2172H59.1511V4.47986H62.0535C62.5564 4.97955 63.1136 5.59307 63.7212 6.32042C64.3308 7.04777 64.9482 7.82721 65.5714 8.65874C66.2121 9.47677 66.843 10.3315 67.4682 11.2247C68.0933 12.1026 68.6796 12.9515 69.2271 13.7676V4.47986H72.7702V20.2192H69.7765L69.7785 20.2172ZM74.467 14.9753C74.467 14.0299 74.6087 13.2081 74.8941 12.5058C75.1931 11.79 75.5794 11.1977 76.0551 10.725C76.5307 10.2524 77.0743 9.89543 77.6839 9.65234C78.309 9.40925 78.9458 9.2877 79.5981 9.2877C81.1202 9.2877 82.322 9.75266 83.2034 10.6845C84.0867 11.6029 84.5274 12.9592 84.5274 14.7534C84.5274 14.929 84.5216 15.1239 84.508 15.3399C84.4944 15.5425 84.4808 15.7239 84.4672 15.8859H77.5829C77.6509 16.5072 77.9421 16.9992 78.4585 17.3638C78.9749 17.7284 79.668 17.9098 80.5358 17.9098C81.093 17.9098 81.6366 17.8635 82.1647 17.7689C82.7083 17.6609 83.149 17.5336 83.4887 17.385L83.8964 19.8333C83.7334 19.9143 83.5159 19.9954 83.2441 20.0764C82.9723 20.1574 82.6675 20.225 82.3278 20.279C82.0016 20.3465 81.6483 20.4005 81.2678 20.441C80.8872 20.4816 80.5067 20.5008 80.1262 20.5008C79.1633 20.5008 78.3207 20.36 77.6004 20.0764C76.8937 19.7928 76.3036 19.4089 75.8279 18.9227C75.3658 18.423 75.0203 17.8365 74.7893 17.1612C74.5718 16.486 74.4631 15.7586 74.4631 14.9753H74.467ZM81.5959 13.8216C81.5823 13.565 81.5357 13.3161 81.4541 13.073C81.3862 12.8299 81.2716 12.6138 81.1086 12.4248C80.9591 12.2357 80.763 12.0813 80.5184 11.9598C80.2873 11.8382 79.9961 11.7784 79.6428 11.7784C79.2895 11.7784 79.0118 11.8382 78.7672 11.9598C78.5226 12.0678 78.3187 12.2164 78.1557 12.4055C77.9926 12.5945 77.8645 12.8164 77.7693 13.073C77.6878 13.3161 77.6276 13.565 77.5868 13.8216H81.5997H81.5959ZM89.9187 18.1124C90.2177 18.1124 90.5031 18.1046 90.7749 18.0931C91.0467 18.0796 91.2641 18.0603 91.4272 18.0333V15.7451C91.3049 15.7181 91.1224 15.6911 90.8778 15.6641C90.6332 15.6371 90.4099 15.6236 90.2061 15.6236C89.9207 15.6236 89.6489 15.6428 89.3907 15.6834C89.146 15.7104 88.9286 15.7702 88.7383 15.8647C88.5481 15.9593 88.3986 16.0866 88.2899 16.2486C88.1811 16.4107 88.1268 16.6133 88.1268 16.8564C88.1268 17.3291 88.2821 17.659 88.5947 17.848C88.9208 18.0236 89.3615 18.1104 89.9187 18.1104V18.1124ZM89.6741 9.2877C90.571 9.2877 91.3165 9.38802 91.9145 9.5906C92.5125 9.79318 92.9862 10.0826 93.3395 10.4607C93.7064 10.8389 93.9646 11.298 94.1141 11.8363C94.2636 12.3765 94.3374 12.9765 94.3374 13.6383V19.9124C93.9025 20.0069 93.2987 20.115 92.5241 20.2365C91.7495 20.3716 90.8137 20.4391 89.7129 20.4391C89.0198 20.4391 88.3889 20.3793 87.8181 20.2578C87.2609 20.1362 86.7794 19.9413 86.3718 19.6712C85.9641 19.3876 85.6515 19.023 85.434 18.5773C85.2166 18.1317 85.1079 17.5857 85.1079 16.9374C85.1079 16.2892 85.2302 15.7895 85.4748 15.3592C85.733 14.9271 86.0728 14.5837 86.4941 14.3271C86.9153 14.0705 87.3968 13.8891 87.9404 13.7811C88.484 13.6595 89.047 13.5997 89.6314 13.5997C90.0255 13.5997 90.3711 13.619 90.67 13.6595C90.9826 13.6865 91.2331 13.727 91.4233 13.7811V13.4975C91.4233 12.9843 91.2661 12.5733 90.9554 12.2627C90.6429 11.9521 90.0993 11.7977 89.3266 11.7977C88.8102 11.7977 88.3015 11.8382 87.7987 11.9193C87.2959 11.9868 86.861 12.0871 86.496 12.2222L86.1097 9.79318C86.2863 9.73916 86.5038 9.68514 86.762 9.63112C87.0338 9.56359 87.325 9.50957 87.6376 9.46905C87.9501 9.41503 88.2763 9.37452 88.616 9.34751C88.9694 9.30699 89.3227 9.2877 89.676 9.2877H89.6741ZM102.491 12.2434C102.22 12.1759 101.901 12.1084 101.534 12.0408C101.167 11.9598 100.773 11.9193 100.352 11.9193C100.162 11.9193 99.9306 11.9386 99.6588 11.9791C99.4006 12.0061 99.2045 12.0389 99.0686 12.0794V20.2172H96.0342V10.1366C96.5778 9.94752 97.2165 9.77196 97.9484 9.60989C98.6959 9.43433 99.5229 9.34751 100.433 9.34751C100.597 9.34751 100.793 9.36101 101.024 9.38802C101.255 9.40153 101.486 9.42854 101.717 9.46905C101.948 9.49606 102.179 9.53658 102.41 9.5906C102.641 9.63112 102.837 9.68514 103 9.75266L102.491 12.2415V12.2434Z" fill="#363A59"/>
<path d="M84.4886 9.49992L83.6344 9.86456C82.9044 9.33593 82.0851 8.93849 81.1882 8.69926C80.4252 8.49475 79.6506 8.41758 78.8837 8.45617L78.5518 7.68637C79.5089 7.59183 80.4796 7.66322 81.4348 7.91982C82.5763 8.22465 83.6014 8.76871 84.4906 9.49992H84.4886Z" fill="#FF8367"/>
<path d="M86.1193 8.80344L85.3486 9.13142C84.3585 8.05294 83.1179 7.26385 81.6813 6.87799C80.5125 6.56544 79.3224 6.55 78.1634 6.78924L77.8508 6.06961C79.1865 5.74548 80.5688 5.73584 81.9239 6.09855C83.5916 6.54422 85.0147 7.49922 86.1174 8.80344H86.1193Z" fill="#FF8367"/>
</g>
<defs>
<clipPath id="clip0_321_11787">
<rect width="103" height="25" fill="white"/>
</clipPath>
</defs>
</svg>
