<svg width="274" height="54" viewBox="0 0 274 54" fill="none" xmlns="http://www.w3.org/2000/svg">
<path d="M13.8318 49.2952C17.4761 49.2952 20.3042 48.6483 22.3288 47.348C24.3535 46.0029 25.3626 43.8507 25.3626 40.8978C25.3626 39.194 25.0283 37.7848 24.3535 36.6639C23.7236 35.4981 22.8687 34.5373 21.7889 33.7751C20.7091 32.9681 19.4751 32.2955 18.0803 31.7575C16.6856 31.1746 15.2265 30.5725 13.6968 29.9447C11.7622 29.1825 10.0332 28.4011 8.50347 27.594C6.97374 26.7869 5.66898 25.8902 4.58917 24.9038C3.50937 23.8725 2.68023 22.7067 2.09533 21.4065C1.55543 20.1062 1.28548 18.5817 1.28548 16.8395C1.28548 12.849 2.60953 9.82567 5.26405 7.76956C7.91857 5.70705 11.6015 4.6758 16.3256 4.6758C17.5854 4.6758 18.8195 4.76548 20.0342 4.94482C21.249 5.12417 22.3738 5.36757 23.4086 5.68143C24.4884 5.95046 25.4526 6.26432 26.3074 6.62302C27.2072 6.98171 27.9464 7.35963 28.5313 7.76316L26.9116 11.5935C25.6068 10.6968 24.0128 9.9794 22.1232 9.44135C20.2785 8.9033 18.2796 8.63428 16.12 8.63428C14.6352 8.63428 13.2662 8.78801 12.0064 9.10187C10.7916 9.37089 9.73753 9.83848 8.83769 10.511C7.93786 11.1388 7.21799 11.9458 6.67808 12.9322C6.18317 13.9187 5.93893 15.1036 5.93893 16.4936C5.93893 17.8835 6.20888 19.139 6.74878 20.1254C7.28869 21.1118 8.02784 21.9637 8.97267 22.6811C9.96249 23.3985 11.1066 24.0455 12.4113 24.6283C13.7161 25.2112 15.1301 25.8133 16.6599 26.441C18.5045 27.2033 20.2335 27.9655 21.8532 28.7277C23.5179 29.49 24.9576 30.3867 26.166 31.418C27.3808 32.4492 28.3449 33.7047 29.0648 35.1843C29.7846 36.6639 30.1446 38.4766 30.1446 40.6288C30.1446 44.8371 28.6598 48.0013 25.6968 50.1023C22.7723 52.2096 18.7938 53.2601 13.7611 53.2601C11.9614 53.2601 10.3224 53.1512 8.83769 52.927C7.35296 52.7028 6.02891 52.4338 4.85912 52.1199C3.68933 51.7612 2.69951 51.4025 1.88966 51.0438C1.0798 50.6851 0.449919 50.3713 0 50.1023L1.48473 46.1374C1.93465 46.4064 2.53883 46.7203 3.30369 47.0789C4.06855 47.4376 4.96839 47.7963 6.0032 48.155C7.03802 48.4689 8.2078 48.7379 9.51257 48.9621C10.8173 49.1863 12.2571 49.2952 13.8254 49.2952H13.8318ZM34.4959 18.7162C35.8007 18.3575 37.5554 17.954 39.7535 17.5056C41.9582 17.0573 44.6512 16.8331 47.8457 16.8331C50.5002 16.8331 52.6984 17.211 54.4531 17.9732C56.2527 18.7355 57.6668 19.8308 58.7016 21.2656C59.7814 22.6555 60.5462 24.3337 60.9962 26.3065C61.4461 28.2794 61.671 30.4508 61.671 32.8271V52.248H57.2875V34.2363C57.2875 31.7703 57.1076 29.6885 56.7476 27.9847C56.4327 26.2809 55.8735 24.891 55.0637 23.8213C54.2988 22.7452 53.264 21.9829 51.9592 21.5346C50.6994 21.0414 49.1054 20.798 47.1708 20.798C45.1012 20.798 43.3015 20.9069 41.7782 21.131C40.2935 21.3552 39.3293 21.5538 38.8794 21.7331V52.2416H34.4959V18.7098V18.7162ZM73.4203 52.248H69.0369V17.5056H73.4203V52.248ZM74.4295 7.02014C74.4295 8.0514 74.1145 8.87768 73.4846 9.50541C72.8547 10.0883 72.0899 10.3765 71.19 10.3765C70.2902 10.3765 69.5253 10.0883 68.8954 9.50541C68.2656 8.87768 67.9506 8.0514 67.9506 7.02014C67.9506 5.98889 68.2656 5.18182 68.8954 4.59894C69.5253 3.97122 70.2902 3.65736 71.19 3.65736C72.0899 3.65736 72.8547 3.97122 73.4846 4.59894C74.1145 5.18182 74.4295 5.98889 74.4295 7.02014ZM93.9945 0.0960051C95.8842 0.0960051 97.4139 0.249732 98.5773 0.563592C99.792 0.832615 100.576 1.07602 100.936 1.3002L100.062 5.06652C99.5671 4.84234 98.8279 4.61815 97.8381 4.39397C96.8933 4.12494 95.6785 3.99043 94.1937 3.99043C91.0893 3.99043 88.8654 4.77188 87.5157 6.34118C86.2109 7.91048 85.5617 10.415 85.5617 13.8674V17.4992H99.5863V21.1951H85.5617V52.2416H81.1782V13.7329C81.1782 9.21076 82.2131 5.80313 84.2827 3.51644C86.3973 1.22974 89.6303 0.0895996 93.9945 0.0895996V0.0960051ZM118.194 0.0960051C120.083 0.0960051 121.613 0.249732 122.776 0.563592C123.991 0.832615 124.775 1.07602 125.135 1.3002L124.261 5.06652C123.766 4.84234 123.027 4.61815 122.037 4.39397C121.092 4.12494 119.878 3.99043 118.393 3.99043C115.289 3.99043 113.065 4.77188 111.715 6.34118C110.41 7.91048 109.761 10.415 109.761 13.8674V17.4992H123.786V21.1951H109.761V52.2416H105.377V13.7329C105.377 9.21076 106.412 5.80313 108.482 3.51644C110.596 1.22974 113.829 0.0895996 118.194 0.0895996V0.0960051Z" fill="#006667"/>
<path d="M163.475 52.2481C160.094 46.2655 156.437 40.3599 152.503 34.531C148.57 28.7022 144.379 23.1936 139.944 18.0181V52.2481H128.291V0H137.9C139.565 1.65898 141.409 3.69586 143.421 6.11066C145.439 8.52547 147.483 11.1132 149.547 13.8739C151.668 16.5898 153.757 19.4273 155.826 22.393C157.896 25.3074 159.837 28.1257 161.649 30.8352V0H173.379V52.2545H163.468L163.475 52.2481ZM178.997 34.8449C178.997 31.7063 179.466 28.9776 180.411 26.6461C181.401 24.2697 182.68 22.3033 184.255 20.734C185.829 19.1647 187.629 17.9797 189.647 17.1726C191.717 16.3656 193.825 15.962 195.985 15.962C201.024 15.962 205.002 17.5057 207.92 20.5995C210.845 23.6484 212.304 28.1513 212.304 34.1083C212.304 34.6912 212.285 35.3381 212.24 36.0555C212.195 36.728 212.15 37.3301 212.105 37.8682H189.313C189.538 39.9307 190.502 41.5641 192.212 42.7747C193.921 43.9853 196.216 44.5874 199.089 44.5874C200.934 44.5874 202.733 44.4336 204.482 44.1198C206.281 43.7611 207.74 43.3383 208.865 42.8451L210.215 50.9735C209.675 51.2425 208.955 51.5115 208.055 51.7805C207.156 52.0495 206.146 52.2737 205.022 52.4531C203.942 52.6773 202.772 52.8566 201.512 52.9911C200.252 53.1256 198.993 53.1897 197.733 53.1897C194.545 53.1897 191.755 52.7221 189.371 51.7805C187.031 50.8389 185.077 49.5643 183.503 47.9501C181.973 46.2912 180.829 44.344 180.064 42.1021C179.344 39.8602 178.984 37.4454 178.984 34.8449H178.997ZM202.598 31.0145C202.553 30.1626 202.399 29.3363 202.129 28.5292C201.904 27.7222 201.525 27.0048 200.985 26.3771C200.49 25.7493 199.841 25.2369 199.031 24.8334C198.266 24.4299 197.302 24.2313 196.132 24.2313C194.963 24.2313 194.044 24.4299 193.234 24.8334C192.424 25.1921 191.749 25.6853 191.209 26.313C190.669 26.9407 190.245 27.6773 189.93 28.5292C189.66 29.3363 189.461 30.1626 189.326 31.0145H202.611H202.598ZM230.153 45.2599C231.143 45.2599 232.087 45.2343 232.987 45.1959C233.887 45.151 234.607 45.087 235.147 44.9973V37.4006C234.742 37.3109 234.138 37.2213 233.328 37.1316C232.518 37.0419 231.779 36.9971 231.104 36.9971C230.159 36.9971 229.259 37.0611 228.405 37.1956C227.595 37.2853 226.875 37.4839 226.245 37.7977C225.615 38.1116 225.12 38.5343 224.76 39.0724C224.4 39.6104 224.22 40.283 224.22 41.0901C224.22 42.6594 224.734 43.7547 225.769 44.3824C226.849 44.9653 228.308 45.2535 230.153 45.2535V45.2599ZM229.343 15.962C232.312 15.962 234.781 16.2951 236.76 16.9677C238.74 17.6402 240.308 18.601 241.478 19.8565C242.693 21.1119 243.548 22.6364 244.042 24.4234C244.537 26.2169 244.782 28.209 244.782 30.406V51.2361C243.342 51.5499 241.343 51.9086 238.778 52.3122C236.214 52.7605 233.116 52.9847 229.471 52.9847C227.177 52.9847 225.088 52.7862 223.198 52.3826C221.354 51.9791 219.76 51.3321 218.41 50.4354C217.06 49.4938 216.025 48.2832 215.305 46.8036C214.586 45.324 214.226 43.5113 214.226 41.3591C214.226 39.2069 214.631 37.5479 215.44 36.1195C216.295 34.6847 217.42 33.5446 218.815 32.6927C220.21 31.8408 221.804 31.2387 223.603 30.88C225.403 30.4765 227.267 30.2779 229.202 30.2779C230.506 30.2779 231.65 30.342 232.64 30.4765C233.675 30.5661 234.504 30.7006 235.134 30.88V29.9384C235.134 28.2346 234.613 26.8703 233.585 25.839C232.55 24.8078 230.751 24.2953 228.192 24.2953C226.483 24.2953 224.799 24.4298 223.134 24.6989C221.469 24.9231 220.03 25.2561 218.821 25.7045L217.542 17.6402C218.127 17.4609 218.847 17.2815 219.702 17.1022C220.602 16.878 221.566 16.6986 222.601 16.5641C223.635 16.3848 224.715 16.2503 225.84 16.1606C227.01 16.0261 228.18 15.962 229.349 15.962H229.343ZM271.777 25.775C270.877 25.5508 269.823 25.3266 268.608 25.1024C267.393 24.8334 266.088 24.6989 264.694 24.6989C264.064 24.6989 263.299 24.7629 262.399 24.8974C261.544 24.9871 260.895 25.096 260.445 25.2305V52.2481H250.399V18.7804C252.199 18.1526 254.313 17.5698 256.737 17.0317C259.211 16.4488 261.949 16.1606 264.964 16.1606C265.504 16.1606 266.153 16.2054 266.918 16.2951C267.682 16.3399 268.447 16.4296 269.212 16.5641C269.977 16.6538 270.742 16.7883 271.507 16.9677C272.272 17.1022 272.921 17.2815 273.461 17.5057L271.777 25.7686V25.775Z" fill="#363A59"/>
<path d="M212.175 16.6666L209.347 17.8772C206.931 16.1222 204.218 14.8027 201.249 14.0084C198.723 13.3294 196.158 13.0732 193.619 13.2013L192.52 10.6456C195.689 10.3318 198.903 10.5688 202.065 11.4207C205.844 12.4327 209.238 14.239 212.182 16.6666H212.175Z" fill="#FF8367"/>
<path d="M217.574 14.3543L215.023 15.4432C211.745 11.8626 207.638 9.24283 202.881 7.96177C199.012 6.92411 195.072 6.87286 191.235 7.66712L190.2 5.27794C194.622 4.20185 199.198 4.16982 203.685 5.37402C209.206 6.85365 213.917 10.0243 217.568 14.3543H217.574Z" fill="#FF8367"/>
</svg>
