<svg width="134" height="134" viewBox="0 0 134 134" fill="none" xmlns="http://www.w3.org/2000/svg">
<path fill-rule="evenodd" clip-rule="evenodd" d="M55.1098 93.3333H78.2208C87.2616 93.3333 93.3333 86.9917 93.3333 77.5554V55.7779C93.3333 46.3416 87.2616 40 78.2235 40H55.1098C46.0717 40 40 46.3416 40 55.7779V77.5554C40 86.9917 46.0717 93.3333 55.1098 93.3333ZM57.3303 64C53.6539 64 50.6667 61.0087 50.6667 57.3333C50.6667 53.6579 53.6539 50.6667 57.3303 50.6667C61.004 50.6667 63.9939 53.6579 63.9939 57.3333C63.9939 61.0087 61.004 64 57.3303 64ZM87.5222 74.4905C88.4151 76.7802 87.9512 79.5322 86.9966 81.7998C85.865 84.4967 83.6983 86.5387 80.9685 87.4303C79.7564 87.8266 78.4854 88 77.217 88H54.7431C52.5066 88 50.5277 87.4634 48.9053 86.4644C47.889 85.8369 47.7094 84.3894 48.4629 83.451C49.7232 81.8824 50.9674 80.3082 52.2224 78.7203C54.6143 75.6821 56.2259 74.8015 58.0172 75.5748C58.7439 75.8941 59.4733 76.3729 60.2241 76.8793C62.2245 78.2387 65.0053 80.1073 68.6683 78.0791C71.1749 76.6752 72.6288 74.267 73.8949 72.1699L73.916 72.1348C74.0058 71.9877 74.0947 71.8406 74.1833 71.6939L74.1834 71.6938C74.6089 70.9898 75.0286 70.2952 75.5035 69.6553C76.0988 68.8545 78.3057 66.3502 81.1642 68.1335C82.985 69.2563 84.5162 70.7754 86.1546 72.4018C86.7794 73.0237 87.2245 73.731 87.5222 74.4905Z" fill="#DEDEDE"/>
</svg>
