<svg width="102" height="116" viewBox="0 0 102 116" fill="none" xmlns="http://www.w3.org/2000/svg">
<mask id="mask0_695_75" style="mask-type:luminance" maskUnits="userSpaceOnUse" x="0" y="0" width="102" height="116">
<path d="M0.5 0.5H101.5V114.941H0.5V0.5Z" fill="white" stroke="white"/>
</mask>
<g mask="url(#mask0_695_75)">
<mask id="mask1_695_75" style="mask-type:luminance" maskUnits="userSpaceOnUse" x="80" y="93" width="19" height="19">
<path d="M97.8603 102.704C97.8603 107.394 94.1484 111.176 89.5939 111.176C85.0393 111.176 81.3274 107.394 81.3274 102.704C81.3274 98.0145 85.0393 94.2324 89.5939 94.2324C94.1484 94.2324 97.8603 98.0145 97.8603 102.704Z" fill="white" stroke="white"/>
</mask>
<g mask="url(#mask1_695_75)">
<path d="M83.696 95.1063C83.696 95.1063 85.2419 99.0635 89.4216 101.567C93.6014 104.07 100.806 102.961 100.806 102.961" stroke="#197576" stroke-linecap="round" stroke-linejoin="round"/>
<path d="M81.9194 97.3132C81.9194 97.3132 83.4653 101.27 87.645 103.774C91.8247 106.277 99.0297 105.168 99.0297 105.168" stroke="#197576" stroke-linecap="round" stroke-linejoin="round"/>
<path d="M80.804 99.1556C80.804 99.1556 82.3498 103.113 86.5295 105.616C90.7093 108.12 97.9142 107.01 97.9142 107.01" stroke="#197576" stroke-linecap="round" stroke-linejoin="round"/>
<path d="M90.9597 107.058C92.3216 110.258 94.3763 112.854 94.3763 112.854" stroke="#197576" stroke-linecap="round" stroke-linejoin="round"/>
<path d="M93.9185 107.663C95.2804 110.863 97.335 113.459 97.335 113.459" stroke="#197576" stroke-linecap="round" stroke-linejoin="round"/>
<path d="M92.3177 93.7805C92.3177 93.7805 91.3471 95.0662 90.6035 97.2131" stroke="#197576" stroke-linecap="round" stroke-linejoin="round"/>
<path d="M88.1028 106.381C89.4608 109.686 91.6133 112.405 91.6133 112.405" stroke="#197576" stroke-linecap="round" stroke-linejoin="round"/>
<path d="M89.5588 93.3278C89.5588 93.3278 87.8838 95.5427 87.2537 99.0194" stroke="#197576" stroke-linecap="round" stroke-linejoin="round"/>
<path d="M86.0796 106.549C87.4415 109.754 89.5001 112.357 89.5001 112.357" stroke="#197576" stroke-linecap="round" stroke-linejoin="round"/>
<path d="M87.4414 93.2798C87.4414 93.2798 86.1147 95.0382 85.3789 97.8779" stroke="#197576" stroke-linecap="round" stroke-linejoin="round"/>
<path d="M86.7017 105.768C84.4671 108.248 83.0229 111.027 83.0229 111.027" stroke="#197576" stroke-linecap="round" stroke-linejoin="round"/>
<path d="M99.3778 101.639C99.3778 101.639 95.5464 100.606 91.2297 102.356" stroke="#197576" stroke-linecap="round" stroke-linejoin="round"/>
<path d="M84.7998 104.479C83.2813 106.465 82.3499 108.256 82.3499 108.256" stroke="#197576" stroke-linecap="round" stroke-linejoin="round"/>
<path d="M98.7047 98.8633C98.7047 98.8633 94.6776 97.7778 90.224 99.7204C89.5782 100.001 88.952 100.381 88.3572 100.826" stroke="#197576" stroke-linecap="round" stroke-linejoin="round"/>
<path d="M83.4535 103.233C82.2716 104.891 81.571 106.241 81.571 106.241" stroke="#197576" stroke-linecap="round" stroke-linejoin="round"/>
<path d="M97.9221 96.8526C97.9221 96.8526 93.895 95.7672 89.4413 97.7098C88.4942 98.1223 87.5941 98.7471 86.7644 99.4721" stroke="#197576" stroke-linecap="round" stroke-linejoin="round"/>
</g>
<path d="M89.5939 111.676C94.4354 111.676 98.3603 107.659 98.3603 102.704C98.3603 97.7493 94.4354 93.7324 89.5939 93.7324C84.7523 93.7324 80.8274 97.7493 80.8274 102.704C80.8274 107.659 84.7523 111.676 89.5939 111.676Z" stroke="#197576" stroke-linecap="round" stroke-linejoin="round"/>
<path d="M94.979 111.68C96.5444 111.68 96.5444 109.95 98.106 109.95C99.6675 109.95 99.6675 111.68 101.233 111.68C102.798 111.68 102.798 109.95 104.36 109.95C105.921 109.95 105.925 111.68 107.487 111.68" stroke="#197576" stroke-linecap="round" stroke-linejoin="round"/>
<path d="M89.7581 111.68H94.9788" stroke="#197576" stroke-linecap="round" stroke-linejoin="round"/>
<path d="M62.3884 101.284L62.3914 101.307V101.315L62.3957 101.347C62.4002 101.382 62.4008 101.412 62.3991 101.438C62.3577 101.483 62.3213 101.503 62.3027 101.509C62.2933 101.512 62.2888 101.511 62.2868 101.511C62.2852 101.511 62.2766 101.51 62.2601 101.501C62.2573 101.498 62.2483 101.491 62.2366 101.475C62.2259 101.46 62.2164 101.442 62.2092 101.424C62.2064 101.403 62.2035 101.381 62.2007 101.36C62.2568 101.284 62.3127 101.208 62.3683 101.132C62.375 101.183 62.3817 101.234 62.3884 101.284ZM63.26 100.245C63.2463 100.142 63.2327 100.039 63.219 99.9355C63.6822 99.2656 64.1315 98.5873 64.5728 97.9058C64.6413 97.9295 64.7097 97.9535 64.778 97.9777C64.2825 98.7435 63.7797 99.5012 63.26 100.245ZM62.1769 99.6823C62.1214 99.7615 62.0656 99.8405 62.0097 99.9194C61.8826 98.9606 61.7556 98.002 61.6288 97.0434C61.6976 97.06 61.7664 97.0768 61.8352 97.0938C61.9491 97.9566 62.063 98.8195 62.1769 99.6823ZM65.3323 97.1141C65.2644 97.0895 65.1964 97.0651 65.1283 97.0409C65.1701 96.9753 65.2119 96.9098 65.2536 96.8442C65.3216 96.8684 65.3895 96.8929 65.4574 96.9176C65.4157 96.9831 65.374 97.0486 65.3323 97.1141ZM64.2785 96.5136C64.2364 96.5797 64.1942 96.6457 64.152 96.7117C63.6839 96.562 63.2125 96.423 62.7384 96.2948C62.7276 96.2135 62.7169 96.1321 62.7061 96.0508C63.2338 96.1919 63.7581 96.3462 64.2785 96.5136ZM65.8064 95.9805C65.8049 95.9799 65.8035 95.9794 65.802 95.9789C65.8025 95.9781 65.803 95.9774 65.8034 95.9767L65.8064 95.9805ZM66.2867 97.4771C66.3281 97.4119 66.3696 97.3467 66.4109 97.2815C66.6118 97.3617 66.812 97.444 67.0115 97.5282L67.3023 97.9017C66.966 97.7544 66.6274 97.6128 66.2867 97.4771ZM67.2799 95.9081L68.0407 96.8852C67.9081 96.8259 67.7751 96.7675 67.6418 96.71L67.1622 96.0941C67.2015 96.0321 67.2407 95.97 67.2799 95.9081ZM68.7592 91.8066C68.2238 92.5879 67.7063 93.3799 67.1973 94.1743L67.0597 93.9975C67.4996 93.3115 67.9438 92.6312 68.3992 91.9603C68.5193 91.9092 68.6393 91.858 68.7592 91.8066ZM65.407 91.8749C66.2657 91.5311 67.1209 91.1779 67.9723 90.8154C67.894 90.9281 67.8161 91.041 67.7386 91.1542C67.0111 91.4616 66.2811 91.7625 65.5486 92.0568L65.407 91.8749ZM61.7472 88.8022L63.7971 91.4349C63.7299 91.461 63.6626 91.4871 63.5954 91.5131L61.8011 89.2085C61.7831 89.0731 61.7652 88.9377 61.7472 88.8022ZM61.0249 92.4751C60.8851 91.417 60.7454 90.359 60.6058 89.3011L60.8454 89.6088C60.9689 90.5413 61.0923 91.4736 61.2156 92.4058C61.1521 92.4289 61.0885 92.452 61.0249 92.4751ZM58.9395 94.2668C59.3589 94.1242 59.7776 93.9795 60.1955 93.8326C60.2057 93.9094 60.2158 93.9862 60.226 94.0629C59.9616 94.156 59.697 94.2483 59.432 94.3397C59.2681 94.3142 59.1039 94.2899 58.9395 94.2668ZM60.4509 95.7647C59.9869 95.6748 59.521 95.5951 59.0535 95.5258C59.2095 95.473 59.3653 95.4199 59.5211 95.3665C59.8213 95.4155 60.1208 95.4687 60.4194 95.5261C60.4299 95.6056 60.4404 95.6851 60.4509 95.7647ZM57.2223 95.0743C57.2265 95.0747 57.2308 95.0751 57.235 95.0754C57.231 95.0768 57.227 95.0781 57.2229 95.0794L57.2223 95.0743ZM61.6948 96.0312C61.6261 96.0151 61.5574 95.9992 61.4886 95.9835C61.4779 95.9032 61.4673 95.823 61.4567 95.7428C61.5255 95.7583 61.5943 95.7741 61.663 95.7901C61.6736 95.8704 61.6842 95.9508 61.6948 96.0312ZM66.5094 95.2556L66.3714 95.0784C66.4107 95.0164 66.4499 94.9545 66.4892 94.8925L66.6271 95.0697C66.5878 95.1317 66.5486 95.1936 66.5094 95.2556ZM64.4382 92.2583L64.5807 92.4413C64.5136 92.4676 64.4466 92.4939 64.3795 92.5201L64.2368 92.3369C64.304 92.3107 64.3711 92.2846 64.4382 92.2583ZM61.1589 93.4899C61.2226 93.4669 61.2862 93.4439 61.3499 93.4209C61.36 93.4974 61.3701 93.5738 61.3802 93.6502C61.3166 93.6733 61.2529 93.6964 61.1892 93.7194C61.1791 93.6429 61.169 93.5664 61.1589 93.4899ZM61.5233 94.733C61.4825 94.724 61.4416 94.715 61.4007 94.7061C61.4386 94.6925 61.4765 94.6788 61.5144 94.6652C61.5173 94.6878 61.5203 94.7104 61.5233 94.733ZM63.2615 92.7119L63.4051 92.8964C63.0514 93.0315 62.697 93.1649 62.3422 93.2969C62.3321 93.2207 62.322 93.1445 62.312 93.0683C62.6289 92.9508 62.9454 92.832 63.2615 92.7119ZM65.8367 94.0545C65.7974 94.1164 65.7581 94.1783 65.7188 94.2402L65.0202 93.343C65.0872 93.3167 65.1541 93.2903 65.2211 93.2638L65.8367 94.0545Z" fill="#197576" stroke="#197576"/>
<path d="M85.0735 88.4728C85.1546 88.4728 85.184 88.4989 85.2013 88.5196C85.2281 88.5515 85.2545 88.6126 85.2545 88.6937C85.2545 88.7749 85.2281 88.836 85.2013 88.8679C85.184 88.8885 85.1546 88.9147 85.0735 88.9147C84.9925 88.9147 84.9631 88.8885 84.9457 88.8679C84.919 88.836 84.8926 88.7749 84.8926 88.6937C84.8926 88.6126 84.919 88.5515 84.9457 88.5196C84.9631 88.4989 84.9925 88.4728 85.0735 88.4728Z" fill="#197576" stroke="#197576"/>
<path d="M82.8467 83.3219C82.9278 83.3219 82.9572 83.348 82.9745 83.3687C83.0013 83.4006 83.0277 83.4617 83.0277 83.5429C83.0277 83.624 83.0013 83.6851 82.9745 83.717C82.9572 83.7377 82.9278 83.7638 82.8467 83.7638C82.7657 83.7638 82.7363 83.7377 82.7189 83.717C82.6922 83.6851 82.6658 83.624 82.6658 83.5429C82.6658 83.4617 82.6922 83.4006 82.7189 83.3687C82.7363 83.348 82.7657 83.3219 82.8467 83.3219Z" fill="#197576" stroke="#197576"/>
<path d="M79.9586 87.884C80.0396 87.884 80.069 87.9101 80.0863 87.9308C80.1131 87.9627 80.1395 88.0238 80.1395 88.1049C80.1395 88.1861 80.1131 88.2472 80.0863 88.2791C80.069 88.2997 80.0396 88.3259 79.9586 88.3259C79.8775 88.3259 79.8481 88.2997 79.8308 88.2791C79.804 88.2472 79.7776 88.1861 79.7776 88.1049C79.7776 88.0238 79.804 87.9627 79.8308 87.9308C79.8481 87.9101 79.8775 87.884 79.9586 87.884Z" fill="#197576" stroke="#197576"/>
<mask id="mask2_695_75" style="mask-type:luminance" maskUnits="userSpaceOnUse" x="29" y="93" width="19" height="19">
<path d="M46.8583 102.704C46.8583 107.394 43.1465 111.176 38.5919 111.176C34.0373 111.176 30.3254 107.394 30.3254 102.704C30.3254 98.0145 34.0373 94.2324 38.5919 94.2324C43.1465 94.2324 46.8583 98.0145 46.8583 102.704Z" fill="white" stroke="white"/>
</mask>
<g mask="url(#mask2_695_75)">
<path d="M32.6938 95.1063C32.6938 95.1063 34.2397 99.0635 38.4194 101.567C42.5992 104.07 49.8041 102.961 49.8041 102.961" stroke="#197576" stroke-linecap="round" stroke-linejoin="round"/>
<path d="M30.917 97.3132C30.917 97.3132 32.4628 101.27 36.6426 103.774C40.8184 106.277 48.0272 105.168 48.0272 105.168" stroke="#197576" stroke-linecap="round" stroke-linejoin="round"/>
<path d="M29.8018 99.1556C29.8018 99.1556 31.3476 103.113 35.5273 105.616C39.7071 108.12 46.912 107.01 46.912 107.01" stroke="#197576" stroke-linecap="round" stroke-linejoin="round"/>
<path d="M39.9575 107.058C41.3195 110.258 43.3741 112.854 43.3741 112.854" stroke="#197576" stroke-linecap="round" stroke-linejoin="round"/>
<path d="M42.9202 107.663C44.2821 110.863 46.3367 113.459 46.3367 113.459" stroke="#197576" stroke-linecap="round" stroke-linejoin="round"/>
<path d="M41.3155 93.7805C41.3155 93.7805 40.3449 95.0662 39.6013 97.2131" stroke="#197576" stroke-linecap="round" stroke-linejoin="round"/>
<path d="M37.1006 106.381C38.4586 109.686 40.6111 112.405 40.6111 112.405" stroke="#197576" stroke-linecap="round" stroke-linejoin="round"/>
<path d="M38.5563 93.3278C38.5563 93.3278 36.8813 95.5427 36.2512 99.0194" stroke="#197576" stroke-linecap="round" stroke-linejoin="round"/>
<path d="M35.0771 106.549C36.4391 109.754 38.4977 112.357 38.4977 112.357" stroke="#197576" stroke-linecap="round" stroke-linejoin="round"/>
<path d="M36.4392 93.2798C36.4392 93.2798 35.1125 95.0382 34.3767 97.8779" stroke="#197576" stroke-linecap="round" stroke-linejoin="round"/>
<path d="M35.6995 105.768C33.4649 108.248 32.0208 111.027 32.0208 111.027" stroke="#197576" stroke-linecap="round" stroke-linejoin="round"/>
<path d="M48.3796 101.639C48.3796 101.639 44.5481 100.606 40.2314 102.356" stroke="#197576" stroke-linecap="round" stroke-linejoin="round"/>
<path d="M33.7976 104.479C32.2791 106.465 31.3477 108.256 31.3477 108.256" stroke="#197576" stroke-linecap="round" stroke-linejoin="round"/>
<path d="M47.7025 98.8633C47.7025 98.8633 43.6754 97.7778 39.2218 99.7204C38.576 100.001 37.9498 100.381 37.355 100.826" stroke="#197576" stroke-linecap="round" stroke-linejoin="round"/>
<path d="M32.4513 103.233C31.2694 104.891 30.5688 106.241 30.5688 106.241" stroke="#197576" stroke-linecap="round" stroke-linejoin="round"/>
<path d="M46.9238 96.8526C46.9238 96.8526 42.8967 95.7672 38.443 97.7098C37.4959 98.1223 36.5958 98.7471 35.7661 99.4721" stroke="#197576" stroke-linecap="round" stroke-linejoin="round"/>
</g>
<path d="M38.5919 111.676C43.4335 111.676 47.3583 107.659 47.3583 102.704C47.3583 97.7493 43.4335 93.7324 38.5919 93.7324C33.7503 93.7324 29.8254 97.7493 29.8254 102.704C29.8254 107.659 33.7503 111.676 38.5919 111.676Z" stroke="#197576" stroke-linecap="round" stroke-linejoin="round"/>
<path d="M43.9771 111.68C45.5425 111.68 45.5425 109.95 47.104 109.95C48.6655 109.95 48.6655 111.68 50.231 111.68C51.7964 111.68 51.7964 109.95 53.3579 109.95C54.9194 109.95 54.9234 111.68 56.4849 111.68" stroke="#197576" stroke-linecap="round" stroke-linejoin="round"/>
<path d="M38.7603 111.68H43.9771" stroke="#197576" stroke-linecap="round" stroke-linejoin="round"/>
<path d="M11.3862 101.284L11.3892 101.307V101.315L11.3935 101.347C11.398 101.382 11.3986 101.412 11.3969 101.438C11.3555 101.483 11.3191 101.503 11.3005 101.509C11.2911 101.512 11.2866 101.511 11.2846 101.511C11.283 101.511 11.2744 101.51 11.2579 101.501C11.2551 101.498 11.2461 101.491 11.2344 101.475C11.2237 101.46 11.2142 101.442 11.207 101.424C11.2042 101.403 11.2013 101.381 11.1985 101.36C11.2546 101.284 11.3105 101.208 11.3661 101.132C11.3728 101.183 11.3795 101.234 11.3862 101.284ZM12.2578 100.245C12.2441 100.142 12.2305 100.039 12.2169 99.9355C12.68 99.2656 13.1293 98.5873 13.5706 97.9058C13.6391 97.9295 13.7075 97.9535 13.7758 97.9777C13.2803 98.7435 12.7775 99.5012 12.2578 100.245ZM11.1747 99.6823C11.1192 99.7615 11.0634 99.8405 11.0075 99.9194C10.8804 98.9606 10.7534 98.002 10.6266 97.0434C10.6954 97.06 10.7642 97.0768 10.833 97.0938C10.9469 97.9566 11.0608 98.8195 11.1747 99.6823ZM14.3301 97.1141C14.2622 97.0895 14.1942 97.0651 14.1261 97.0409C14.1679 96.9753 14.2097 96.9098 14.2514 96.8442C14.3194 96.8684 14.3873 96.8929 14.4552 96.9176C14.4135 96.9831 14.3718 97.0486 14.3301 97.1141ZM13.2763 96.5136C13.2342 96.5797 13.192 96.6457 13.1498 96.7117C12.6817 96.562 12.2103 96.423 11.7362 96.2948C11.7254 96.2135 11.7147 96.1321 11.7039 96.0508C12.2316 96.1919 12.7559 96.3462 13.2763 96.5136ZM14.8042 95.9805C14.8027 95.9799 14.8013 95.9794 14.7998 95.9789C14.8003 95.9781 14.8008 95.9774 14.8012 95.9767L14.8042 95.9805ZM15.2845 97.4771C15.3259 97.4119 15.3674 97.3467 15.4087 97.2815C15.6096 97.3617 15.8098 97.444 16.0093 97.5282L16.3001 97.9017C15.9639 97.7544 15.6252 97.6128 15.2845 97.4771ZM16.2777 95.9081L17.0385 96.8852C16.9059 96.8259 16.7729 96.7675 16.6396 96.71L16.16 96.0941C16.1993 96.0321 16.2385 95.97 16.2777 95.9081ZM17.757 91.8066C17.2216 92.5879 16.7041 93.3799 16.1951 94.1743L16.0575 93.9975C16.4974 93.3115 16.9416 92.6312 17.397 91.9603C17.5171 91.9092 17.6371 91.858 17.757 91.8066ZM14.4048 91.8749C15.2635 91.5311 16.1187 91.1779 16.9701 90.8154C16.8918 90.9281 16.8139 91.041 16.7364 91.1542C16.0089 91.4616 15.2789 91.7625 14.5464 92.0568L14.4048 91.8749ZM10.745 88.8022L12.7949 91.4349C12.7277 91.461 12.6605 91.4871 12.5932 91.5131L10.7989 89.2085C10.7809 89.0731 10.763 88.9377 10.745 88.8022ZM10.0227 92.4751C9.8829 91.417 9.74322 90.359 9.60356 89.3011L9.84318 89.6088C9.96672 90.5413 10.0901 91.4736 10.2134 92.4058C10.1499 92.4289 10.0863 92.452 10.0227 92.4751ZM7.93732 94.2668C8.3567 94.1242 8.77538 93.9795 9.19332 93.8326C9.20347 93.9094 9.21361 93.9862 9.22376 94.0629C8.9594 94.156 8.69475 94.2483 8.42983 94.3397C8.26587 94.3142 8.1017 94.2899 7.93732 94.2668ZM9.44872 95.7647C8.98472 95.6748 8.51877 95.5951 8.05129 95.5258C8.20726 95.473 8.36314 95.4199 8.51892 95.3665C8.81912 95.4155 9.11857 95.4687 9.41717 95.5261C9.42768 95.6056 9.4382 95.6851 9.44872 95.7647ZM6.22007 95.0743C6.22432 95.0747 6.22856 95.0751 6.23281 95.0754C6.22879 95.0768 6.22476 95.0781 6.22074 95.0794L6.22007 95.0743ZM10.6927 96.0312C10.6239 96.0151 10.5552 95.9992 10.4864 95.9835C10.4757 95.9032 10.4651 95.823 10.4545 95.7428C10.5233 95.7583 10.5921 95.7741 10.6608 95.7901C10.6714 95.8704 10.682 95.9508 10.6927 96.0312ZM15.5072 95.2556L15.3692 95.0784C15.4085 95.0164 15.4477 94.9545 15.487 94.8925L15.6249 95.0697C15.5856 95.1317 15.5464 95.1936 15.5072 95.2556ZM13.436 92.2583L13.5785 92.4413C13.5114 92.4676 13.4444 92.4939 13.3773 92.5201L13.2346 92.3369C13.3018 92.3108 13.3689 92.2846 13.436 92.2583ZM10.1567 93.4899C10.2204 93.4669 10.2841 93.4439 10.3477 93.4209C10.3578 93.4974 10.3679 93.5738 10.378 93.6502C10.3144 93.6733 10.2507 93.6964 10.187 93.7194C10.1769 93.6429 10.1668 93.5664 10.1567 93.4899ZM10.5211 94.733C10.4803 94.724 10.4394 94.715 10.3985 94.7061C10.4364 94.6925 10.4743 94.6788 10.5122 94.6652C10.5152 94.6878 10.5181 94.7104 10.5211 94.733ZM12.2593 92.7119L12.4029 92.8964C12.0492 93.0315 11.6948 93.1649 11.34 93.2969C11.3299 93.2207 11.3198 93.1445 11.3098 93.0683C11.6267 92.9508 11.9432 92.832 12.2593 92.7119ZM14.8345 94.0545C14.7952 94.1164 14.7559 94.1783 14.7166 94.2402L14.018 93.343C14.085 93.3167 14.1519 93.2903 14.2189 93.2638L14.8345 94.0545Z" fill="#197576" stroke="#197576"/>
<path d="M34.0716 88.4728C34.1526 88.4728 34.182 88.4989 34.1994 88.5196C34.2262 88.5515 34.2526 88.6126 34.2526 88.6937C34.2526 88.7749 34.2262 88.836 34.1994 88.8679C34.182 88.8885 34.1526 88.9147 34.0716 88.9147C33.9906 88.9147 33.9611 88.8885 33.9438 88.8679C33.917 88.836 33.8906 88.7749 33.8906 88.6937C33.8906 88.6126 33.917 88.5515 33.9438 88.5196C33.9611 88.4989 33.9906 88.4728 34.0716 88.4728Z" fill="#197576" stroke="#197576"/>
<path d="M31.8448 83.3219C31.9258 83.3219 31.9552 83.348 31.9726 83.3687C31.9994 83.4006 32.0257 83.4617 32.0257 83.5429C32.0257 83.624 31.9994 83.6851 31.9726 83.717C31.9552 83.7377 31.9258 83.7638 31.8448 83.7638C31.7638 83.7638 31.7343 83.7377 31.717 83.717C31.6902 83.6851 31.6638 83.624 31.6638 83.5429C31.6638 83.4617 31.6902 83.4006 31.717 83.3687C31.7343 83.348 31.7638 83.3219 31.8448 83.3219Z" fill="#197576" stroke="#197576"/>
<path d="M28.9566 87.884C29.0376 87.884 29.067 87.9101 29.0844 87.9308C29.1112 87.9627 29.1376 88.0238 29.1376 88.1049C29.1376 88.1861 29.1112 88.2472 29.0844 88.2791C29.067 88.2997 29.0376 88.3259 28.9566 88.3259C28.8756 88.3259 28.8462 88.2997 28.8288 88.2791C28.802 88.2472 28.7756 88.1861 28.7756 88.1049C28.7756 88.0238 28.802 87.9627 28.8288 87.9308C28.8462 87.9101 28.8756 87.884 28.9566 87.884Z" fill="#197576" stroke="#197576"/>
<path d="M-7.02515 111.68C-5.45971 111.68 -5.45971 109.95 -3.89819 109.95C-2.33666 109.95 -2.33667 111.68 -0.77123 111.68C0.794208 111.68 0.794204 109.95 2.35573 109.95C3.91725 109.95 3.92116 111.68 5.48269 111.68" stroke="#197576" stroke-linecap="round" stroke-linejoin="round"/>
<path d="M102.618 70.4575C102.908 69.1077 102.282 67.6899 101.108 67.013C99.7927 66.256 98.2429 66.5724 97.2997 67.5857C96.9201 67.9903 96.3448 68.1304 95.836 67.9262L88.091 64.794C87.5823 64.5857 87.2536 64.0811 87.2496 63.5203C87.2379 62.1185 86.3182 60.8047 84.8506 60.4362C83.5395 60.1078 82.1346 60.7086 81.4458 61.8942C80.8861 62.8554 80.8744 63.9489 81.2697 64.8541C80.3774 65.2386 79.6612 66.0437 79.4224 67.1331C79.1289 68.4949 79.7707 69.9288 80.9644 70.6017C82.3185 71.3587 83.9113 70.9942 84.8389 69.9008C85.1989 69.4762 85.7977 69.3521 86.3104 69.5603L93.9536 72.6485C94.4663 72.8567 94.8185 73.3614 94.799 73.9262C94.7481 75.3721 95.6638 76.7539 97.1588 77.1464C98.4777 77.4949 99.9062 76.8941 100.603 75.6965C101.159 74.7352 101.17 73.6458 100.779 72.7406C101.671 72.3561 102.391 71.551 102.626 70.4575H102.618Z" stroke="#197576" stroke-linecap="round" stroke-linejoin="round"/>
<path d="M100.771 72.7446L100.254 71.2466" stroke="#197576" stroke-linecap="round" stroke-linejoin="round"/>
<path d="M81.6335 65.9875L81.1169 64.4896" stroke="#197576" stroke-linecap="round" stroke-linejoin="round"/>
<path d="M87.8691 43.4076C87.8768 43.4659 87.8845 43.5243 87.8922 43.5827V43.5905L87.8964 43.6228C87.901 43.6575 87.9016 43.6878 87.8998 43.7135C87.8584 43.7588 87.8221 43.7781 87.8035 43.7839C87.794 43.7869 87.7895 43.7866 87.7875 43.7863C87.7859 43.7862 87.7774 43.7852 87.7608 43.776C87.758 43.7738 87.749 43.7662 87.7373 43.75C87.7266 43.7351 87.7171 43.7176 87.71 43.6995C87.7071 43.678 87.7043 43.6565 87.7014 43.635C87.7575 43.5593 87.8134 43.4835 87.8691 43.4076ZM88.7607 42.5209C88.7471 42.4175 88.7334 42.3142 88.7198 42.2109C89.1829 41.541 89.6322 40.8627 90.0736 40.1812C90.142 40.2049 90.2104 40.2289 90.2787 40.2531C89.7832 41.0189 89.2805 41.7766 88.7607 42.5209ZM87.6777 41.9576C87.6221 42.0368 87.5664 42.1159 87.5104 42.1948C87.3833 41.236 87.2563 40.2773 87.1295 39.3188C87.1984 39.3354 87.2672 39.3522 87.3359 39.3692C87.4499 40.232 87.5638 41.0948 87.6777 41.9576ZM90.833 39.3895C90.7651 39.3649 90.6971 39.3405 90.629 39.3163C90.6708 39.2507 90.7126 39.1852 90.7543 39.1196C90.8223 39.1438 90.8902 39.1683 90.9581 39.193C90.9164 39.2585 90.8747 39.324 90.833 39.3895ZM89.7792 38.789C89.7371 38.8551 89.6949 38.9211 89.6527 38.987C89.1846 38.8374 88.7133 38.6984 88.2391 38.5702C88.2283 38.4889 88.2176 38.4075 88.2069 38.3262C88.7345 38.4673 89.2588 38.6216 89.7792 38.789ZM91.3071 38.2558C91.3057 38.2553 91.3042 38.2548 91.3028 38.2543C91.3032 38.2535 91.3037 38.2528 91.3042 38.2521L91.3071 38.2558ZM91.7874 39.7525C91.8289 39.6873 91.8703 39.6221 91.9117 39.5569C92.1126 39.6371 92.3128 39.7194 92.5122 39.8036L92.803 40.1771C92.4668 40.0298 92.1282 39.8882 91.7874 39.7525ZM92.7806 38.1834L93.5414 39.1606C93.4088 39.1013 93.2758 39.0429 93.1425 38.9854L92.663 38.3695C92.7022 38.3075 92.7414 38.2454 92.7806 38.1834ZM94.2599 34.082C93.7245 34.8633 93.207 35.6553 92.6981 36.4497L92.5604 36.2729C93.0004 35.5869 93.4446 34.9066 93.9 34.2356C94.02 34.1846 94.14 34.1334 94.2599 34.082ZM90.9078 34.1503C91.7665 33.8065 92.6216 33.4533 93.4731 33.0908C93.3948 33.2035 93.3168 33.3164 93.2393 33.4295C92.5118 33.737 91.7818 34.0379 91.0494 34.3322L90.9078 34.1503ZM87.2479 31.0776L89.2978 33.7103C89.2306 33.7364 89.1634 33.7625 89.0961 33.7885L87.3018 31.4839C87.2839 31.3485 87.2659 31.213 87.2479 31.0776ZM85.7754 29.2663L85.6371 29.0387L85.7752 29.2664L85.7754 29.2663ZM86.5256 34.7505C86.3858 33.6924 86.2462 32.6345 86.1065 31.5765L86.3461 31.8842C86.4696 32.8167 86.5931 33.749 86.7164 34.6812C86.6528 34.7043 86.5892 34.7274 86.5256 34.7505ZM84.4403 36.5422C84.8596 36.3996 85.2783 36.2549 85.6963 36.108C85.7064 36.1848 85.7165 36.2616 85.7267 36.3383C85.4623 36.4314 85.1977 36.5237 84.9328 36.6151C84.7688 36.5896 84.6046 36.5653 84.4403 36.5422ZM85.9516 38.0401C85.4876 37.9502 85.0217 37.8705 84.5542 37.8012C84.7102 37.7484 84.8661 37.6953 85.0218 37.6419C85.3221 37.6909 85.6215 37.7441 85.9201 37.8015C85.9306 37.881 85.9411 37.9605 85.9516 38.0401ZM82.723 37.3497C82.7272 37.3501 82.7315 37.3504 82.7357 37.3508C82.7317 37.3521 82.7277 37.3535 82.7237 37.3548L82.723 37.3497ZM87.1956 38.3066C87.1269 38.2905 87.0581 38.2746 86.9893 38.2589C86.9787 38.1786 86.9681 38.0984 86.9575 38.0182C87.0263 38.0337 87.095 38.0495 87.1637 38.0655C87.1743 38.1458 87.185 38.2262 87.1956 38.3066ZM92.0101 37.531L91.8721 37.3538C91.9114 37.2918 91.9507 37.2299 91.9899 37.1679L92.1279 37.3451C92.0886 37.4071 92.0493 37.469 92.0101 37.531ZM89.9389 34.5337L90.0814 34.7167C90.0143 34.743 89.9473 34.7693 89.8802 34.7955L89.7376 34.6123C89.8047 34.5861 89.8718 34.56 89.9389 34.5337ZM86.6597 35.7653C86.7233 35.7423 86.787 35.7193 86.8506 35.6963C86.8607 35.7727 86.8708 35.8492 86.8809 35.9256C86.8173 35.9487 86.7536 35.9718 86.69 35.9948C86.6799 35.9183 86.6698 35.8418 86.6597 35.7653ZM87.0241 37.0084C86.9832 36.9994 86.9423 36.9904 86.9014 36.9815C86.9393 36.9679 86.9772 36.9542 87.0151 36.9406C87.0181 36.9632 87.0211 36.9858 87.0241 37.0084ZM88.7622 34.9873L88.9059 35.1718C88.5521 35.3069 88.1978 35.4403 87.8429 35.5723C87.8328 35.4961 87.8228 35.4199 87.8127 35.3437C88.1296 35.2262 88.4461 35.1074 88.7622 34.9873ZM91.3375 36.3299C91.2981 36.3918 91.2588 36.4537 91.2195 36.5156L90.5209 35.6184C90.5879 35.5921 90.6549 35.5657 90.7218 35.5392L91.3375 36.3299Z" fill="#197576" stroke="#197576"/>
<path d="M70.7509 80.6104L70.4122 80.5749L70.2552 80.8771C69.7667 81.8166 69.1473 82.2149 68.651 82.2711C68.1818 82.3243 67.6674 82.0886 67.3019 81.3952C67.1399 81.088 67.0717 80.6616 67.0984 80.1471C67.1247 79.6386 67.2416 79.0854 67.407 78.559C67.5721 78.0335 67.7804 77.5512 67.9789 77.187C68.0783 77.0045 68.1709 76.8596 68.2494 76.7566C68.3082 76.6793 68.3448 76.6448 68.3569 76.6334C68.3727 76.6294 68.42 76.6178 68.5131 76.6105C68.6391 76.6006 68.8071 76.6016 69.0098 76.6176C69.4143 76.6493 69.9204 76.7375 70.4381 76.8861C70.9566 77.0349 71.4695 77.2395 71.8962 77.4959C72.3273 77.755 72.6353 78.046 72.796 78.3521C73.1485 79.0237 73.0422 79.6025 72.7049 79.9985C72.3529 80.4118 71.6763 80.7074 70.7509 80.6104Z" fill="#197576" stroke="#197576"/>
<path d="M65.9792 74.2111C66.3239 74.5579 66.5215 74.9614 66.5798 75.3157C66.6383 75.6707 66.5551 75.935 66.4013 76.095C66.2476 76.2551 65.9907 76.3446 65.6429 76.2907C65.2959 76.2369 64.8983 76.0415 64.5537 75.6947C64.2091 75.3478 64.0115 74.9443 63.9531 74.59C63.8947 74.235 63.9778 73.9707 64.1316 73.8107C64.2853 73.6507 64.5422 73.5611 64.89 73.615C65.2371 73.6688 65.6346 73.8642 65.9792 74.2111Z" fill="#197576" stroke="#197576"/>
<path d="M64.687 77.8357C65.3557 78.106 65.5446 78.6625 65.4292 78.9616C65.3138 79.2607 64.8043 79.5349 64.1356 79.2646C63.4669 78.9944 63.278 78.4379 63.3934 78.1388C63.5088 77.8397 64.0183 77.5655 64.687 77.8357Z" fill="#197576" stroke="#197576"/>
<path d="M69.6495 72.8657C69.7427 73.3546 69.6823 73.8046 69.534 74.132C69.3852 74.4608 69.1715 74.6266 68.9632 74.6682C68.7549 74.7098 68.496 74.6385 68.2372 74.3912C67.9795 74.1449 67.758 73.7513 67.6648 73.2624C67.5715 72.7736 67.632 72.3235 67.7802 71.9961C67.9291 71.6673 68.1427 71.5016 68.351 71.4599C68.5593 71.4183 68.8182 71.4896 69.077 71.7369C69.3347 71.9832 69.5562 72.3769 69.6495 72.8657Z" fill="#197576" stroke="#197576"/>
<path d="M72.3036 73.2253C72.454 73.2577 72.6083 73.3734 72.7168 73.6011C72.8255 73.8292 72.8717 74.1443 72.801 74.4872C72.7303 74.83 72.5638 75.0992 72.3743 75.263C72.1852 75.4264 71.9984 75.4685 71.848 75.436C71.6977 75.4036 71.5434 75.2879 71.4349 75.0602C71.3261 74.8321 71.28 74.517 71.3507 74.1741C71.4213 73.8313 71.5879 73.5621 71.7774 73.3983C71.9665 73.2349 72.1533 73.1928 72.3036 73.2253Z" fill="#197576" stroke="#197576"/>
<path d="M51.6164 70.4575C51.906 69.1077 51.2798 67.6899 50.1057 67.013C48.7907 66.256 47.241 66.5724 46.2978 67.5857C45.9182 67.9903 45.3429 68.1304 44.8341 67.9262L37.0891 64.794C36.5803 64.5857 36.2516 64.0811 36.2477 63.5203C36.2359 62.1185 35.3162 60.8047 33.8486 60.4362C32.5376 60.1078 31.1326 60.7086 30.4438 61.8942C29.8842 62.8554 29.8724 63.9489 30.2677 64.8541C29.3754 65.2386 28.6592 66.0437 28.4205 67.1331C28.127 68.4949 28.7688 69.9288 29.9625 70.6017C31.3166 71.3587 32.9094 70.9942 33.8369 69.9008C34.1969 69.4762 34.7957 69.3521 35.3084 69.5603L42.9517 72.6485C43.4644 72.8567 43.8166 73.3614 43.797 73.9262C43.7461 75.3721 44.6619 76.7539 46.1569 77.1464C47.4758 77.4949 48.9042 76.8941 49.6009 75.6965C50.1566 74.7352 50.1683 73.6458 49.777 72.7406C50.6693 72.3561 51.3894 71.551 51.6242 70.4575H51.6164Z" stroke="#197576" stroke-linecap="round" stroke-linejoin="round"/>
<path d="M49.769 72.7446L49.2524 71.2466" stroke="#197576" stroke-linecap="round" stroke-linejoin="round"/>
<path d="M30.6355 65.9875L30.115 64.4896" stroke="#197576" stroke-linecap="round" stroke-linejoin="round"/>
<mask id="mask3_695_75" style="mask-type:luminance" maskUnits="userSpaceOnUse" x="55" y="36" width="18" height="18">
<path d="M72.3593 44.9836C72.3593 49.6735 68.6474 53.4556 64.0929 53.4556C59.5383 53.4556 55.8264 49.6735 55.8264 44.9836C55.8264 40.2938 59.5383 36.5117 64.0929 36.5117C68.6474 36.5117 72.3593 40.2938 72.3593 44.9836Z" fill="white" stroke="white"/>
</mask>
<g mask="url(#mask3_695_75)">
<path d="M58.1951 37.3856C58.1951 37.3856 59.7409 41.3428 63.9207 43.8461C68.1004 46.3495 75.3053 45.24 75.3053 45.24" stroke="#197576" stroke-linecap="round" stroke-linejoin="round"/>
<path d="M56.4185 39.5925C56.4185 39.5925 57.9643 43.5498 62.144 46.0531C66.3238 48.5564 73.5287 47.447 73.5287 47.447" stroke="#197576" stroke-linecap="round" stroke-linejoin="round"/>
<path d="M55.303 41.435C55.303 41.435 56.8489 45.3923 61.0286 47.8956C65.2083 50.3989 72.4132 49.2894 72.4132 49.2894" stroke="#197576" stroke-linecap="round" stroke-linejoin="round"/>
<path d="M65.4587 49.3375C66.8207 52.5377 68.8753 55.1332 68.8753 55.1332" stroke="#197576" stroke-linecap="round" stroke-linejoin="round"/>
<path d="M68.4214 49.9423C69.7833 53.1425 71.838 55.7379 71.838 55.7379" stroke="#197576" stroke-linecap="round" stroke-linejoin="round"/>
<path d="M66.8169 36.0558C66.8169 36.0558 65.8464 37.3415 65.1028 39.4883" stroke="#197576" stroke-linecap="round" stroke-linejoin="round"/>
<path d="M62.6018 48.6605C63.9598 51.9649 66.1123 54.6845 66.1123 54.6845" stroke="#197576" stroke-linecap="round" stroke-linejoin="round"/>
<path d="M64.0578 35.6071C64.0578 35.6071 62.3828 37.8221 61.7527 41.2987" stroke="#197576" stroke-linecap="round" stroke-linejoin="round"/>
<path d="M60.5786 48.8287C61.9405 52.033 63.9991 54.6365 63.9991 54.6365" stroke="#197576" stroke-linecap="round" stroke-linejoin="round"/>
<path d="M61.9404 35.5591C61.9404 35.5591 60.6137 37.3175 59.8779 40.1573" stroke="#197576" stroke-linecap="round" stroke-linejoin="round"/>
<path d="M61.2007 48.0477C58.9661 50.527 57.522 53.3067 57.522 53.3067" stroke="#197576" stroke-linecap="round" stroke-linejoin="round"/>
<path d="M73.8769 43.9182C73.8769 43.9182 70.0455 42.8849 65.7288 44.6352" stroke="#197576" stroke-linecap="round" stroke-linejoin="round"/>
<path d="M59.2988 46.7581C57.7803 48.7447 56.8489 50.5351 56.8489 50.5351" stroke="#197576" stroke-linecap="round" stroke-linejoin="round"/>
<path d="M73.2037 41.1426C73.2037 41.1426 69.1766 40.0571 64.723 41.9997C64.0772 42.2801 63.4511 42.6606 62.8562 43.1052" stroke="#197576" stroke-linecap="round" stroke-linejoin="round"/>
<path d="M57.9525 45.5124C56.7706 47.1706 56.0701 48.5204 56.0701 48.5204" stroke="#197576" stroke-linecap="round" stroke-linejoin="round"/>
<path d="M72.4211 39.1319C72.4211 39.1319 68.394 38.0465 63.9403 39.989C62.9932 40.4016 62.0931 41.0264 61.2634 41.7514" stroke="#197576" stroke-linecap="round" stroke-linejoin="round"/>
</g>
<path d="M64.0929 53.9556C68.9344 53.9556 72.8593 49.9387 72.8593 44.9836C72.8593 40.0286 68.9344 36.0117 64.0929 36.0117C59.2513 36.0117 55.3264 40.0286 55.3264 44.9836C55.3264 49.9387 59.2513 53.9556 64.0929 53.9556Z" stroke="#197576" stroke-linecap="round" stroke-linejoin="round"/>
<path d="M69.4778 53.9556C71.0432 53.9556 71.0432 52.2253 72.6047 52.2253C74.1663 52.2253 74.1663 53.9556 75.7317 53.9556C77.2971 53.9556 77.2972 52.2253 78.8587 52.2253C80.4202 52.2253 80.4241 53.9556 81.9856 53.9556" stroke="#197576" stroke-linecap="round" stroke-linejoin="round"/>
<path d="M64.2573 53.9556H69.478" stroke="#197576" stroke-linecap="round" stroke-linejoin="round"/>
<path d="M36.8674 43.4076C36.8751 43.4659 36.8828 43.5243 36.8905 43.5827V43.5905L36.8947 43.6228C36.8993 43.6575 36.8999 43.6878 36.8981 43.7135C36.8567 43.7588 36.8204 43.7781 36.8017 43.7839C36.7923 43.7869 36.7878 43.7866 36.7858 43.7863C36.7842 43.7862 36.7756 43.7852 36.7591 43.776C36.7563 43.7738 36.7473 43.7662 36.7356 43.75C36.7249 43.7351 36.7154 43.7176 36.7082 43.6995C36.7054 43.678 36.7025 43.6565 36.6997 43.635C36.7558 43.5593 36.8117 43.4835 36.8674 43.4076ZM37.759 42.5209C37.7454 42.4175 37.7317 42.3142 37.7181 42.2109C38.1812 41.541 38.6305 40.8627 39.0718 40.1812C39.1403 40.2049 39.2087 40.2289 39.277 40.2531C38.7815 41.0189 38.2788 41.7766 37.759 42.5209ZM36.676 41.9576C36.6204 42.0368 36.5647 42.1159 36.5087 42.1948C36.3816 41.236 36.2546 40.2773 36.1278 39.3188C36.1967 39.3354 36.2655 39.3522 36.3342 39.3692C36.4482 40.232 36.5621 41.0948 36.676 41.9576ZM39.8313 39.3895C39.7634 39.3649 39.6954 39.3405 39.6273 39.3163C39.6691 39.2507 39.7109 39.1852 39.7526 39.1196C39.8206 39.1438 39.8885 39.1683 39.9564 39.193C39.9147 39.2585 39.873 39.324 39.8313 39.3895ZM38.7775 38.789C38.7354 38.8551 38.6932 38.9211 38.651 38.987C38.1829 38.8374 37.7115 38.6984 37.2374 38.5702C37.2266 38.4889 37.2159 38.4075 37.2051 38.3262C37.7328 38.4673 38.2571 38.6216 38.7775 38.789ZM40.3054 38.2558C40.3039 38.2553 40.3025 38.2548 40.3011 38.2543C40.3015 38.2535 40.302 38.2528 40.3024 38.2521L40.3054 38.2558ZM40.7857 39.7525C40.8272 39.6873 40.8686 39.6221 40.91 39.5569C41.1109 39.6371 41.3111 39.7194 41.5105 39.8036L41.8013 40.1771C41.4651 40.0298 41.1265 39.8882 40.7857 39.7525ZM41.7789 38.1834L42.5397 39.1606C42.4071 39.1013 42.2741 39.0429 42.1408 38.9854L41.6613 38.3695C41.7005 38.3075 41.7397 38.2454 41.7789 38.1834ZM43.2582 34.082C42.7228 34.8633 42.2053 35.6553 41.6964 36.4497L41.5587 36.2729C41.9987 35.5869 42.4429 34.9066 42.8982 34.2356C43.0183 34.1846 43.1383 34.1334 43.2582 34.082ZM39.906 34.1503C40.7648 33.8065 41.6199 33.4533 42.4714 33.0908C42.3931 33.2035 42.3151 33.3164 42.2376 33.4295C41.5101 33.737 40.7801 34.0379 40.0477 34.3322L39.906 34.1503ZM36.2462 31.0776L38.2961 33.7103C38.2289 33.7364 38.1617 33.7625 38.0944 33.7885L36.3001 31.4839C36.2821 31.3485 36.2642 31.213 36.2462 31.0776ZM33.4385 36.5422C33.8579 36.3996 34.2766 36.2549 34.6945 36.108C34.7047 36.1848 34.7148 36.2616 34.725 36.3383C34.4606 36.4314 34.196 36.5237 33.931 36.6151C33.7671 36.5896 33.6029 36.5653 33.4385 36.5422ZM34.9499 38.0401C34.4859 37.9502 34.02 37.8705 33.5525 37.8012C33.7085 37.7484 33.8644 37.6953 34.0201 37.6419C34.3203 37.6909 34.6198 37.7441 34.9184 37.8015C34.9289 37.881 34.9394 37.9605 34.9499 38.0401ZM31.7213 37.3497C31.7255 37.3501 31.7298 37.3504 31.734 37.3508C31.73 37.3521 31.726 37.3535 31.722 37.3548L31.7213 37.3497ZM36.1939 38.3066C36.1252 38.2905 36.0564 38.2746 35.9876 38.2589C35.977 38.1786 35.9664 38.0984 35.9557 38.0182C36.0246 38.0337 36.0933 38.0495 36.162 38.0655C36.1726 38.1458 36.1833 38.2262 36.1939 38.3066ZM41.0084 37.531L40.8704 37.3538C40.9097 37.2918 40.949 37.2299 40.9882 37.1679L41.1261 37.3451C41.0869 37.407 41.0476 37.469 41.0084 37.531ZM38.9372 34.5337L39.0797 34.7167C39.0126 34.743 38.9456 34.7693 38.8785 34.7955L38.7359 34.6123C38.803 34.5861 38.8701 34.56 38.9372 34.5337ZM35.3444 31.8842C35.4679 32.8167 35.5913 33.749 35.7147 34.6812C35.6511 34.7043 35.5875 34.7274 35.5239 34.7505L35.3444 31.8842ZM36.0224 37.0084C35.9815 36.9994 35.9406 36.9904 35.8997 36.9815C35.9376 36.9679 35.9755 36.9542 36.0134 36.9406C36.0164 36.9632 36.0194 36.9858 36.0224 37.0084ZM37.7605 34.9873L37.9042 35.1718C37.5504 35.3069 37.1961 35.4403 36.8412 35.5723C36.8311 35.4961 36.8211 35.4199 36.811 35.3437C37.1279 35.2262 37.4444 35.1074 37.7605 34.9873ZM35.6883 35.9948C35.6782 35.9183 35.6681 35.8418 35.6579 35.7653L35.8489 35.6963C35.859 35.7727 35.8691 35.8492 35.8792 35.9256C35.8156 35.9487 35.7519 35.9718 35.6883 35.9948ZM40.3358 36.3299C40.2964 36.3918 40.2571 36.4537 40.2178 36.5156L39.5192 35.6184C39.5862 35.5921 39.6532 35.5657 39.7201 35.5392L40.3358 36.3299Z" fill="#197576" stroke="#197576"/>
<path d="M60.5628 65.7666C60.6438 65.7666 60.6732 65.7927 60.6906 65.8134C60.7174 65.8453 60.7438 65.9064 60.7438 65.9876C60.7438 66.0687 60.7174 66.1298 60.6906 66.1617C60.6732 66.1824 60.6438 66.2085 60.5628 66.2085C60.4818 66.2085 60.4524 66.1824 60.435 66.1617C60.4082 66.1298 60.3818 66.0687 60.3818 65.9876C60.3818 65.9064 60.4082 65.8453 60.435 65.8134C60.4524 65.7927 60.4818 65.7666 60.5628 65.7666Z" fill="#197576" stroke="#197576"/>
<path d="M63.7483 65.7666C63.8294 65.7666 63.8588 65.7927 63.8761 65.8134C63.9029 65.8453 63.9293 65.9064 63.9293 65.9876C63.9293 66.0687 63.9029 66.1298 63.8761 66.1617C63.8588 66.1824 63.8294 66.2085 63.7483 66.2085C63.6673 66.2085 63.6379 66.1824 63.6206 66.1617C63.5938 66.1298 63.5674 66.0687 63.5674 65.9876C63.5674 65.9064 63.5938 65.8453 63.6206 65.8134C63.6379 65.7927 63.6673 65.7666 63.7483 65.7666Z" fill="#197576" stroke="#197576"/>
<path d="M59.5726 30.7521C59.6536 30.7521 59.683 30.7782 59.7004 30.7989C59.7271 30.8308 59.7535 30.8919 59.7535 30.973C59.7535 31.0542 59.7271 31.1153 59.7004 31.1472C59.683 31.1679 59.6536 31.194 59.5726 31.194C59.4915 31.194 59.4621 31.1679 59.4448 31.1472C59.418 31.1153 59.3916 31.0542 59.3916 30.973C59.3916 30.8919 59.418 30.8308 59.4448 30.7989C59.4621 30.7782 59.4915 30.7521 59.5726 30.7521Z" fill="#197576" stroke="#197576"/>
<path d="M57.3458 25.6013C57.4268 25.6013 57.4562 25.6274 57.4736 25.6481C57.5003 25.6799 57.5267 25.7411 57.5267 25.8222C57.5267 25.9034 57.5003 25.9645 57.4736 25.9964C57.4562 26.017 57.4268 26.0432 57.3458 26.0432C57.2647 26.0432 57.2353 26.017 57.218 25.9964C57.1912 25.9645 57.1648 25.9034 57.1648 25.8222C57.1648 25.7411 57.1912 25.6799 57.218 25.6481C57.2353 25.6274 57.2647 25.6013 57.3458 25.6013Z" fill="#197576" stroke="#197576"/>
<path d="M54.4576 30.1633C54.5386 30.1633 54.568 30.1895 54.5854 30.2101C54.6121 30.242 54.6385 30.3031 54.6385 30.3843C54.6385 30.4654 54.6121 30.5265 54.5854 30.5584C54.568 30.5791 54.5386 30.6052 54.4576 30.6052C54.3765 30.6052 54.3471 30.5791 54.3298 30.5584C54.303 30.5265 54.2766 30.4654 54.2766 30.3843C54.2766 30.3031 54.303 30.242 54.3298 30.2101C54.3471 30.1895 54.3765 30.1633 54.4576 30.1633Z" fill="#197576" stroke="#197576"/>
<path d="M19.749 80.6104L19.4103 80.5749L19.2532 80.8771C18.7648 81.8166 18.1453 82.2149 17.649 82.2711C17.1798 82.3243 16.6654 82.0886 16.2999 81.3952C16.1379 81.088 16.0698 80.6616 16.0964 80.1471C16.1228 79.6386 16.2397 79.0854 16.4051 78.559C16.5702 78.0335 16.7785 77.5512 16.9769 77.187C17.0763 77.0045 17.169 76.8596 17.2474 76.7566C17.3063 76.6793 17.3428 76.6448 17.3549 76.6334C17.3707 76.6294 17.418 76.6178 17.5112 76.6105C17.6371 76.6006 17.8051 76.6016 18.0078 76.6176C18.4124 76.6493 18.9185 76.7375 19.4361 76.8861C19.9546 77.0349 20.4676 77.2395 20.8942 77.4959C21.3253 77.755 21.6333 78.046 21.794 78.3521C22.1466 79.0237 22.0402 79.6025 21.703 79.9985C21.351 80.4118 20.6744 80.7074 19.749 80.6104Z" fill="#197576" stroke="#197576"/>
<path d="M14.9753 74.2106C15.32 74.5574 15.5176 74.9609 15.5759 75.3152C15.6344 75.6702 15.5512 75.9345 15.3974 76.0945C15.2437 76.2546 14.9868 76.3441 14.639 76.2902C14.292 76.2365 13.8944 76.041 13.5498 75.6942C13.2052 75.3474 13.0076 74.9438 12.9492 74.5895C12.8907 74.2346 12.9739 73.9702 13.1277 73.8102C13.2814 73.6502 13.5383 73.5606 13.8861 73.6145C14.2332 73.6683 14.6307 73.8637 14.9753 74.2106Z" fill="#197576" stroke="#197576"/>
<path d="M13.6894 77.8359C14.3581 78.1061 14.5471 78.6626 14.4317 78.9617C14.3163 79.2608 13.8068 79.535 13.1381 79.2648C12.4693 78.9945 12.2804 78.438 12.3958 78.1389C12.5112 77.8398 13.0207 77.5656 13.6894 77.8359Z" fill="#197576" stroke="#197576"/>
<path d="M18.6499 72.8642C18.7432 73.353 18.6827 73.803 18.5345 74.1305C18.3856 74.4592 18.172 74.625 17.9637 74.6666C17.7554 74.7082 17.4965 74.6369 17.2377 74.3896C16.98 74.1433 16.7585 73.7497 16.6653 73.2608C16.572 72.772 16.6325 72.3219 16.7807 71.9945C16.9296 71.6658 17.1432 71.5 17.3515 71.4584C17.5598 71.4167 17.8187 71.4881 18.0775 71.7353C18.3352 71.9816 18.5567 72.3753 18.6499 72.8642Z" fill="#197576" stroke="#197576"/>
<path d="M21.3075 73.2271C21.4579 73.2596 21.6122 73.3753 21.7207 73.603C21.8294 73.8311 21.8756 74.1462 21.8049 74.489C21.7342 74.8319 21.5677 75.1011 21.3782 75.2648C21.1891 75.4282 21.0023 75.4703 20.852 75.4379C20.7016 75.4054 20.5473 75.2897 20.4388 75.062C20.33 74.8339 20.2839 74.5188 20.3546 74.176C20.4252 73.8331 20.5918 73.5639 20.7813 73.4002C20.9704 73.2368 21.1572 73.1947 21.3075 73.2271Z" fill="#197576" stroke="#197576"/>
<path d="M0.618304 70.4575C0.90791 69.1077 0.28174 67.6899 -0.892338 67.013C-2.20731 66.256 -3.75708 66.5724 -4.70026 67.5857C-5.07988 67.9903 -5.65517 68.1304 -6.16394 67.9262L-13.909 64.794C-14.4177 64.5857 -14.7465 64.0811 -14.7504 63.5203C-14.7621 62.1185 -15.6818 60.8047 -17.1494 60.4362C-18.4605 60.1078 -19.8654 60.7086 -20.5542 61.8942C-21.1139 62.8554 -21.1256 63.9489 -20.7303 64.8541C-21.6226 65.2386 -22.3388 66.0437 -22.5776 67.1331C-22.8711 68.4949 -22.2292 69.9288 -21.0356 70.6017C-19.6815 71.3587 -18.0887 70.9942 -17.1612 69.9008C-16.8011 69.4762 -16.2023 69.3521 -15.6896 69.5603L-8.04638 72.6485C-7.5337 72.8567 -7.18148 73.3614 -7.20105 73.9262C-7.25193 75.3721 -6.33616 76.7539 -4.84117 77.1464C-3.52228 77.4949 -2.0938 76.8941 -1.39718 75.6965C-0.841453 74.7352 -0.829731 73.6458 -1.22109 72.7406C-0.328791 72.3561 0.391323 71.551 0.626139 70.4575H0.618304Z" stroke="#197576" stroke-linecap="round" stroke-linejoin="round"/>
<mask id="mask4_695_75" style="mask-type:luminance" maskUnits="userSpaceOnUse" x="4" y="36" width="18" height="18">
<path d="M21.3613 44.9836C21.3613 49.6735 17.6494 53.4556 13.0948 53.4556C8.54023 53.4556 4.82837 49.6735 4.82837 44.9836C4.82837 40.2938 8.54023 36.5117 13.0948 36.5117C17.6494 36.5117 21.3613 40.2938 21.3613 44.9836Z" fill="white" stroke="white"/>
</mask>
<g mask="url(#mask4_695_75)">
<path d="M7.19336 37.3856C7.19336 37.3856 8.73923 41.3428 12.919 43.8461C17.0948 46.3495 24.3036 45.24 24.3036 45.24" stroke="#197576" stroke-linecap="round" stroke-linejoin="round"/>
<path d="M5.41675 39.5925C5.41675 39.5925 6.96262 43.5498 11.1423 46.0531C15.3221 48.5564 22.527 47.447 22.527 47.447" stroke="#197576" stroke-linecap="round" stroke-linejoin="round"/>
<path d="M4.30127 41.435C4.30127 41.435 5.84714 45.3923 10.0269 47.8956C14.2027 50.3989 21.4115 49.2894 21.4115 49.2894" stroke="#197576" stroke-linecap="round" stroke-linejoin="round"/>
<path d="M14.457 49.3375C15.819 52.5377 17.8736 55.1332 17.8736 55.1332" stroke="#197576" stroke-linecap="round" stroke-linejoin="round"/>
<path d="M17.4197 49.9423C18.7816 53.1425 20.8363 55.7379 20.8363 55.7379" stroke="#197576" stroke-linecap="round" stroke-linejoin="round"/>
<path d="M15.815 36.0558C15.815 36.0558 14.8444 37.3415 14.1008 39.4883" stroke="#197576" stroke-linecap="round" stroke-linejoin="round"/>
<path d="M11.604 48.6605C12.962 51.9649 15.1145 54.6845 15.1145 54.6845" stroke="#197576" stroke-linecap="round" stroke-linejoin="round"/>
<path d="M13.0561 35.6071C13.0561 35.6071 11.3811 37.8221 10.751 41.2987" stroke="#197576" stroke-linecap="round" stroke-linejoin="round"/>
<path d="M9.5769 48.8287C10.9388 52.033 12.9974 54.6365 12.9974 54.6365" stroke="#197576" stroke-linecap="round" stroke-linejoin="round"/>
<path d="M10.9387 35.5591C10.9387 35.5591 9.61198 37.3175 8.87622 40.1573" stroke="#197576" stroke-linecap="round" stroke-linejoin="round"/>
<path d="M10.2029 48.0477C7.96827 50.527 6.52417 53.3067 6.52417 53.3067" stroke="#197576" stroke-linecap="round" stroke-linejoin="round"/>
<path d="M22.8791 43.9182C22.8791 43.9182 19.0477 42.8849 14.731 44.6352" stroke="#197576" stroke-linecap="round" stroke-linejoin="round"/>
<path d="M8.29706 46.7581C6.77858 48.7447 5.84717 50.5351 5.84717 50.5351" stroke="#197576" stroke-linecap="round" stroke-linejoin="round"/>
<path d="M22.2059 41.1426C22.2059 41.1426 18.1788 40.0571 13.7252 41.9997C13.0794 42.2801 12.4533 42.6606 11.8584 43.1052" stroke="#197576" stroke-linecap="round" stroke-linejoin="round"/>
<path d="M6.95055 45.5124C5.76865 47.1706 5.06812 48.5204 5.06812 48.5204" stroke="#197576" stroke-linecap="round" stroke-linejoin="round"/>
<path d="M21.4233 39.1319C21.4233 39.1319 17.3962 38.0465 12.9425 39.989C11.9954 40.4016 11.0953 41.0264 10.2656 41.7514" stroke="#197576" stroke-linecap="round" stroke-linejoin="round"/>
</g>
<path d="M13.0948 53.9556C17.9364 53.9556 21.8613 49.9387 21.8613 44.9836C21.8613 40.0286 17.9364 36.0117 13.0948 36.0117C8.25323 36.0117 4.32837 40.0286 4.32837 44.9836C4.32837 49.9387 8.25323 53.9556 13.0948 53.9556Z" stroke="#197576" stroke-linecap="round" stroke-linejoin="round"/>
<path d="M18.4758 53.9556C20.0413 53.9556 20.0413 52.2253 21.6028 52.2253C23.1643 52.2253 23.1643 53.9556 24.7298 53.9556C26.2952 53.9556 26.2952 52.2253 27.8567 52.2253C29.4183 52.2253 29.4222 53.9556 30.9837 53.9556" stroke="#197576" stroke-linecap="round" stroke-linejoin="round"/>
<path d="M13.2593 53.9556H18.4761" stroke="#197576" stroke-linecap="round" stroke-linejoin="round"/>
<path d="M9.56085 65.7666C9.64188 65.7666 9.67129 65.7927 9.68864 65.8134C9.71542 65.8453 9.74181 65.9064 9.74181 65.9876C9.74181 66.0687 9.71542 66.1298 9.68864 66.1617C9.67129 66.1824 9.64188 66.2085 9.56085 66.2085C9.47982 66.2085 9.45041 66.1824 9.43305 66.1617C9.40628 66.1298 9.37988 66.0687 9.37988 65.9876C9.37988 65.9064 9.40628 65.8453 9.43305 65.8134C9.45041 65.7927 9.47982 65.7666 9.56085 65.7666Z" fill="#197576" stroke="#197576"/>
<path d="M12.7505 65.7666C12.8316 65.7666 12.861 65.7927 12.8783 65.8134C12.9051 65.8453 12.9315 65.9064 12.9315 65.9876C12.9315 66.0687 12.9051 66.1298 12.8783 66.1617C12.861 66.1824 12.8316 66.2085 12.7505 66.2085C12.6695 66.2085 12.6401 66.1824 12.6228 66.1617C12.596 66.1298 12.5696 66.0687 12.5696 65.9876C12.5696 65.9064 12.596 65.8453 12.6228 65.8134C12.6401 65.7927 12.6695 65.7666 12.7505 65.7666Z" fill="#197576" stroke="#197576"/>
<path d="M8.57452 30.7521C8.65554 30.7521 8.68496 30.7782 8.70231 30.7989C8.72909 30.8308 8.75549 30.8919 8.75549 30.973C8.75549 31.0542 8.72909 31.1153 8.70231 31.1472C8.68496 31.1679 8.65554 31.194 8.57452 31.194C8.4935 31.194 8.46408 31.1679 8.44673 31.1472C8.41995 31.1153 8.39355 31.0542 8.39355 30.973C8.39355 30.8919 8.41995 30.8308 8.44673 30.7989C8.46408 30.7782 8.4935 30.7521 8.57452 30.7521Z" fill="#197576" stroke="#197576"/>
<path d="M6.34381 25.6013C6.42483 25.6013 6.45425 25.6274 6.4716 25.6481C6.49838 25.6799 6.52477 25.7411 6.52477 25.8222C6.52477 25.9034 6.49838 25.9645 6.4716 25.9964C6.45425 26.017 6.42483 26.0432 6.34381 26.0432C6.26278 26.0432 6.23336 26.017 6.21601 25.9964C6.18924 25.9645 6.16284 25.9034 6.16284 25.8222C6.16284 25.7411 6.18924 25.6799 6.21601 25.6481C6.23336 25.6274 6.26278 25.6013 6.34381 25.6013Z" fill="#197576" stroke="#197576"/>
<path d="M3.45562 30.1633C3.53665 30.1633 3.56607 30.1895 3.58342 30.2101C3.61019 30.242 3.63659 30.3031 3.63659 30.3843C3.63659 30.4654 3.61019 30.5265 3.58342 30.5584C3.56607 30.5791 3.53665 30.6052 3.45562 30.6052C3.3746 30.6052 3.34518 30.5791 3.32783 30.5584C3.30105 30.5265 3.27466 30.4654 3.27466 30.3843C3.27466 30.3031 3.30105 30.242 3.32783 30.2101C3.34518 30.1895 3.3746 30.1633 3.45562 30.1633Z" fill="#197576" stroke="#197576"/>
<path d="M96.2521 22.8897L95.9135 22.8542L95.7564 23.1564C95.268 24.0959 94.6485 24.4942 94.1522 24.5504C93.683 24.6036 93.1686 24.3679 92.8031 23.6745C92.6411 23.3673 92.573 22.9409 92.5996 22.4264C92.626 21.9179 92.7428 21.3647 92.9082 20.8383C93.0734 20.3128 93.2817 19.8305 93.4801 19.4663C93.5795 19.2838 93.6721 19.1389 93.7506 19.0359C93.8094 18.9586 93.846 18.9241 93.8581 18.9127C93.8739 18.9087 93.9212 18.8971 94.0143 18.8898C94.1403 18.8799 94.3083 18.8809 94.511 18.8968C94.9155 18.9286 95.4216 19.0168 95.9393 19.1654C96.4578 19.3142 96.9708 19.5188 97.3974 19.7752C97.8285 20.0343 98.1365 20.3253 98.2972 20.6314C98.6497 21.303 98.5434 21.8818 98.2062 22.2778C97.8541 22.6911 97.1776 22.9867 96.2521 22.8897Z" fill="#197576" stroke="#197576"/>
<path d="M91.4827 16.489C91.8273 16.8358 92.0249 17.2394 92.0832 17.5936C92.1417 17.9486 92.0585 18.2129 91.9048 18.373C91.751 18.533 91.4942 18.6225 91.1464 18.5687C90.7993 18.5149 90.4017 18.3194 90.0571 17.9726C89.7125 17.6258 89.5149 17.2222 89.4565 16.868C89.3981 16.513 89.4813 16.2487 89.635 16.0886C89.7888 15.9286 90.0456 15.8391 90.3934 15.8929C90.7405 15.9467 91.138 16.1422 91.4827 16.489Z" fill="#197576" stroke="#197576"/>
<path d="M90.187 20.1156C90.8557 20.3859 91.0446 20.9424 90.9292 21.2415C90.8138 21.5406 90.3043 21.8148 89.6356 21.5445C88.9669 21.2743 88.778 20.7178 88.8934 20.4187C89.0088 20.1196 89.5183 19.8453 90.187 20.1156Z" fill="#197576" stroke="#197576"/>
<path d="M95.1509 15.1463C95.2442 15.6351 95.1837 16.0851 95.0354 16.4126C94.8866 16.7413 94.6729 16.9071 94.4647 16.9487C94.2564 16.9903 93.9975 16.919 93.7387 16.6717C93.481 16.4254 93.2595 16.0318 93.1662 15.5429C93.073 15.0541 93.1334 14.604 93.2817 14.2766C93.4305 13.9479 93.6442 13.7821 93.8525 13.7405C94.0608 13.6988 94.3197 13.7702 94.5784 14.0174C94.8361 14.2637 95.0576 14.6574 95.1509 15.1463Z" fill="#197576" stroke="#197576"/>
<path d="M97.8004 15.5086C97.9508 15.5411 98.1051 15.6568 98.2136 15.8844C98.3224 16.1126 98.3685 16.4277 98.2978 16.7705C98.2272 17.1133 98.0606 17.3826 97.8711 17.5463C97.682 17.7097 97.4952 17.7518 97.3448 17.7193C97.1945 17.6869 97.0402 17.5712 96.9317 17.3435C96.8229 17.1154 96.7768 16.8003 96.8475 16.4574C96.9181 16.1146 97.0847 15.8454 97.2742 15.6816C97.4633 15.5182 97.6501 15.4762 97.8004 15.5086Z" fill="#197576" stroke="#197576"/>
<path d="M77.1174 12.7369C77.407 11.3871 76.7808 9.96918 75.6067 9.29228C74.2917 8.53528 72.7419 8.8517 71.7988 9.86504C71.4191 10.2696 70.8439 10.4098 70.3351 10.2055L62.5901 7.07332C62.0813 6.86504 61.7526 6.36038 61.7487 5.79963C61.7369 4.39777 60.8172 3.08402 59.3496 2.71553C58.0386 2.38709 56.6336 2.9879 55.9448 4.17347C55.3851 5.13475 55.3734 6.22821 55.7687 7.13341C54.8764 7.51792 54.1602 8.32299 53.9215 9.41244C53.6279 10.7742 54.2698 12.2081 55.4634 12.881C56.8175 13.638 58.4104 13.2736 59.3379 12.1801C59.6979 11.7555 60.2967 11.6314 60.8094 11.8397L68.4526 14.9278C68.9653 15.136 69.3175 15.6407 69.298 16.2054C69.2471 17.6514 70.1629 19.0332 71.6579 19.4257C72.9768 19.7742 74.4052 19.1734 75.1018 17.9758C75.6576 17.0145 75.6693 15.9251 75.278 15.0199C76.1703 14.6354 76.8903 13.8303 77.1252 12.7369H77.1174Z" stroke="#197576" stroke-linecap="round" stroke-linejoin="round"/>
<path d="M75.27 15.0199L74.7534 13.5259" stroke="#197576" stroke-linecap="round" stroke-linejoin="round"/>
<path d="M56.1365 8.26693L55.616 6.76892" stroke="#197576" stroke-linecap="round" stroke-linejoin="round"/>
<path d="M86.0638 8.0459C86.1448 8.0459 86.1742 8.07203 86.1916 8.0927C86.2183 8.12459 86.2447 8.18572 86.2447 8.26686C86.2447 8.34801 86.2183 8.40913 86.1916 8.44103C86.1742 8.46169 86.1448 8.48783 86.0638 8.48783C85.9828 8.48783 85.9533 8.46169 85.936 8.44103C85.9092 8.40913 85.8828 8.34801 85.8828 8.26686C85.8828 8.18572 85.9092 8.12459 85.936 8.0927C85.9533 8.07203 85.9828 8.0459 86.0638 8.0459Z" fill="#197576" stroke="#197576"/>
<path d="M89.2493 8.0459C89.3303 8.0459 89.3598 8.07203 89.3771 8.0927C89.4039 8.12459 89.4303 8.18572 89.4303 8.26686C89.4303 8.34801 89.4039 8.40913 89.3771 8.44103C89.3598 8.46169 89.3303 8.48783 89.2493 8.48783C89.1683 8.48783 89.1389 8.46169 89.1215 8.44103C89.0948 8.40913 89.0684 8.34801 89.0684 8.26686C89.0684 8.18572 89.0948 8.12459 89.1215 8.0927C89.1389 8.07203 89.1683 8.0459 89.2493 8.0459Z" fill="#197576" stroke="#197576"/>
<path d="M45.2502 22.8897L44.9115 22.8542L44.7544 23.1564C44.266 24.0959 43.6465 24.4942 43.1502 24.5504C42.6811 24.6036 42.1667 24.3679 41.8011 23.6745C41.6392 23.3673 41.571 22.9409 41.5977 22.4264C41.624 21.9179 41.7409 21.3647 41.9063 20.8383C42.0714 20.3128 42.2797 19.8305 42.4781 19.4663C42.5776 19.2838 42.6702 19.1389 42.7486 19.0359C42.8075 18.9586 42.844 18.9241 42.8561 18.9127C42.8719 18.9087 42.9192 18.8971 43.0124 18.8898C43.1383 18.8799 43.3063 18.8809 43.509 18.8968C43.9136 18.9286 44.4197 19.0168 44.9373 19.1654C45.4558 19.3142 45.9688 19.5188 46.3954 19.7752C46.8265 20.0343 47.1346 20.3253 47.2953 20.6314C47.6478 21.303 47.5414 21.8818 47.2042 22.2778C46.8522 22.6911 46.1756 22.9867 45.2502 22.8897Z" fill="#197576" stroke="#197576"/>
<path d="M40.4787 16.4885C40.8233 16.8353 41.021 17.2389 41.0793 17.5932C41.1378 17.9482 41.0546 18.2125 40.9008 18.3725C40.7471 18.5325 40.4902 18.6221 40.1425 18.5682C39.7954 18.5144 39.3978 18.319 39.0532 17.9721C38.7086 17.6253 38.511 17.2217 38.4526 16.8675C38.3942 16.5125 38.4773 16.2482 38.6311 16.0882C38.7849 15.9281 39.0417 15.8386 39.3895 15.8925C39.7366 15.9462 40.1341 16.1417 40.4787 16.4885Z" fill="#197576" stroke="#197576"/>
<path d="M39.1897 20.1157C39.8584 20.386 40.0473 20.9425 39.9319 21.2416C39.8165 21.5407 39.307 21.8149 38.6383 21.5447C37.9696 21.2744 37.7806 20.7179 37.8961 20.4188C38.0115 20.1197 38.521 19.8455 39.1897 20.1157Z" fill="#197576" stroke="#197576"/>
<path d="M44.1511 15.1446C44.2444 15.6334 44.1839 16.0834 44.0357 16.4109C43.8868 16.7396 43.6732 16.9054 43.4649 16.947C43.2566 16.9886 42.9977 16.9173 42.7389 16.67C42.4812 16.4237 42.2598 16.0301 42.1665 15.5412C42.0732 15.0524 42.1337 14.6023 42.2819 14.2749C42.4308 13.9462 42.6444 13.7804 42.8527 13.7388C43.061 13.6971 43.3199 13.7685 43.5787 14.0157C43.8364 14.262 44.0579 14.6557 44.1511 15.1446Z" fill="#197576" stroke="#197576"/>
<path d="M46.8007 15.5104C46.951 15.5429 47.1053 15.6586 47.2139 15.8863C47.3226 16.1144 47.3687 16.4295 47.2981 16.7723C47.2274 17.1152 47.0609 17.3844 46.8714 17.5481C46.6823 17.7116 46.4954 17.7536 46.3451 17.7212C46.1947 17.6887 46.0404 17.573 45.9319 17.3454C45.8232 17.1172 45.7771 16.8021 45.8477 16.4593C45.9184 16.1164 46.0849 15.8472 46.2744 15.6835C46.4635 15.52 46.6503 15.478 46.8007 15.5104Z" fill="#197576" stroke="#197576"/>
<path d="M26.1154 12.7369C26.405 11.3871 25.7788 9.96918 24.6048 9.29228C23.2898 8.53528 21.74 8.8517 20.7968 9.86504C20.4172 10.2696 19.8419 10.4098 19.3331 10.2055L11.5881 7.07332C11.0794 6.86504 10.7506 6.36038 10.7467 5.79963C10.735 4.39777 9.81527 3.08402 8.34767 2.71553C7.03662 2.38709 5.63163 2.9879 4.94284 4.17347C4.38319 5.13475 4.37147 6.22821 4.76675 7.13341C3.87445 7.51792 3.15825 8.32299 2.91952 9.41244C2.626 10.7742 3.26783 12.2081 4.46147 12.881C5.81558 13.638 7.40842 13.2736 8.33594 12.1801C8.69599 11.7555 9.29478 11.6314 9.80746 11.8397L17.4507 14.9278C17.9634 15.136 18.3156 15.6407 18.296 16.2054C18.2452 17.6514 19.1609 19.0332 20.6559 19.4257C21.9748 19.7742 23.4033 19.1734 24.0999 17.9758C24.6556 17.0145 24.6674 15.9251 24.276 15.0199C25.1683 14.6354 25.8884 13.8303 26.1232 12.7369H26.1154Z" stroke="#197576" stroke-linecap="round" stroke-linejoin="round"/>
<path d="M24.272 15.0199L23.7515 13.5259" stroke="#197576" stroke-linecap="round" stroke-linejoin="round"/>
<path d="M5.13453 8.26693L4.61401 6.76892" stroke="#197576" stroke-linecap="round" stroke-linejoin="round"/>
<path d="M35.0618 8.0459C35.1428 8.0459 35.1723 8.07203 35.1896 8.0927C35.2164 8.12459 35.2428 8.18572 35.2428 8.26686C35.2428 8.34801 35.2164 8.40913 35.1896 8.44103C35.1723 8.46169 35.1428 8.48783 35.0618 8.48783C34.9808 8.48783 34.9514 8.46169 34.934 8.44103C34.9073 8.40913 34.8809 8.34801 34.8809 8.26686C34.8809 8.18572 34.9073 8.12459 34.934 8.0927C34.9514 8.07203 34.9808 8.0459 35.0618 8.0459Z" fill="#197576" stroke="#197576"/>
<path d="M38.2474 8.0459C38.3284 8.0459 38.3578 8.07203 38.3752 8.0927C38.4019 8.12459 38.4283 8.18572 38.4283 8.26686C38.4283 8.34801 38.4019 8.40913 38.3752 8.44103C38.3578 8.46169 38.3284 8.48783 38.2474 8.48783C38.1663 8.48783 38.1369 8.46169 38.1196 8.44103C38.0928 8.40913 38.0664 8.34801 38.0664 8.26686C38.0664 8.18572 38.0928 8.12459 38.1196 8.0927C38.1369 8.07203 38.1663 8.0459 38.2474 8.0459Z" fill="#197576" stroke="#197576"/>
</g>
</svg>
