<svg width="121" height="136" viewBox="0 0 121 136" fill="none" xmlns="http://www.w3.org/2000/svg">
<mask id="mask0_632_383" style="mask-type:luminance" maskUnits="userSpaceOnUse" x="0" y="0" width="121" height="136">
<path d="M0.5 135.5V0.5H119.665V135.5H0.5Z" fill="white" stroke="white"/>
</mask>
<g mask="url(#mask0_632_383)">
<mask id="mask1_632_383" style="mask-type:luminance" maskUnits="userSpaceOnUse" x="95" y="110" width="21" height="22">
<path d="M115.377 120.995C115.377 126.567 110.966 131.065 105.549 131.065C100.133 131.065 95.7217 126.567 95.7217 120.995C95.7217 115.422 100.133 110.925 105.549 110.925C110.966 110.925 115.377 115.422 115.377 120.995Z" fill="white" stroke="white"/>
</mask>
<g mask="url(#mask1_632_383)">
<path d="M98.6013 112.044C98.6013 112.044 100.422 116.706 105.347 119.655C110.271 122.604 118.759 121.297 118.759 121.297" stroke="#F5F5F5" stroke-linecap="round" stroke-linejoin="round"/>
<path d="M96.5081 114.643C96.5081 114.643 98.3292 119.305 103.253 122.255C108.177 125.204 116.665 123.897 116.665 123.897" stroke="#F5F5F5" stroke-linecap="round" stroke-linejoin="round"/>
<path d="M95.1941 116.814C95.1941 116.814 97.0153 121.476 101.939 124.425C106.863 127.374 115.351 126.067 115.351 126.067" stroke="#F5F5F5" stroke-linecap="round" stroke-linejoin="round"/>
<path d="M107.158 126.124C108.763 129.894 111.183 132.952 111.183 132.952" stroke="#F5F5F5" stroke-linecap="round" stroke-linejoin="round"/>
<path d="M110.644 126.836C112.249 130.607 114.669 133.664 114.669 133.664" stroke="#F5F5F5" stroke-linecap="round" stroke-linejoin="round"/>
<path d="M108.758 110.482C108.758 110.482 107.615 111.996 106.739 114.526" stroke="#F5F5F5" stroke-linecap="round" stroke-linejoin="round"/>
<path d="M103.793 125.326C105.393 129.219 107.928 132.423 107.928 132.423" stroke="#F5F5F5" stroke-linecap="round" stroke-linejoin="round"/>
<path d="M105.508 109.948C105.508 109.948 103.535 112.558 102.792 116.654" stroke="#F5F5F5" stroke-linecap="round" stroke-linejoin="round"/>
<path d="M101.409 125.525C103.013 129.3 105.439 132.367 105.439 132.367" stroke="#F5F5F5" stroke-linecap="round" stroke-linejoin="round"/>
<path d="M103.014 109.892C103.014 109.892 101.451 111.963 100.584 115.309" stroke="#F5F5F5" stroke-linecap="round" stroke-linejoin="round"/>
<path d="M102.142 124.605C99.5094 127.525 97.8081 130.8 97.8081 130.8" stroke="#F5F5F5" stroke-linecap="round" stroke-linejoin="round"/>
<path d="M117.076 119.74C117.076 119.74 112.562 118.522 107.477 120.584" stroke="#F5F5F5" stroke-linecap="round" stroke-linejoin="round"/>
<path d="M99.9013 123.085C98.1125 125.426 97.0151 127.535 97.0151 127.535" stroke="#F5F5F5" stroke-linecap="round" stroke-linejoin="round"/>
<path d="M116.283 116.47C116.283 116.47 111.538 115.191 106.292 117.479C105.531 117.81 104.793 118.258 104.092 118.782" stroke="#F5F5F5" stroke-linecap="round" stroke-linejoin="round"/>
<path d="M98.3153 121.618C96.9229 123.571 96.0977 125.161 96.0977 125.161" stroke="#F5F5F5" stroke-linecap="round" stroke-linejoin="round"/>
<path d="M115.361 114.101C115.361 114.101 110.616 112.822 105.369 115.111C104.254 115.597 103.193 116.333 102.216 117.187" stroke="#F5F5F5" stroke-linecap="round" stroke-linejoin="round"/>
</g>
<path d="M105.549 131.565C111.253 131.565 115.877 126.832 115.877 120.995C115.877 115.157 111.253 110.425 105.549 110.425C99.8455 110.425 95.2217 115.157 95.2217 120.995C95.2217 126.832 99.8455 131.565 105.549 131.565Z" stroke="#F5F5F5" stroke-width="1.5" stroke-linecap="round" stroke-linejoin="round"/>
<path d="M111.894 131.569C113.738 131.569 113.738 129.531 115.577 129.531C117.417 129.531 117.417 131.569 119.261 131.569C121.105 131.569 121.105 129.531 122.945 129.531C124.785 129.531 124.789 131.569 126.629 131.569" stroke="#F5F5F5" stroke-width="1.58" stroke-linecap="round" stroke-linejoin="round"/>
<path d="M105.743 131.569H111.893" stroke="#F5F5F5" stroke-width="1.5" stroke-linecap="round" stroke-linejoin="round"/>
<path d="M73.3692 119.677C73.3545 119.676 73.3317 119.67 73.3 119.652C73.2895 119.645 73.2698 119.629 73.2479 119.598C73.2287 119.571 73.2125 119.54 73.201 119.508C73.1958 119.469 73.1906 119.43 73.1854 119.391C73.1861 119.388 73.1869 119.385 73.1874 119.384C73.188 119.382 73.1884 119.382 73.1886 119.381C73.3048 119.225 73.42 119.068 73.5345 118.911C73.5523 119.045 73.5701 119.18 73.5879 119.315L73.5916 119.343V119.352L73.5958 119.385C73.6036 119.444 73.603 119.496 73.5973 119.54C73.533 119.618 73.4689 119.657 73.4248 119.671C73.4027 119.678 73.3849 119.679 73.3692 119.677ZM73.3427 117.457C73.2273 117.622 73.1112 117.786 72.9942 117.95C72.8289 116.703 72.6638 115.456 72.4988 114.209C72.6419 114.243 72.7848 114.278 72.9276 114.313C73.066 115.361 73.2043 116.409 73.3427 117.457ZM74.4674 118.336C74.4398 118.128 74.4123 117.919 74.3848 117.711C74.9499 116.894 75.4975 116.066 76.0356 115.235C76.174 115.282 76.3121 115.331 76.45 115.38C75.8045 116.38 75.1488 117.368 74.4674 118.336ZM72.7871 113.25C72.6445 113.216 72.5017 113.183 72.3587 113.15C72.3379 112.993 72.3171 112.836 72.2964 112.679C72.4393 112.71 72.582 112.743 72.7246 112.776C72.7454 112.934 72.7663 113.092 72.7871 113.25ZM77.0038 114.517C76.8666 114.467 76.7292 114.418 76.5914 114.369C76.6736 114.241 76.7555 114.112 76.8374 113.983C76.9748 114.032 77.112 114.082 77.249 114.132C77.1673 114.26 77.0856 114.389 77.0038 114.517ZM71.2591 112.463C71.2797 112.619 71.3003 112.775 71.321 112.93C70.6133 112.791 69.9017 112.672 69.1873 112.573C69.4963 112.469 69.805 112.364 70.1133 112.259C70.4963 112.321 70.8783 112.389 71.2591 112.463ZM72.5848 111.718C72.4424 111.687 72.2998 111.655 72.1571 111.625C72.1535 111.599 72.15 111.572 72.1465 111.545C72.2788 111.498 72.4109 111.45 72.543 111.403C72.557 111.508 72.5709 111.613 72.5848 111.718ZM73.8307 113.514C73.8097 113.355 73.7886 113.196 73.7676 113.036C74.4713 113.222 75.1699 113.427 75.8627 113.652C75.7801 113.782 75.6975 113.911 75.6147 114.041C75.0243 113.851 74.4294 113.675 73.8307 113.514ZM77.7876 113.265C77.654 113.215 77.5202 113.166 77.3861 113.118C77.4289 113.05 77.4718 112.982 77.5146 112.914L77.7876 113.265ZM77.9585 114.88C78.0399 114.752 78.1211 114.624 78.2022 114.496C78.4697 114.602 78.7361 114.712 79.0014 114.824L79.5762 115.562C79.042 115.322 78.5026 115.095 77.9585 114.88ZM79.254 112.834L80.4495 114.369C80.1781 114.245 79.9055 114.124 79.6317 114.006L79.0142 113.213C79.0942 113.086 79.1741 112.96 79.254 112.834ZM81.2226 116.049L80.9668 115.72C81.0892 115.78 81.2114 115.841 81.3334 115.902L81.2226 116.049ZM81.2525 107.953C80.5362 108.989 79.8478 110.042 79.1714 111.1L78.8931 110.742C79.4276 109.909 79.9673 109.081 80.5213 108.266C80.7653 108.162 81.009 108.058 81.2525 107.953ZM81.6106 106.707C81.6397 106.667 81.6689 106.627 81.6982 106.586L81.7548 106.644C81.7067 106.665 81.6587 106.686 81.6106 106.707ZM76.9122 108.198C78.0563 107.741 79.1952 107.27 80.3284 106.785C80.1711 107.009 80.0153 107.234 79.8606 107.46C78.9745 107.834 78.0853 108.201 77.1929 108.559L76.9122 108.198ZM72.6122 104.303L75.3022 107.758C75.1653 107.811 75.0283 107.865 74.8913 107.917L72.7219 105.131C72.6854 104.855 72.6488 104.579 72.6122 104.303ZM71.8188 109.065C71.635 107.674 71.4513 106.282 71.2677 104.891L71.7662 105.532C71.916 106.662 72.0655 107.792 72.215 108.921C72.083 108.97 71.9509 109.017 71.8188 109.065ZM71.492 103.463C71.4967 103.499 71.5015 103.534 71.5062 103.57L71.4449 103.491L71.492 103.463ZM69.0482 111.092C69.6967 110.873 70.3438 110.65 70.9895 110.423C71.0094 110.573 71.0293 110.724 71.0492 110.874C70.7079 110.995 70.3663 111.114 70.0242 111.232C69.6996 111.181 69.3742 111.135 69.0482 111.092ZM72.4089 110.388C72.2768 110.436 72.1447 110.483 72.0125 110.531C71.9926 110.381 71.9727 110.23 71.9529 110.08C72.0851 110.032 72.2172 109.985 72.3493 109.937C72.3691 110.087 72.389 110.237 72.4089 110.388ZM78.3614 112.374L78.0826 112.016C78.1626 111.89 78.2426 111.763 78.3226 111.637L78.6013 111.995C78.5212 112.122 78.4413 112.248 78.3614 112.374ZM75.9432 108.581L76.2251 108.943C76.0885 108.997 75.9519 109.051 75.8152 109.104L75.5328 108.741C75.6697 108.688 75.8065 108.635 75.9432 108.581ZM73.3709 110.034C73.351 109.884 73.3312 109.734 73.3113 109.584C73.7273 109.43 74.1427 109.274 74.5573 109.116L74.8409 109.48C74.3518 109.668 73.8618 109.852 73.3709 110.034ZM77.6702 110.799C77.59 110.926 77.5099 111.052 77.4299 111.178L76.456 109.927C76.5925 109.873 76.729 109.82 76.8654 109.766L77.6702 110.799ZM67.8601 111.96C67.6866 112.017 67.513 112.073 67.3393 112.13L67.3099 111.907C67.4935 111.924 67.6769 111.941 67.8601 111.96Z" fill="#F5F5F5" stroke="#F5F5F5"/>
<path d="M100.224 104.14C100.346 104.14 100.405 104.182 100.443 104.227C100.49 104.283 100.526 104.376 100.526 104.489C100.526 104.602 100.49 104.696 100.443 104.752C100.405 104.796 100.346 104.838 100.224 104.838C100.103 104.838 100.043 104.796 100.005 104.752C99.9584 104.696 99.9219 104.602 99.9219 104.489C99.9219 104.376 99.9584 104.283 100.005 104.227C100.043 104.182 100.103 104.14 100.224 104.14Z" fill="#F5F5F5" stroke="#F5F5F5"/>
<path d="M97.6008 98.0716C97.7223 98.0716 97.782 98.1137 97.8196 98.1585C97.8666 98.2145 97.9031 98.3077 97.9031 98.4209C97.9031 98.5342 97.8666 98.6274 97.8196 98.6834C97.782 98.7281 97.7223 98.7703 97.6008 98.7703C97.4794 98.7703 97.4196 98.7281 97.3821 98.6834C97.3351 98.6274 97.2986 98.5342 97.2986 98.4209C97.2986 98.3077 97.3351 98.2145 97.3821 98.1585C97.4196 98.1137 97.4794 98.0716 97.6008 98.0716Z" fill="#F5F5F5" stroke="#F5F5F5"/>
<path d="M94.1982 103.446C94.3197 103.446 94.3794 103.488 94.417 103.533C94.464 103.589 94.5005 103.682 94.5005 103.795C94.5005 103.909 94.464 104.002 94.417 104.058C94.3794 104.103 94.3197 104.145 94.1982 104.145C94.0768 104.145 94.017 104.103 93.9795 104.058C93.9325 104.002 93.896 103.909 93.896 103.795C93.896 103.682 93.9325 103.589 93.9795 103.533C94.017 103.488 94.0768 103.446 94.1982 103.446Z" fill="#F5F5F5" stroke="#F5F5F5"/>
<mask id="mask2_632_383" style="mask-type:luminance" maskUnits="userSpaceOnUse" x="35" y="110" width="21" height="22">
<path d="M55.2923 120.995C55.2923 126.567 50.8814 131.065 45.4646 131.065C40.0478 131.065 35.637 126.567 35.637 120.995C35.637 115.422 40.0478 110.925 45.4646 110.925C50.8814 110.925 55.2923 115.422 55.2923 120.995Z" fill="white" stroke="white"/>
</mask>
<g mask="url(#mask2_632_383)">
<path d="M38.5166 112.044C38.5166 112.044 40.3378 116.706 45.2618 119.655C50.1859 122.604 58.6739 121.297 58.6739 121.297" stroke="#F5F5F5" stroke-linecap="round" stroke-linejoin="round"/>
<path d="M36.4233 114.643C36.4233 114.643 38.2445 119.305 43.1686 122.255C48.088 125.204 56.5807 123.897 56.5807 123.897" stroke="#F5F5F5" stroke-linecap="round" stroke-linejoin="round"/>
<path d="M35.1094 116.814C35.1094 116.814 36.9305 121.476 41.8546 124.425C46.7787 127.374 55.2667 126.067 55.2667 126.067" stroke="#F5F5F5" stroke-linecap="round" stroke-linejoin="round"/>
<path d="M47.0737 126.124C48.6782 129.894 51.0987 132.952 51.0987 132.952" stroke="#F5F5F5" stroke-linecap="round" stroke-linejoin="round"/>
<path d="M50.5637 126.836C52.1682 130.607 54.5887 133.664 54.5887 133.664" stroke="#F5F5F5" stroke-linecap="round" stroke-linejoin="round"/>
<path d="M48.6735 110.482C48.6735 110.482 47.5301 111.996 46.6541 114.526" stroke="#F5F5F5" stroke-linecap="round" stroke-linejoin="round"/>
<path d="M43.7078 125.326C45.3076 129.219 47.8434 132.423 47.8434 132.423" stroke="#F5F5F5" stroke-linecap="round" stroke-linejoin="round"/>
<path d="M45.4229 109.948C45.4229 109.948 43.4496 112.558 42.7073 116.654" stroke="#F5F5F5" stroke-linecap="round" stroke-linejoin="round"/>
<path d="M41.3242 125.525C42.9287 129.3 45.3539 132.367 45.3539 132.367" stroke="#F5F5F5" stroke-linecap="round" stroke-linejoin="round"/>
<path d="M42.9286 109.892C42.9286 109.892 41.3656 111.963 40.4988 115.309" stroke="#F5F5F5" stroke-linecap="round" stroke-linejoin="round"/>
<path d="M42.0573 124.605C39.4247 127.525 37.7234 130.8 37.7234 130.8" stroke="#F5F5F5" stroke-linecap="round" stroke-linejoin="round"/>
<path d="M56.9954 119.74C56.9954 119.74 52.4817 118.522 47.3962 120.584" stroke="#F5F5F5" stroke-linecap="round" stroke-linejoin="round"/>
<path d="M39.8166 123.085C38.0277 125.426 36.9304 127.535 36.9304 127.535" stroke="#F5F5F5" stroke-linecap="round" stroke-linejoin="round"/>
<path d="M56.1979 116.47C56.1979 116.47 51.4536 115.191 46.2068 117.479C45.4461 117.81 44.7084 118.258 44.0076 118.782" stroke="#F5F5F5" stroke-linecap="round" stroke-linejoin="round"/>
<path d="M38.2306 121.618C36.8382 123.571 36.0129 125.161 36.0129 125.161" stroke="#F5F5F5" stroke-linecap="round" stroke-linejoin="round"/>
<path d="M55.2804 114.101C55.2804 114.101 50.5362 112.822 45.2894 115.111C44.1736 115.597 43.1132 116.333 42.1357 117.187" stroke="#F5F5F5" stroke-linecap="round" stroke-linejoin="round"/>
</g>
<path d="M45.4646 131.565C51.1684 131.565 55.7923 126.832 55.7923 120.995C55.7923 115.157 51.1684 110.425 45.4646 110.425C39.7608 110.425 35.137 115.157 35.137 120.995C35.137 126.832 39.7608 131.565 45.4646 131.565Z" stroke="#F5F5F5" stroke-width="1.5" stroke-linecap="round" stroke-linejoin="round"/>
<path d="M51.8088 131.569C53.6531 131.569 53.6531 129.531 55.4927 129.531C57.3323 129.531 57.3323 131.569 59.1765 131.569C61.0207 131.569 61.0207 129.531 62.8603 129.531C64.6999 129.531 64.7045 131.569 66.5442 131.569" stroke="#F5F5F5" stroke-width="1.5" stroke-linecap="round" stroke-linejoin="round"/>
<path d="M45.6628 131.569H51.8087" stroke="#F5F5F5" stroke-width="1.5" stroke-linecap="round" stroke-linejoin="round"/>
<path d="M13.2845 119.677C13.2698 119.676 13.247 119.67 13.2153 119.652C13.2047 119.645 13.185 119.629 13.1631 119.598C13.144 119.571 13.1277 119.54 13.1162 119.508C13.1111 119.469 13.1059 119.43 13.1007 119.391C13.1014 119.388 13.1022 119.385 13.1027 119.384C13.1033 119.382 13.1037 119.382 13.1039 119.381C13.22 119.225 13.3353 119.068 13.4498 118.911C13.4676 119.045 13.4854 119.18 13.5032 119.315L13.5069 119.343V119.352L13.5111 119.385C13.5189 119.444 13.5183 119.496 13.5126 119.54C13.4483 119.618 13.3842 119.657 13.3401 119.671C13.318 119.678 13.3001 119.679 13.2845 119.677ZM13.2579 117.457C13.1425 117.622 13.0264 117.786 12.9095 117.95C12.7442 116.703 12.5791 115.456 12.4141 114.209C12.5572 114.243 12.7001 114.278 12.8429 114.313C12.9813 115.361 13.1196 116.409 13.2579 117.457ZM14.3827 118.336C14.3551 118.128 14.3276 117.919 14.3 117.711C14.8652 116.894 15.4128 116.066 15.9509 115.235C16.0893 115.282 16.2274 115.331 16.3653 115.38C15.7198 116.38 15.0641 117.368 14.3827 118.336ZM12.7024 113.25C12.5598 113.216 12.417 113.183 12.274 113.15C12.2532 112.993 12.2324 112.836 12.2116 112.679C12.3546 112.71 12.4973 112.743 12.6399 112.776C12.6607 112.934 12.6815 113.092 12.7024 113.25ZM16.9191 114.517C16.7819 114.467 16.6444 114.418 16.5067 114.369C16.5889 114.241 16.6708 114.112 16.7526 113.983C16.8901 114.032 17.0273 114.082 17.1643 114.132C17.0826 114.26 17.0009 114.389 16.9191 114.517ZM11.1744 112.463C11.195 112.619 11.2156 112.775 11.2362 112.93C10.5286 112.791 9.817 112.672 9.10254 112.573C9.41155 112.469 9.72024 112.364 10.0286 112.259C10.4116 112.321 10.7936 112.389 11.1744 112.463ZM12.5001 111.718C12.3577 111.687 12.2151 111.655 12.0723 111.625C12.0688 111.599 12.0653 111.572 12.0618 111.545C12.1941 111.498 12.3262 111.45 12.4583 111.403C12.4722 111.508 12.4862 111.613 12.5001 111.718ZM13.746 113.514C13.725 113.355 13.7039 113.196 13.6829 113.036C14.3866 113.222 15.0852 113.427 15.778 113.652C15.6954 113.782 15.6128 113.911 15.53 114.041C14.9395 113.851 14.3447 113.675 13.746 113.514ZM17.7028 113.265C17.5693 113.215 17.4354 113.166 17.3014 113.118C17.3442 113.05 17.3871 112.982 17.4299 112.914L17.7028 113.265ZM17.8738 114.88C17.9552 114.752 18.0364 114.624 18.1175 114.496C18.385 114.602 18.6514 114.712 18.9167 114.824L19.4915 115.562C18.9573 115.322 18.4179 115.095 17.8738 114.88ZM19.1693 112.834L20.3648 114.369C20.0934 114.245 19.8208 114.124 19.547 114.006L18.9295 113.213C19.0095 113.086 19.0894 112.96 19.1693 112.834ZM21.1379 116.049L20.8821 115.72C21.0045 115.78 21.1267 115.841 21.2486 115.902L21.1379 116.049ZM21.1678 107.953C20.4515 108.989 19.7631 110.042 19.0867 111.1L18.8084 110.742C19.3428 109.909 19.8826 109.081 20.4366 108.266C20.6806 108.162 20.9243 108.058 21.1678 107.953ZM21.5259 106.707C21.555 106.667 21.5842 106.627 21.6134 106.586L21.6701 106.644C21.622 106.665 21.5739 106.686 21.5259 106.707ZM16.8275 108.198C17.9716 107.741 19.1105 107.27 20.2437 106.785C20.0864 107.009 19.9305 107.234 19.7759 107.46C18.8898 107.834 18.0006 108.201 17.1082 108.559L16.8275 108.198ZM12.5275 104.303L15.2175 107.758C15.0806 107.811 14.9436 107.865 14.8066 107.917L12.6372 105.131C12.6007 104.855 12.5641 104.579 12.5275 104.303ZM11.7341 109.065C11.5503 107.674 11.3666 106.282 11.1829 104.891L11.6815 105.532C11.8313 106.662 11.9808 107.792 12.1303 108.921C11.9983 108.97 11.8662 109.017 11.7341 109.065ZM11.4073 103.463C11.412 103.499 11.4167 103.534 11.4215 103.57L11.3602 103.491L11.4073 103.463ZM8.96344 111.092C9.61198 110.873 10.2591 110.65 10.9047 110.423C10.9246 110.573 10.9445 110.724 10.9644 110.874C10.6232 110.995 10.2815 111.114 9.9395 111.232C9.61484 111.181 9.28946 111.135 8.96344 111.092ZM12.3242 110.388C12.1921 110.436 12.0599 110.483 11.9277 110.531C11.9079 110.381 11.888 110.23 11.8681 110.08C12.0003 110.032 12.1325 109.985 12.2645 109.937C12.2844 110.087 12.3043 110.237 12.3242 110.388ZM18.2766 112.374L17.9978 112.016C18.0778 111.89 18.1579 111.763 18.2379 111.637L18.5166 111.995C18.4365 112.122 18.3565 112.248 18.2766 112.374ZM15.8585 108.581L16.1403 108.943C16.0038 108.997 15.8672 109.051 15.7305 109.104L15.4481 108.741C15.585 108.688 15.7218 108.635 15.8585 108.581ZM13.2862 110.034C13.2663 109.884 13.2465 109.734 13.2266 109.584C13.6426 109.43 14.058 109.274 14.4726 109.116L14.7562 109.48C14.2671 109.668 13.7771 109.852 13.2862 110.034ZM17.5855 110.799C17.5053 110.926 17.4252 111.052 17.3452 111.178L16.3713 109.927C16.5078 109.873 16.6443 109.82 16.7806 109.766L17.5855 110.799ZM7.77537 111.96C7.60188 112.017 7.4283 112.073 7.25462 112.13L7.22523 111.907C7.40878 111.924 7.59216 111.941 7.77537 111.96Z" fill="#F5F5F5" stroke="#F5F5F5"/>
<path d="M40.1394 104.14C40.2608 104.14 40.3206 104.182 40.3581 104.227C40.4051 104.283 40.4416 104.376 40.4416 104.489C40.4416 104.602 40.4051 104.696 40.3581 104.752C40.3206 104.796 40.2608 104.838 40.1394 104.838C40.0179 104.838 39.9582 104.796 39.9206 104.752C39.8737 104.696 39.8372 104.602 39.8372 104.489C39.8372 104.376 39.8737 104.283 39.9206 104.227C39.9582 104.182 40.0179 104.14 40.1394 104.14Z" fill="#F5F5F5" stroke="#F5F5F5"/>
<path d="M37.5159 98.0716C37.6373 98.0716 37.697 98.1137 37.7346 98.1585C37.7816 98.2145 37.8181 98.3077 37.8181 98.4209C37.8181 98.5342 37.7816 98.6274 37.7346 98.6834C37.697 98.7281 37.6373 98.7703 37.5159 98.7703C37.3944 98.7703 37.3347 98.7281 37.2971 98.6834C37.2501 98.6274 37.2136 98.5342 37.2136 98.4209C37.2136 98.3077 37.2501 98.2145 37.2971 98.1585C37.3347 98.1137 37.3944 98.0716 37.5159 98.0716Z" fill="#F5F5F5" stroke="#F5F5F5"/>
<path d="M34.1133 103.446C34.2347 103.446 34.2945 103.488 34.332 103.533C34.379 103.589 34.4155 103.682 34.4155 103.795C34.4155 103.909 34.379 104.002 34.332 104.058C34.2945 104.103 34.2347 104.145 34.1133 104.145C33.9918 104.145 33.9321 104.103 33.8945 104.058C33.8475 104.002 33.811 103.909 33.811 103.795C33.811 103.682 33.8475 103.589 33.8945 103.533C33.9321 103.488 33.9918 103.446 34.1133 103.446Z" fill="#F5F5F5" stroke="#F5F5F5"/>
<path d="M-8.27612 131.569C-6.4319 131.569 -6.43191 129.531 -4.59229 129.531C-2.75268 129.531 -2.75269 131.569 -0.908463 131.569C0.93576 131.569 0.935755 129.531 2.77537 129.531C4.61498 129.531 4.61959 131.569 6.4592 131.569" stroke="#F5F5F5" stroke-width="1.5" stroke-linecap="round" stroke-linejoin="round"/>
<path d="M120.893 83.0052C121.234 81.415 120.497 79.7447 119.113 78.9472C117.564 78.0554 115.739 78.4282 114.627 79.622C114.18 80.0986 113.502 80.2637 112.903 80.0231L103.779 76.3331C103.179 76.0877 102.792 75.4932 102.787 74.8326C102.774 73.1811 101.69 71.6334 99.9612 71.1993C98.4167 70.8123 96.7615 71.5201 95.95 72.9168C95.2907 74.0493 95.2769 75.3375 95.7425 76.4039C94.6913 76.8569 93.8476 77.8053 93.5664 79.0888C93.2206 80.6931 93.9767 82.3824 95.3829 83.1751C96.9782 84.0669 98.8547 83.6375 99.9474 82.3493C100.372 81.8492 101.077 81.7029 101.681 81.9483L110.685 85.5863C111.289 85.8317 111.704 86.4262 111.681 87.0916C111.621 88.795 112.7 90.4229 114.461 90.8853C116.015 91.2958 117.698 90.588 118.519 89.1772C119.173 88.0447 119.187 86.7612 118.726 85.6948C119.777 85.2419 120.626 84.2934 120.902 83.0052H120.893Z" stroke="#F5F5F5" stroke-linecap="round" stroke-linejoin="round"/>
<path d="M118.717 85.6995L118.108 83.9348" stroke="#F5F5F5" stroke-width="2.88" stroke-linecap="round" stroke-linejoin="round"/>
<path d="M96.1713 77.7392L95.5627 75.9745" stroke="#F5F5F5" stroke-width="2.88" stroke-linecap="round" stroke-linejoin="round"/>
<path d="M103.411 51.6726C103.397 51.671 103.374 51.6656 103.342 51.6473C103.332 51.6403 103.312 51.6238 103.29 51.5933C103.271 51.5668 103.255 51.5357 103.243 51.5036C103.238 51.4645 103.233 51.4255 103.228 51.3864C103.228 51.3829 103.229 51.3806 103.23 51.3792C103.23 51.3776 103.231 51.3769 103.231 51.3766C103.347 51.2203 103.462 51.0633 103.577 50.9057C103.596 51.05 103.615 51.1942 103.634 51.3384V51.3476L103.638 51.38C103.646 51.4394 103.645 51.4915 103.64 51.5353C103.575 51.6133 103.511 51.6523 103.467 51.6662C103.445 51.6732 103.427 51.6744 103.411 51.6726ZM103.036 49.945C102.871 48.6979 102.706 47.4511 102.541 46.2043C102.684 46.2382 102.827 46.273 102.97 46.3086C103.108 47.3566 103.247 48.4046 103.385 49.4525C103.27 49.6172 103.153 49.7814 103.036 49.945ZM104.427 49.7058C104.992 48.8892 105.54 48.0617 106.078 47.23C106.216 47.2777 106.354 47.3262 106.492 47.3756C105.847 48.3748 105.191 49.3631 104.51 50.3317C104.482 50.1231 104.455 49.9144 104.427 49.7058ZM102.829 45.245C102.687 45.211 102.544 45.1778 102.401 45.1454C102.38 44.9883 102.359 44.8311 102.339 44.674C102.482 44.7058 102.624 44.7384 102.767 44.7718C102.788 44.9295 102.808 45.0872 102.829 45.245ZM101.301 44.4582C101.322 44.614 101.343 44.7699 101.363 44.9257C100.656 44.7862 99.944 44.667 99.2295 44.5683C99.5385 44.4645 99.8472 44.3598 100.156 44.254C100.539 44.3163 100.921 44.3844 101.301 44.4582ZM102.627 43.7138C102.485 43.6818 102.342 43.6507 102.199 43.6203C102.196 43.5938 102.192 43.5673 102.189 43.5407C102.321 43.4933 102.453 43.4457 102.585 43.3979C102.599 43.5032 102.613 43.6085 102.627 43.7138ZM103.873 45.5096C103.852 45.3502 103.831 45.1908 103.81 45.0314C104.514 45.217 105.212 45.4225 105.905 45.6476C105.822 45.7772 105.74 45.9066 105.657 46.0359C105.066 45.846 104.472 45.6705 103.873 45.5096ZM107.046 46.5124C106.909 46.4623 106.771 46.4131 106.634 46.3647C106.716 46.236 106.798 46.1074 106.88 45.9787C107.017 46.0274 107.154 46.0769 107.291 46.1272C107.21 46.2557 107.128 46.3841 107.046 46.5124ZM109.618 47.5575C109.084 47.3175 108.545 47.09 108.001 46.875C108.082 46.7471 108.163 46.6193 108.244 46.4914C108.512 46.5977 108.778 46.7069 109.044 46.8192L109.618 47.5575ZM109.296 44.8289L110.492 46.3642C110.22 46.24 109.948 46.1189 109.674 46.001L109.056 45.208C109.136 45.0815 109.216 44.9551 109.296 44.8289ZM111.265 48.0443L111.009 47.7157C111.131 47.7757 111.254 47.8364 111.376 47.8977L111.265 48.0443ZM111.295 39.948C110.578 40.9841 109.89 42.0377 109.214 43.095L108.935 42.7376C109.47 41.9038 110.01 41.0765 110.564 40.2609C110.808 40.1572 111.051 40.0529 111.295 39.948ZM111.653 38.7025C111.682 38.6621 111.711 38.6218 111.74 38.5815L111.797 38.6394C111.749 38.6605 111.701 38.6815 111.653 38.7025ZM106.954 40.1934C108.099 39.7362 109.237 39.2651 110.371 38.7799C110.213 39.004 110.058 39.229 109.903 39.4548C109.017 39.8294 108.128 40.1959 107.235 40.554L106.954 40.1934ZM102.654 36.2984L105.344 39.7534C105.208 39.8067 105.071 39.8598 104.934 39.9127L102.764 37.1265C102.728 36.8505 102.691 36.5745 102.654 36.2984ZM99.0904 43.0872C99.7389 42.8685 100.386 42.6454 101.032 42.418C101.052 42.5686 101.071 42.7192 101.091 42.8697C100.75 42.9901 100.409 43.1092 100.066 43.2272C99.7418 43.1765 99.4164 43.1298 99.0904 43.0872ZM102.451 42.3828C102.319 42.4308 102.187 42.4786 102.055 42.5263C102.035 42.3759 102.015 42.2255 101.995 42.0752C102.127 42.0276 102.259 41.9799 102.391 41.932C102.411 42.0823 102.431 42.2325 102.451 42.3828ZM107.83 45.2602C107.696 45.2104 107.562 45.1613 107.428 45.1129C107.471 45.0451 107.514 44.9774 107.557 44.9096L107.83 45.2602ZM108.644 43.9905C108.563 44.1168 108.483 44.2432 108.404 44.3694L108.125 44.0114C108.205 43.885 108.285 43.7588 108.365 43.6326L108.644 43.9905ZM105.985 40.5766L106.267 40.9386C106.131 40.9924 105.994 41.0459 105.857 41.0993L105.575 40.7367C105.712 40.6835 105.849 40.6302 105.985 40.5766ZM101.534 35.4582C101.539 35.4938 101.544 35.5294 101.548 35.5651L101.487 35.4863L101.534 35.4582ZM101.808 37.5268C101.958 38.6569 102.108 39.7869 102.257 40.9167C102.125 40.9648 101.993 41.0127 101.861 41.0605L101.808 37.5268ZM103.413 42.0296C103.393 41.8795 103.373 41.7294 103.354 41.5793C103.77 41.4252 104.185 41.2693 104.6 41.1115L104.883 41.4758C104.394 41.6629 103.904 41.8475 103.413 42.0296ZM107.712 42.7947C107.632 42.9208 107.552 43.047 107.472 43.1731L106.498 41.9223C106.635 41.8687 106.771 41.815 106.908 41.761L107.712 42.7947ZM97.9023 43.9551C97.7288 44.012 97.5553 44.0686 97.3816 44.1249L97.3522 43.9026C97.5357 43.9188 97.7191 43.9363 97.9023 43.9551Z" fill="#F5F5F5" stroke="#F5F5F5"/>
<path d="M83.3415 95.0547L83.0028 95.0192L82.8458 95.3214C82.2619 96.4446 81.5107 96.9404 80.8869 97.0111C80.2903 97.0787 79.6527 96.7743 79.2087 95.9322C79.0076 95.5507 78.927 95.0303 78.9589 94.4158C78.9904 93.8072 79.13 93.1478 79.3264 92.5227C79.5226 91.8985 79.7702 91.325 80.0069 90.8905C80.1255 90.6728 80.237 90.498 80.3329 90.372C80.4221 90.2549 80.4745 90.2112 80.4852 90.2023C80.4859 90.2017 80.4864 90.2013 80.4868 90.201C80.4872 90.2009 80.4879 90.2006 80.4888 90.2004C80.5021 90.1962 80.5655 90.1762 80.7076 90.1651C80.8619 90.1531 81.0647 90.1545 81.3066 90.1734C81.7895 90.2113 82.3916 90.3164 83.0068 90.4929C83.6228 90.6698 84.2348 90.9135 84.7459 91.2207C85.2614 91.5305 85.6392 91.8838 85.8389 92.2643C86.2695 93.0846 86.1437 93.8063 85.7206 94.303C85.2828 94.817 84.4541 95.1714 83.3415 95.0547Z" fill="#F5F5F5" stroke="#F5F5F5"/>
<path d="M77.791 87.363C78.2088 87.7834 78.4515 88.2756 78.5236 88.7136C78.5959 89.1523 78.4952 89.4956 78.2894 89.7098C78.0835 89.9241 77.7499 90.0328 77.32 89.9662C76.8909 89.8998 76.406 89.6596 75.9882 89.2392C75.5705 88.8188 75.3278 88.3266 75.2556 87.8886C75.1834 87.4498 75.284 87.1066 75.4899 86.8923C75.6957 86.6781 76.0294 86.5693 76.4592 86.6359C76.8884 86.7024 77.3733 86.9425 77.791 87.363Z" fill="#F5F5F5" stroke="#F5F5F5"/>
<path d="M76.2389 91.6143C77.0533 91.9435 77.324 92.6419 77.1638 93.0572C77.0035 93.4724 76.3396 93.793 75.5252 93.4639C74.7108 93.1347 74.44 92.4363 74.6003 92.021C74.7605 91.6058 75.4244 91.2852 76.2389 91.6143Z" fill="#F5F5F5" stroke="#F5F5F5"/>
<path d="M82.1406 85.8249C82.2535 86.4168 82.1813 86.966 81.9981 87.3705C81.8144 87.7763 81.5427 87.997 81.2615 88.0532C80.9803 88.1094 80.6474 88.0095 80.328 87.7043C80.0096 87.4 79.7408 86.919 79.6278 86.3271C79.5149 85.7352 79.5871 85.186 79.7703 84.7815C79.954 84.3756 80.2257 84.1549 80.5069 84.0987C80.7881 84.0425 81.121 84.1424 81.4404 84.4477C81.7588 84.7519 82.0276 85.233 82.1406 85.8249Z" fill="#F5F5F5" stroke="#F5F5F5"/>
<path d="M85.1979 86.1787C85.408 86.224 85.6098 86.3832 85.7468 86.6707C85.8841 86.9587 85.9398 87.35 85.8529 87.7713C85.7661 88.1926 85.5608 88.5276 85.3215 88.7343C85.0827 88.9407 84.8353 89.0029 84.6253 88.9575C84.4152 88.9122 84.2134 88.753 84.0764 88.4655C83.9391 88.1775 83.8834 87.7862 83.9702 87.3649C84.0571 86.9436 84.2624 86.6086 84.5017 86.4019C84.7405 86.1955 84.9879 86.1333 85.1979 86.1787Z" fill="#F5F5F5" stroke="#F5F5F5"/>
<path d="M60.8084 83.0052C61.1496 81.415 60.4119 79.7447 59.0287 78.9472C57.4796 78.0554 55.6538 78.4282 54.5427 79.622C54.0955 80.0986 53.4177 80.2637 52.8183 80.0231L43.694 76.3331C43.0947 76.0877 42.7074 75.4932 42.7028 74.8326C42.6889 73.1811 41.6055 71.6334 39.8765 71.1993C38.332 70.8123 36.6768 71.5201 35.8653 72.9168C35.206 74.0493 35.1922 75.3375 35.6578 76.4039C34.6066 76.8569 33.7629 77.8053 33.4817 79.0888C33.1359 80.6931 33.892 82.3824 35.2982 83.1751C36.8935 84.0669 38.7699 83.6375 39.8627 82.3493C40.2868 81.8492 40.9922 81.7029 41.5962 81.9483L50.6007 85.5863C51.2046 85.8317 51.6196 86.4262 51.5965 87.0916C51.5366 88.795 52.6155 90.4229 54.3767 90.8853C55.9305 91.2958 57.6133 90.588 58.434 89.1772C59.0887 88.0447 59.1025 86.7612 58.6415 85.6948C59.6927 85.2419 60.541 84.2934 60.8176 83.0052H60.8084Z" stroke="#F5F5F5" stroke-linecap="round" stroke-linejoin="round"/>
<path d="M58.6323 85.6995L58.0237 83.9348" stroke="#F5F5F5" stroke-width="2.88" stroke-linecap="round" stroke-linejoin="round"/>
<path d="M36.0912 77.7392L35.478 75.9745" stroke="#F5F5F5" stroke-width="2.88" stroke-linecap="round" stroke-linejoin="round"/>
<mask id="mask3_632_383" style="mask-type:luminance" maskUnits="userSpaceOnUse" x="65" y="42" width="21" height="22">
<path d="M85.3345 52.9948C85.3345 58.5671 80.9236 63.0645 75.5068 63.0645C70.09 63.0645 65.6792 58.5671 65.6792 52.9948C65.6792 47.4225 70.09 42.9251 75.5068 42.9251C80.9236 42.9251 85.3345 47.4225 85.3345 52.9948Z" fill="white" stroke="white"/>
</mask>
<g mask="url(#mask3_632_383)">
<path d="M68.5588 44.0435C68.5588 44.0435 70.38 48.7055 75.3041 51.6547C80.2282 54.6038 88.7162 53.2968 88.7162 53.2968" stroke="#F5F5F5" stroke-linecap="round" stroke-linejoin="round"/>
<path d="M66.4658 46.6435C66.4658 46.6435 68.287 51.3055 73.2111 54.2547C78.1351 57.2038 86.6232 55.8967 86.6232 55.8967" stroke="#F5F5F5" stroke-linecap="round" stroke-linejoin="round"/>
<path d="M65.1516 48.8141C65.1516 48.8141 66.9728 53.4761 71.8969 56.4253C76.8209 59.3744 85.309 58.0673 85.309 58.0673" stroke="#F5F5F5" stroke-linecap="round" stroke-linejoin="round"/>
<path d="M77.1162 58.1239C78.7207 61.8941 81.1412 64.9518 81.1412 64.9518" stroke="#F5F5F5" stroke-linecap="round" stroke-linejoin="round"/>
<path d="M80.6062 58.8365C82.2107 62.6066 84.6312 65.6643 84.6312 65.6643" stroke="#F5F5F5" stroke-linecap="round" stroke-linejoin="round"/>
<path d="M78.716 42.477C78.716 42.477 77.5725 43.9917 76.6965 46.5208" stroke="#F5F5F5" stroke-linecap="round" stroke-linejoin="round"/>
<path d="M73.7502 57.3265C75.3501 61.2193 77.8859 64.4233 77.8859 64.4233" stroke="#F5F5F5" stroke-linecap="round" stroke-linejoin="round"/>
<path d="M75.4656 41.9484C75.4656 41.9484 73.4923 44.5578 72.75 48.6536" stroke="#F5F5F5" stroke-linecap="round" stroke-linejoin="round"/>
<path d="M71.3667 57.5247C72.9712 61.2996 75.3963 64.3667 75.3963 64.3667" stroke="#F5F5F5" stroke-linecap="round" stroke-linejoin="round"/>
<path d="M72.971 41.8919C72.971 41.8919 71.408 43.9634 70.5413 47.3089" stroke="#F5F5F5" stroke-linecap="round" stroke-linejoin="round"/>
<path d="M72.0995 56.6045C69.4669 59.5253 67.7656 62.8001 67.7656 62.8001" stroke="#F5F5F5" stroke-linecap="round" stroke-linejoin="round"/>
<path d="M87.0333 51.7396C87.0333 51.7396 82.5195 50.5222 77.4341 52.5843" stroke="#F5F5F5" stroke-linecap="round" stroke-linejoin="round"/>
<path d="M69.8589 55.0851C68.07 57.4256 66.9727 59.5348 66.9727 59.5348" stroke="#F5F5F5" stroke-linecap="round" stroke-linejoin="round"/>
<path d="M86.2404 48.4696C86.2404 48.4696 81.4961 47.1909 76.2493 49.4794C75.4885 49.8097 74.7509 50.258 74.05 50.7818" stroke="#F5F5F5" stroke-linecap="round" stroke-linejoin="round"/>
<path d="M68.2729 53.6176C66.8805 55.5712 66.0552 57.1613 66.0552 57.1613" stroke="#F5F5F5" stroke-linecap="round" stroke-linejoin="round"/>
<path d="M85.3183 46.1009C85.3183 46.1009 80.574 44.8221 75.3272 47.1107C74.2114 47.5967 73.151 48.3328 72.1736 49.1869" stroke="#F5F5F5" stroke-linecap="round" stroke-linejoin="round"/>
</g>
<path d="M75.5068 63.5645C81.2106 63.5645 85.8345 58.8323 85.8345 52.9948C85.8345 47.1573 81.2106 42.4251 75.5068 42.4251C69.803 42.4251 65.1792 47.1573 65.1792 52.9948C65.1792 58.8323 69.803 63.5645 75.5068 63.5645Z" stroke="#F5F5F5" stroke-width="1.5" stroke-linecap="round" stroke-linejoin="round"/>
<path d="M81.8511 63.5645C83.6953 63.5645 83.6953 61.5261 85.5349 61.5261C87.3745 61.5261 87.3745 63.5645 89.2187 63.5645C91.063 63.5645 91.063 61.5261 92.9026 61.5261C94.7422 61.5261 94.7468 63.5645 96.5864 63.5645" stroke="#F5F5F5" stroke-width="1.5" stroke-linecap="round" stroke-linejoin="round"/>
<path d="M75.7007 63.5645H81.8512" stroke="#F5F5F5" stroke-width="1.5" stroke-linecap="round" stroke-linejoin="round"/>
<path d="M43.3267 51.6726C43.312 51.671 43.2892 51.6656 43.2575 51.6473C43.247 51.6403 43.2273 51.6238 43.2054 51.5933C43.1862 51.5668 43.17 51.5357 43.1585 51.5036C43.1533 51.4645 43.1481 51.4255 43.1429 51.3864C43.1437 51.3829 43.1444 51.3806 43.1449 51.3792C43.1455 51.3776 43.1459 51.3769 43.1461 51.3766C43.2623 51.2203 43.3776 51.0633 43.492 50.9057C43.511 51.05 43.5301 51.1942 43.5491 51.3384V51.3476L43.5534 51.38C43.5612 51.4394 43.5605 51.4915 43.5548 51.5353C43.4905 51.6133 43.4265 51.6523 43.3823 51.6662C43.3602 51.6732 43.3424 51.6744 43.3267 51.6726ZM42.9517 49.945C42.7864 48.6979 42.6213 47.4511 42.4563 46.2043C42.5994 46.2382 42.7424 46.273 42.8851 46.3086C43.0235 47.3566 43.1618 48.4046 43.3002 49.4525C43.1848 49.6172 43.0687 49.7814 42.9517 49.945ZM44.3423 49.7058C44.9074 48.8892 45.4551 48.0617 45.9931 47.23C46.1315 47.2777 46.2696 47.3262 46.4075 47.3756C45.762 48.3748 45.1063 49.3631 44.4249 50.3317C44.3974 50.1231 44.3698 49.9144 44.3423 49.7058ZM42.7446 45.245C42.602 45.211 42.4592 45.1778 42.3162 45.1454C42.2954 44.9883 42.2747 44.8311 42.2539 44.674C42.3968 44.7058 42.5395 44.7384 42.6821 44.7718C42.7029 44.9295 42.7238 45.0872 42.7446 45.245ZM41.2166 44.4582C41.2372 44.614 41.2579 44.7699 41.2785 44.9257C40.5708 44.7862 39.8592 44.667 39.1448 44.5683C39.4538 44.4645 39.7625 44.3598 40.0708 44.254C40.4539 44.3163 40.8358 44.3844 41.2166 44.4582ZM42.5423 43.7138C42.3999 43.6818 42.2573 43.6507 42.1146 43.6203C42.1111 43.5938 42.1076 43.5673 42.1041 43.5407C42.2363 43.4933 42.3685 43.4457 42.5006 43.3979C42.5145 43.5032 42.5284 43.6085 42.5423 43.7138ZM43.7883 45.5096C43.7672 45.3502 43.7461 45.1908 43.7251 45.0314C44.4288 45.217 45.1274 45.4225 45.8202 45.6476C45.7376 45.7772 45.655 45.9066 45.5722 46.0359C44.9818 45.846 44.3869 45.6705 43.7883 45.5096ZM46.9613 46.5124C46.8241 46.4623 46.6867 46.4131 46.549 46.3647C46.6311 46.236 46.713 46.1074 46.7949 45.9787C46.9323 46.0274 47.0695 46.0769 47.2065 46.1272C47.1248 46.2557 47.0431 46.3841 46.9613 46.5124ZM49.5337 47.5575C48.9995 47.3175 48.4601 47.09 47.916 46.875C47.9974 46.7471 48.0786 46.6193 48.1598 46.4914C48.4272 46.5977 48.6936 46.7069 48.9589 46.8192L49.5337 47.5575ZM49.2116 44.8289L50.407 46.3642C50.1356 46.24 49.863 46.1189 49.5892 46.001L48.9718 45.208C49.0517 45.0815 49.1316 44.9551 49.2116 44.8289ZM51.1802 48.0443L50.9243 47.7157C51.0468 47.7757 51.1689 47.8364 51.2909 47.8977L51.1802 48.0443ZM51.21 39.948C50.4937 40.9841 49.8053 42.0377 49.1289 43.095L48.8507 42.7376C49.3851 41.9038 49.9248 41.0765 50.4788 40.2609C50.7228 40.1572 50.9665 40.0529 51.21 39.948ZM51.5681 38.7025C51.5973 38.6621 51.6265 38.6218 51.6557 38.5815L51.7123 38.6394C51.6643 38.6605 51.6162 38.6815 51.5681 38.7025ZM46.8697 40.1934C48.0139 39.7362 49.1527 39.2651 50.286 38.7799C50.1287 39.004 49.9728 39.229 49.8182 39.4548C48.9321 39.8294 48.0428 40.1959 47.1505 40.554L46.8697 40.1934ZM42.5697 36.2984L45.2598 39.7534C45.1228 39.8067 44.9859 39.8598 44.8488 39.9127L42.6794 37.1265C42.6429 36.8505 42.6063 36.5745 42.5697 36.2984ZM39.0057 43.0872C39.6542 42.8685 40.3013 42.6454 40.947 42.418C40.9669 42.5686 40.9868 42.7192 41.0067 42.8697C40.6654 42.9901 40.3238 43.1092 39.9817 43.2272C39.6571 43.1765 39.3317 43.1298 39.0057 43.0872ZM42.3664 42.3828C42.2343 42.4308 42.1022 42.4786 41.97 42.5263C41.9501 42.3759 41.9302 42.2255 41.9104 42.0752C42.0426 42.0276 42.1747 41.9799 42.3068 41.932C42.3267 42.0823 42.3465 42.2325 42.3664 42.3828ZM47.7451 45.2602C47.6115 45.2104 47.4777 45.1613 47.3436 45.1129C47.3865 45.0451 47.4293 44.9774 47.4721 44.9096L47.7451 45.2602ZM48.5588 43.9905C48.4787 44.1168 48.3988 44.2431 48.3189 44.3694L48.0401 44.0114C48.1201 43.885 48.2001 43.7588 48.2801 43.6326L48.5588 43.9905ZM45.9007 40.5766L46.1826 40.9386C46.046 40.9924 45.9094 41.0459 45.7727 41.0993L45.4904 40.7366C45.6272 40.6835 45.764 40.6302 45.9007 40.5766ZM41.4495 35.4582C41.4542 35.4938 41.459 35.5294 41.4637 35.565L41.4024 35.4863L41.4495 35.4582ZM41.7237 37.5268C41.8735 38.6569 42.0231 39.7869 42.1725 40.9167C42.0405 40.9648 41.9085 41.0127 41.7763 41.0605L41.7237 37.5268ZM43.3284 42.0296C43.3085 41.8795 43.2887 41.7294 43.2688 41.5793C43.6848 41.4252 44.1002 41.2693 44.5149 41.1115L44.7985 41.4758C44.3093 41.6629 43.8193 41.8475 43.3284 42.0296ZM47.6277 42.7947C47.5475 42.9208 47.4674 43.047 47.3874 43.1731L46.4135 41.9223C46.55 41.8687 46.6865 41.815 46.8229 41.761L47.6277 42.7947ZM37.8176 43.9551C37.6441 44.012 37.4705 44.0686 37.2969 44.1249L37.2675 43.9026C37.451 43.9188 37.6344 43.9363 37.8176 43.9551Z" fill="#F5F5F5" stroke="#F5F5F5"/>
<path d="M71.3484 77.3899C71.4698 77.3899 71.5296 77.4321 71.5671 77.4768C71.6141 77.5328 71.6506 77.626 71.6506 77.7392C71.6506 77.8525 71.6141 77.9457 71.5671 78.0017C71.5296 78.0464 71.4698 78.0886 71.3484 78.0886C71.2269 78.0886 71.1672 78.0464 71.1296 78.0017C71.0826 77.9457 71.0461 77.8525 71.0461 77.7392C71.0461 77.626 71.0826 77.5328 71.1296 77.4768C71.1672 77.4321 71.2269 77.3899 71.3484 77.3899Z" fill="#F5F5F5" stroke="#F5F5F5"/>
<path d="M75.1013 77.3899C75.2228 77.3899 75.2825 77.4321 75.3201 77.4768C75.367 77.5328 75.4035 77.626 75.4035 77.7392C75.4035 77.8525 75.367 77.9457 75.3201 78.0017C75.2825 78.0464 75.2228 78.0886 75.1013 78.0886C74.9799 78.0886 74.9201 78.0464 74.8826 78.0017C74.8356 77.9457 74.7991 77.8525 74.7991 77.7392C74.7991 77.626 74.8356 77.5328 74.8826 77.4768C74.9201 77.4321 74.9799 77.3899 75.1013 77.3899Z" fill="#F5F5F5" stroke="#F5F5F5"/>
<path d="M70.1819 36.1397C70.3033 36.1397 70.3631 36.1819 70.4006 36.2266C70.4476 36.2826 70.4841 36.3758 70.4841 36.4891C70.4841 36.6023 70.4476 36.6955 70.4006 36.7515C70.3631 36.7962 70.3033 36.8384 70.1819 36.8384C70.0604 36.8384 70.0007 36.7962 69.9631 36.7515C69.9161 36.6955 69.8796 36.6023 69.8796 36.4891C69.8796 36.3758 69.9161 36.2826 69.9631 36.2266C70.0007 36.1819 70.0604 36.1397 70.1819 36.1397Z" fill="#F5F5F5" stroke="#F5F5F5"/>
<path d="M67.5583 30.0716C67.6798 30.0716 67.7395 30.1137 67.7771 30.1585C67.8241 30.2145 67.8606 30.3077 67.8606 30.4209C67.8606 30.5341 67.8241 30.6274 67.7771 30.6833C67.7395 30.7281 67.6798 30.7703 67.5583 30.7703C67.4369 30.7703 67.3772 30.7281 67.3396 30.6833C67.2926 30.6274 67.2561 30.5341 67.2561 30.4209C67.2561 30.3077 67.2926 30.2145 67.3396 30.1585C67.3772 30.1137 67.4369 30.0716 67.5583 30.0716Z" fill="#F5F5F5" stroke="#F5F5F5"/>
<path d="M64.1558 35.4461C64.2772 35.4461 64.3369 35.4883 64.3745 35.533C64.4215 35.589 64.458 35.6822 64.458 35.7954C64.458 35.9087 64.4215 36.0019 64.3745 36.0578C64.3369 36.1026 64.2772 36.1448 64.1558 36.1448C64.0343 36.1448 63.9746 36.1026 63.937 36.0578C63.89 36.0019 63.8535 35.9087 63.8535 35.7954C63.8535 35.6822 63.89 35.589 63.937 35.533C63.9746 35.4883 64.0343 35.4461 64.1558 35.4461Z" fill="#F5F5F5" stroke="#F5F5F5"/>
<path d="M23.2571 95.0547L22.9184 95.0192L22.7613 95.3214C22.1774 96.4446 21.4262 96.9404 20.8024 97.0111C20.2058 97.0787 19.5682 96.7743 19.1243 95.9322C18.9231 95.5507 18.8426 95.0303 18.8744 94.4158C18.9059 93.8072 19.0456 93.1478 19.242 92.5227C19.4381 91.8985 19.6857 91.325 19.9224 90.8905C20.041 90.6728 20.1525 90.498 20.2485 90.372C20.3376 90.2549 20.3901 90.2112 20.4008 90.2023C20.4015 90.2017 20.402 90.2013 20.4023 90.201C20.4028 90.2009 20.4034 90.2006 20.4044 90.2004C20.4176 90.1962 20.481 90.1762 20.6231 90.1651C20.7774 90.1531 20.9802 90.1545 21.2221 90.1734C21.705 90.2113 22.3072 90.3164 22.9223 90.4929C23.5384 90.6698 24.1504 90.9135 24.6614 91.2207C25.1769 91.5305 25.5547 91.8838 25.7545 92.2643C26.185 93.0846 26.0592 93.8063 25.6361 94.303C25.1983 94.817 24.3696 95.1714 23.2571 95.0547Z" fill="#F5F5F5" stroke="#F5F5F5"/>
<path d="M17.7039 87.3624C18.1217 87.7829 18.3644 88.275 18.4365 88.7131C18.5088 89.1518 18.4081 89.4951 18.2022 89.7093C17.9964 89.9235 17.6627 90.0323 17.2329 89.9657C16.8037 89.8992 16.3188 89.6591 15.9011 89.2387C15.4833 88.8182 15.2406 88.3261 15.1685 87.888C15.0962 87.4493 15.1969 87.106 15.4027 86.8918C15.6086 86.6776 15.9422 86.5688 16.3721 86.6354C16.8013 86.7019 17.2862 86.942 17.7039 87.3624Z" fill="#F5F5F5" stroke="#F5F5F5"/>
<path d="M16.1595 91.6145C16.9739 91.9436 17.2447 92.642 17.0844 93.0573C16.9242 93.4725 16.2603 93.7931 15.4458 93.464C14.6314 93.1348 14.3607 92.4364 14.5209 92.0212C14.6812 91.6059 15.3451 91.2853 16.1595 91.6145Z" fill="#F5F5F5" stroke="#F5F5F5"/>
<path d="M22.0585 85.823C22.1715 86.4149 22.0993 86.9641 21.9161 87.3686C21.7324 87.7744 21.4607 87.9951 21.1795 88.0513C20.8983 88.1075 20.5654 88.0076 20.2459 87.7024C19.9275 87.3981 19.6587 86.9171 19.5458 86.3252C19.4328 85.7333 19.5051 85.1841 19.6882 84.7796C19.872 84.3737 20.1437 84.153 20.4249 84.0968C20.7061 84.0406 21.039 84.1405 21.3584 84.4458C21.6768 84.75 21.9456 85.2311 22.0585 85.823Z" fill="#F5F5F5" stroke="#F5F5F5"/>
<path d="M25.1201 86.1808C25.3301 86.2262 25.5319 86.3853 25.6689 86.6729C25.8062 86.9608 25.8619 87.3522 25.7751 87.7735C25.6882 88.1948 25.4829 88.5297 25.2437 88.7365C25.0048 88.9428 24.7574 89.005 24.5474 88.9597C24.3373 88.9143 24.1355 88.7552 23.9985 88.4677C23.8612 88.1797 23.8055 87.7884 23.8924 87.3671C23.9792 86.9458 24.1845 86.6108 24.4238 86.4041C24.6626 86.1977 24.91 86.1355 25.1201 86.1808Z" fill="#F5F5F5" stroke="#F5F5F5"/>
<path d="M0.72833 83.0052C1.06951 81.415 0.331829 79.7447 -1.05134 78.9472C-2.60049 78.0554 -4.42626 78.4282 -5.5374 79.622C-5.98463 80.0986 -6.66237 80.2637 -7.26174 80.0231L-16.3861 76.3331C-16.9854 76.0877 -17.3727 75.4932 -17.3773 74.8326C-17.3911 73.1811 -18.4746 71.6334 -20.2036 71.1993C-21.7481 70.8123 -23.4033 71.5201 -24.2148 72.9168C-24.8741 74.0493 -24.8879 75.3375 -24.4223 76.4039C-25.4735 76.8569 -26.3172 77.8053 -26.5984 79.0888C-26.9442 80.6931 -26.1881 82.3824 -24.7819 83.1751C-23.1866 84.0669 -21.3101 83.6375 -20.2174 82.3493C-19.7933 81.8492 -19.0878 81.7029 -18.4839 81.9483L-9.47942 85.5863C-8.87544 85.8317 -8.4605 86.4262 -8.48355 87.0916C-8.54349 88.795 -7.46464 90.4229 -5.7034 90.8853C-4.14964 91.2958 -2.46677 90.588 -1.64609 89.1772C-0.991391 88.0447 -0.977582 86.7612 -1.43864 85.6948C-0.38743 85.2419 0.460927 84.2934 0.73756 83.0052H0.72833Z" stroke="#F5F5F5" stroke-linecap="round" stroke-linejoin="round"/>
<mask id="mask4_632_383" style="mask-type:luminance" maskUnits="userSpaceOnUse" x="5" y="42" width="21" height="22">
<path d="M25.2544 52.9948C25.2544 58.5671 20.8436 63.0645 15.4268 63.0645C10.0099 63.0645 5.59912 58.5671 5.59912 52.9948C5.59912 47.4225 10.01 42.9251 15.4268 42.9251C20.8436 42.9251 25.2544 47.4225 25.2544 52.9948Z" fill="white" stroke="white"/>
</mask>
<g mask="url(#mask4_632_383)">
<path d="M8.47388 44.0435C8.47388 44.0435 10.295 48.7055 15.2191 51.6547C20.1386 54.6038 28.6312 53.2968 28.6312 53.2968" stroke="#F5F5F5" stroke-linecap="round" stroke-linejoin="round"/>
<path d="M6.38086 46.6435C6.38086 46.6435 8.20203 51.3055 13.1261 54.2547C18.0502 57.2038 26.5382 55.8967 26.5382 55.8967" stroke="#F5F5F5" stroke-linecap="round" stroke-linejoin="round"/>
<path d="M5.06689 48.8141C5.06689 48.8141 6.88807 53.4761 11.8121 56.4253C16.7316 59.3744 25.2242 58.0673 25.2242 58.0673" stroke="#F5F5F5" stroke-linecap="round" stroke-linejoin="round"/>
<path d="M17.0312 58.1239C18.6357 61.8941 21.0563 64.9518 21.0563 64.9518" stroke="#F5F5F5" stroke-linecap="round" stroke-linejoin="round"/>
<path d="M20.5212 58.8365C22.1257 62.6066 24.5463 65.6643 24.5463 65.6643" stroke="#F5F5F5" stroke-linecap="round" stroke-linejoin="round"/>
<path d="M18.6312 42.477C18.6312 42.477 17.4878 43.9917 16.6118 46.5208" stroke="#F5F5F5" stroke-linecap="round" stroke-linejoin="round"/>
<path d="M13.6702 57.3265C15.27 61.2193 17.8058 64.4233 17.8058 64.4233" stroke="#F5F5F5" stroke-linecap="round" stroke-linejoin="round"/>
<path d="M15.3807 41.9484C15.3807 41.9484 13.4073 44.5578 12.665 48.6536" stroke="#F5F5F5" stroke-linecap="round" stroke-linejoin="round"/>
<path d="M11.2817 57.5247C12.8862 61.2996 15.3114 64.3667 15.3114 64.3667" stroke="#F5F5F5" stroke-linecap="round" stroke-linejoin="round"/>
<path d="M12.8863 41.8919C12.8863 41.8919 11.3233 43.9634 10.4565 47.3089" stroke="#F5F5F5" stroke-linecap="round" stroke-linejoin="round"/>
<path d="M12.0197 56.6045C9.38707 59.5253 7.68579 62.8001 7.68579 62.8001" stroke="#F5F5F5" stroke-linecap="round" stroke-linejoin="round"/>
<path d="M26.9532 51.7396C26.9532 51.7396 22.4394 50.5222 17.354 52.5843" stroke="#F5F5F5" stroke-linecap="round" stroke-linejoin="round"/>
<path d="M9.77412 55.0851C7.98523 57.4256 6.88794 59.5348 6.88794 59.5348" stroke="#F5F5F5" stroke-linecap="round" stroke-linejoin="round"/>
<path d="M26.1603 48.4696C26.1603 48.4696 21.416 47.1909 16.1692 49.4794C15.4084 49.8097 14.6708 50.258 13.97 50.7818" stroke="#F5F5F5" stroke-linecap="round" stroke-linejoin="round"/>
<path d="M8.18814 53.6176C6.79575 55.5712 5.97046 57.1613 5.97046 57.1613" stroke="#F5F5F5" stroke-linecap="round" stroke-linejoin="round"/>
<path d="M25.238 46.1009C25.238 46.1009 20.4937 44.8221 15.2469 47.1107C14.1311 47.5967 13.0707 48.3328 12.0933 49.1869" stroke="#F5F5F5" stroke-linecap="round" stroke-linejoin="round"/>
</g>
<path d="M15.4268 63.5645C21.1306 63.5645 25.7544 58.8323 25.7544 52.9948C25.7544 47.1573 21.1306 42.4251 15.4268 42.4251C9.72295 42.4251 5.09912 47.1573 5.09912 52.9948C5.09912 58.8323 9.72295 63.5645 15.4268 63.5645Z" stroke="#F5F5F5" stroke-width="1.588" stroke-linecap="round" stroke-linejoin="round"/>
<path d="M21.7661 63.5645C23.6103 63.5645 23.6103 61.5261 25.4499 61.5261C27.2896 61.5261 27.2896 63.5645 29.1338 63.5645C30.978 63.5645 30.978 61.5261 32.8176 61.5261C34.6572 61.5261 34.6618 63.5645 36.5015 63.5645" stroke="#F5F5F5" stroke-width="1.5" stroke-linecap="round" stroke-linejoin="round"/>
<path d="M15.6204 63.5645H21.7662" stroke="#F5F5F5" stroke-width="1.5" stroke-linecap="round" stroke-linejoin="round"/>
<path d="M11.2634 77.3899C11.3849 77.3899 11.4446 77.4321 11.4822 77.4768C11.5292 77.5328 11.5657 77.626 11.5657 77.7392C11.5657 77.8525 11.5292 77.9457 11.4822 78.0017C11.4446 78.0464 11.3849 78.0886 11.2634 78.0886C11.142 78.0886 11.0822 78.0464 11.0447 78.0017C10.9977 77.9457 10.9612 77.8525 10.9612 77.7392C10.9612 77.626 10.9977 77.5328 11.0447 77.4768C11.0822 77.4321 11.142 77.3899 11.2634 77.3899Z" fill="#F5F5F5" stroke="#F5F5F5"/>
<path d="M15.0212 77.3899C15.1427 77.3899 15.2024 77.4321 15.24 77.4768C15.287 77.5328 15.3235 77.626 15.3235 77.7392C15.3235 77.8525 15.287 77.9457 15.24 78.0017C15.2024 78.0464 15.1427 78.0886 15.0212 78.0886C14.8998 78.0886 14.84 78.0464 14.8025 78.0017C14.7555 77.9457 14.719 77.8525 14.719 77.7392C14.719 77.626 14.7555 77.5328 14.8025 77.4768C14.84 77.4321 14.8998 77.3899 15.0212 77.3899Z" fill="#F5F5F5" stroke="#F5F5F5"/>
<path d="M10.1016 36.1397C10.223 36.1397 10.2827 36.1819 10.3203 36.2266C10.3673 36.2826 10.4038 36.3758 10.4038 36.4891C10.4038 36.6023 10.3673 36.6955 10.3203 36.7515C10.2827 36.7962 10.223 36.8384 10.1016 36.8384C9.98011 36.8384 9.92037 36.7962 9.88281 36.7515C9.83582 36.6955 9.79932 36.6023 9.79932 36.4891C9.79932 36.3758 9.83582 36.2826 9.88281 36.2266C9.92037 36.1819 9.98011 36.1397 10.1016 36.1397Z" fill="#F5F5F5" stroke="#F5F5F5"/>
<path d="M7.47362 30.0716C7.59507 30.0716 7.65481 30.1137 7.69237 30.1585C7.73936 30.2145 7.77586 30.3077 7.77586 30.4209C7.77586 30.5341 7.73936 30.6274 7.69237 30.6833C7.65481 30.7281 7.59507 30.7703 7.47362 30.7703C7.35217 30.7703 7.29244 30.7281 7.25488 30.6833C7.20789 30.6274 7.17139 30.5341 7.17139 30.4209C7.17139 30.3077 7.20789 30.2145 7.25488 30.1585C7.29244 30.1137 7.35217 30.0716 7.47362 30.0716Z" fill="#F5F5F5" stroke="#F5F5F5"/>
<path d="M4.07104 35.4461C4.19249 35.4461 4.25222 35.4883 4.28978 35.533C4.33677 35.589 4.37327 35.6822 4.37327 35.7954C4.37327 35.9087 4.33677 36.0019 4.28978 36.0578C4.25222 36.1026 4.19249 36.1448 4.07104 36.1448C3.94959 36.1448 3.88985 36.1026 3.85229 36.0578C3.8053 36.0019 3.7688 35.9087 3.7688 35.7954C3.7688 35.6822 3.8053 35.589 3.85229 35.533C3.88985 35.4883 3.94959 35.4461 4.07104 35.4461Z" fill="#F5F5F5" stroke="#F5F5F5"/>
<path d="M113.384 27.0547L113.046 27.0192L112.888 27.3214C112.305 28.4446 111.553 28.9404 110.93 29.0111C110.333 29.0787 109.695 28.7743 109.251 27.9322C109.05 27.5507 108.97 27.0303 109.002 26.4158C109.033 25.8072 109.173 25.1478 109.369 24.5227C109.565 23.8985 109.813 23.325 110.05 22.8905C110.168 22.6728 110.28 22.498 110.376 22.372C110.465 22.2549 110.517 22.2112 110.528 22.2023C110.529 22.2017 110.529 22.2013 110.529 22.201C110.53 22.2009 110.531 22.2006 110.532 22.2004C110.545 22.1962 110.608 22.1762 110.75 22.1651C110.905 22.1531 111.107 22.1545 111.349 22.1734C111.832 22.2113 112.434 22.3164 113.05 22.4929C113.666 22.6698 114.278 22.9135 114.789 23.2207C115.304 23.5305 115.682 23.8838 115.882 24.2643C116.312 25.0846 116.186 25.8063 115.763 26.303C115.325 26.817 114.497 27.1714 113.384 27.0547Z" fill="#F5F5F5" stroke="#F5F5F5"/>
<path d="M107.836 19.3613C108.254 19.7818 108.497 20.2739 108.569 20.712C108.641 21.1507 108.54 21.494 108.335 21.7082C108.129 21.9224 107.795 22.0312 107.365 21.9646C106.936 21.8981 106.451 21.658 106.033 21.2376C105.616 20.8172 105.373 20.325 105.301 19.887C105.229 19.4482 105.329 19.105 105.535 18.8907C105.741 18.6765 106.075 18.5677 106.504 18.6343C106.934 18.7008 107.418 18.9409 107.836 19.3613Z" fill="#F5F5F5" stroke="#F5F5F5"/>
<path d="M106.28 23.615C107.095 23.9441 107.365 24.6426 107.205 25.0578C107.045 25.4731 106.381 25.7937 105.566 25.4645C104.752 25.1354 104.481 24.437 104.642 24.0217C104.802 23.6064 105.466 23.2858 106.28 23.615Z" fill="#F5F5F5" stroke="#F5F5F5"/>
<path d="M112.184 17.8262C112.296 18.4181 112.224 18.9673 112.041 19.3718C111.857 19.7777 111.586 19.9984 111.304 20.0546C111.023 20.1108 110.69 20.0109 110.371 19.7056C110.053 19.4014 109.784 18.9203 109.671 18.3284C109.558 17.7365 109.63 17.1873 109.813 16.7828C109.997 16.377 110.269 16.1563 110.55 16.1001C110.831 16.0438 111.164 16.1437 111.483 16.449C111.802 16.7533 112.071 17.2343 112.184 17.8262Z" fill="#F5F5F5" stroke="#F5F5F5"/>
<path d="M115.236 18.1833C115.446 18.2287 115.647 18.3878 115.784 18.6754C115.922 18.9634 115.977 19.3547 115.891 19.776C115.804 20.1973 115.598 20.5323 115.359 20.739C115.12 20.9454 114.873 21.0075 114.663 20.9622C114.453 20.9169 114.251 20.7577 114.114 20.4702C113.977 20.1822 113.921 19.7909 114.008 19.3696C114.095 18.9483 114.3 18.6133 114.539 18.4066C114.778 18.2002 115.025 18.138 115.236 18.1833Z" fill="#F5F5F5" stroke="#F5F5F5"/>
<path d="M90.8509 15.0052C91.1921 13.415 90.4544 11.7447 89.0712 10.9472C87.5221 10.0554 85.6963 10.4282 84.5852 11.622C84.1379 12.0986 83.4602 12.2637 82.8608 12.023L73.7365 8.33308C73.1372 8.08772 72.7499 7.49317 72.7453 6.83257C72.7314 5.18105 71.6479 3.63334 69.919 3.19923C68.3744 2.8123 66.7192 3.5201 65.9078 4.91681C65.2485 6.04928 65.2347 7.33747 65.7003 8.40388C64.6491 8.85686 63.8054 9.80531 63.5241 11.0888C63.1783 12.6931 63.9345 14.3824 65.3407 15.1751C66.936 16.0669 68.8125 15.6375 69.9052 14.3493C70.3293 13.8492 71.0347 13.7029 71.6387 13.9483L80.6431 17.5863C81.2471 17.8317 81.6621 18.4262 81.639 19.0915C81.5791 20.795 82.658 22.4229 84.4192 22.8853C85.9729 23.2958 87.6558 22.588 88.4765 21.1772C89.1312 20.0447 89.145 18.7612 88.6839 17.6948C89.7352 17.2418 90.5835 16.2934 90.8601 15.0052H90.8509Z" stroke="#F5F5F5" stroke-linecap="round" stroke-linejoin="round"/>
<path d="M88.6748 17.6948L88.0662 15.9348" stroke="#F5F5F5" stroke-width="2.88" stroke-linecap="round" stroke-linejoin="round"/>
<path d="M66.1337 9.73924L65.5205 7.97446" stroke="#F5F5F5" stroke-width="2.88" stroke-linecap="round" stroke-linejoin="round"/>
<path d="M101.391 9.38986C101.512 9.38986 101.572 9.43205 101.609 9.47679C101.656 9.53275 101.693 9.62598 101.693 9.73922C101.693 9.85247 101.656 9.94569 101.609 10.0017C101.572 10.0464 101.512 10.0886 101.391 10.0886C101.269 10.0886 101.209 10.0464 101.172 10.0017C101.125 9.94569 101.088 9.85247 101.088 9.73922C101.088 9.62598 101.125 9.53275 101.172 9.47679C101.209 9.43205 101.269 9.38986 101.391 9.38986Z" fill="#F5F5F5" stroke="#F5F5F5"/>
<path d="M105.144 9.38986C105.265 9.38986 105.325 9.43205 105.362 9.47679C105.409 9.53275 105.446 9.62598 105.446 9.73922C105.446 9.85247 105.409 9.94569 105.362 10.0017C105.325 10.0464 105.265 10.0886 105.144 10.0886C105.022 10.0886 104.962 10.0464 104.925 10.0017C104.878 9.94569 104.841 9.85247 104.841 9.73922C104.841 9.62598 104.878 9.53275 104.925 9.47679C104.962 9.43205 105.022 9.38986 105.144 9.38986Z" fill="#F5F5F5" stroke="#F5F5F5"/>
<path d="M53.2993 27.0547L52.9606 27.0192L52.8035 27.3214C52.2196 28.4446 51.4684 28.9404 50.8447 29.0111C50.248 29.0787 49.6104 28.7743 49.1665 27.9322C48.9653 27.5507 48.8848 27.0303 48.9166 26.4158C48.9482 25.8072 49.0878 25.1478 49.2842 24.5227C49.4803 23.8985 49.7279 23.325 49.9646 22.8905C50.0832 22.6728 50.1948 22.498 50.2907 22.372C50.3798 22.2549 50.4323 22.2112 50.443 22.2023C50.4437 22.2017 50.4442 22.2013 50.4445 22.201C50.445 22.2009 50.4457 22.2006 50.4466 22.2004C50.4598 22.1962 50.5232 22.1762 50.6653 22.1651C50.8196 22.1531 51.0224 22.1545 51.2643 22.1734C51.7472 22.2113 52.3494 22.3164 52.9645 22.4929C53.5806 22.6698 54.1926 22.9135 54.7036 23.2207C55.2192 23.5305 55.597 23.8838 55.7967 24.2643C56.2273 25.0846 56.1014 25.8063 55.6784 26.303C55.2405 26.817 54.4119 27.1714 53.2993 27.0547Z" fill="#F5F5F5" stroke="#F5F5F5"/>
<path d="M47.7493 19.3609C48.167 19.7813 48.4097 20.2735 48.4819 20.7115C48.5542 21.1503 48.4535 21.4935 48.2476 21.7077C48.0418 21.922 47.7081 22.0308 47.2783 21.9642C46.8491 21.8977 46.3642 21.6575 45.9465 21.2371C45.5287 20.8167 45.286 20.3245 45.2139 19.8865C45.1416 19.4477 45.2423 19.1045 45.4481 18.8903C45.654 18.676 45.9876 18.5672 46.4175 18.6338C46.8466 18.7003 47.3315 18.9404 47.7493 19.3609Z" fill="#F5F5F5" stroke="#F5F5F5"/>
<path d="M46.2008 23.6151C47.0152 23.9443 47.2859 24.6427 47.1257 25.0579C46.9655 25.4732 46.3015 25.7938 45.4871 25.4646C44.6727 25.1355 44.4019 24.4371 44.5622 24.0218C44.7224 23.6066 45.3864 23.2859 46.2008 23.6151Z" fill="#F5F5F5" stroke="#F5F5F5"/>
<path d="M52.1012 17.8243C52.2142 18.4162 52.142 18.9654 51.9588 19.3699C51.7751 19.7757 51.5034 19.9965 51.2222 20.0527C50.941 20.1089 50.6081 20.009 50.2887 19.7037C49.9703 19.3994 49.7014 18.9184 49.5885 18.3265C49.4756 17.7346 49.5478 17.1854 49.7309 16.7809C49.9147 16.3751 50.1864 16.1543 50.4676 16.0981C50.7488 16.0419 51.0817 16.1418 51.4011 16.4471C51.7195 16.7513 51.9883 17.2324 52.1012 17.8243Z" fill="#F5F5F5" stroke="#F5F5F5"/>
<path d="M55.1532 18.1855C55.3633 18.2308 55.5651 18.39 55.7021 18.6775C55.8394 18.9655 55.8951 19.3568 55.8083 19.7781C55.7214 20.1994 55.5161 20.5344 55.2769 20.7411C55.038 20.9475 54.7906 21.0097 54.5806 20.9643C54.3705 20.919 54.1687 20.7598 54.0317 20.4723C53.8944 20.1843 53.8387 19.793 53.9256 19.3717C54.0124 18.9504 54.2177 18.6154 54.457 18.4087C54.6958 18.2023 54.9432 18.1401 55.1532 18.1855Z" fill="#F5F5F5" stroke="#F5F5F5"/>
<path d="M30.7662 15.0052C31.1074 13.415 30.3697 11.7447 28.9865 10.9472C27.4374 10.0554 25.6116 10.4282 24.5004 11.622C24.0532 12.0986 23.3755 12.2637 22.7761 12.023L13.6518 8.33308C13.0524 8.08772 12.6651 7.49317 12.6605 6.83257C12.6467 5.18105 11.5632 3.63334 9.83426 3.19923C8.28972 2.8123 6.63453 3.5201 5.82307 4.91681C5.16376 6.04928 5.14995 7.33747 5.61562 8.40388C4.56441 8.85686 3.72066 9.80531 3.43942 11.0888C3.09363 12.6931 3.84976 14.3824 5.25598 15.1751C6.85123 16.0669 8.72774 15.6375 9.82044 14.3493C10.2446 13.8492 10.95 13.7029 11.554 13.9483L20.5584 17.5863C21.1624 17.8317 21.5774 18.4262 21.5543 19.0915C21.4944 20.795 22.5732 22.4229 24.3345 22.8853C25.8882 23.2958 27.5711 22.588 28.3918 21.1772C29.0465 20.0447 29.0603 18.7612 28.5992 17.6948C29.6504 17.2418 30.4988 16.2934 30.7754 15.0052H30.7662Z" stroke="#F5F5F5" stroke-linecap="round" stroke-linejoin="round"/>
<path d="M28.5946 17.6948L27.9814 15.9348" stroke="#F5F5F5" stroke-width="2.88" stroke-linecap="round" stroke-linejoin="round"/>
<path d="M6.04876 9.73924L5.43555 7.97446" stroke="#F5F5F5" stroke-width="2.88" stroke-linecap="round" stroke-linejoin="round"/>
<path d="M41.3057 9.38986C41.4271 9.38986 41.4868 9.43205 41.5244 9.47679C41.5714 9.53275 41.6079 9.62598 41.6079 9.73922C41.6079 9.85247 41.5714 9.94569 41.5244 10.0017C41.4868 10.0464 41.4271 10.0886 41.3057 10.0886C41.1842 10.0886 41.1245 10.0464 41.0869 10.0017C41.0399 9.94569 41.0034 9.85247 41.0034 9.73922C41.0034 9.62598 41.0399 9.53275 41.0869 9.47679C41.1245 9.43205 41.1842 9.38986 41.3057 9.38986Z" fill="#F5F5F5" stroke="#F5F5F5"/>
<path d="M45.0588 9.38986C45.1803 9.38986 45.24 9.43205 45.2776 9.47679C45.3246 9.53275 45.3611 9.62598 45.3611 9.73922C45.3611 9.85247 45.3246 9.94569 45.2776 10.0017C45.24 10.0464 45.1803 10.0886 45.0588 10.0886C44.9374 10.0886 44.8776 10.0464 44.8401 10.0017C44.7931 9.94569 44.7566 9.85247 44.7566 9.73922C44.7566 9.62598 44.7931 9.53275 44.8401 9.47679C44.8776 9.43205 44.9374 9.38986 45.0588 9.38986Z" fill="#F5F5F5" stroke="#F5F5F5"/>
</g>
</svg>
