<svg width="60" height="60" viewBox="0 0 60 60" fill="none" xmlns="http://www.w3.org/2000/svg">
<rect width="60" height="60" fill="#363A59"/>
<path d="M43.9444 33.3296C48.4942 33.3296 50.758 29.8821 48.7827 25.5468C46.7409 21.0709 43.6855 17.2979 39.6313 14.4348C39.2466 14.1611 38.8027 13.9687 38.3366 13.7986C37.3527 13.4361 36.243 13.6358 35.4366 14.3165L35.0593 14.6346C34.8669 14.7973 34.6006 14.8195 34.3786 14.7012C31.4638 13.1697 28.5268 12.933 25.6193 14.7825C25.39 14.9231 25.1014 14.9157 24.8943 14.7455L24.1841 14.1463C23.5404 13.6062 22.6601 13.4213 21.8611 13.6802C20.2779 14.1981 19.0202 15.3004 17.8143 16.3879C15.077 18.8515 12.8576 21.8107 11.4076 25.1695C9.62461 29.2828 10.4754 31.776 13.9007 33.1224C14.4852 33.3518 15.1954 33.2778 15.8464 33.3444" stroke="#FAFAFA" stroke-linecap="round" stroke-linejoin="round"/>
<path d="M20.3371 20.4495C17.77 24.2891 16.6306 28.7353 16.209 33.152C15.9204 36.1408 16.4605 39.4848 18.5911 42.1111C20.7958 44.8336 23.829 45.9951 27.1729 46.3872C30.2801 46.7497 33.2912 46.3872 36.3688 45.5142C41.0666 44.1752 43.2934 39.9213 43.5597 35.8671C43.9074 30.4739 42.5832 25.4802 39.8607 20.8416" stroke="#FAFAFA" stroke-linecap="round" stroke-linejoin="round"/>
<path d="M39.0911 36.2371C39.0911 38.7746 37.0345 40.8313 34.4969 40.8313C31.9594 40.8313 29.9027 38.7746 29.9027 36.2371" stroke="#FAFAFA" stroke-linecap="round" stroke-linejoin="round"/>
<path d="M20.6996 36.2371C20.6996 38.7746 22.7563 40.8313 25.2938 40.8313C27.8314 40.8313 29.888 38.7746 29.888 36.2371" stroke="#FAFAFA" stroke-linecap="round" stroke-linejoin="round"/>
<path d="M33.2616 40.6611C33.2024 42.4663 31.7154 43.9089 29.8954 43.9089C28.0755 43.9089 26.5959 42.4663 26.5293 40.6611" stroke="#FAFAFA" stroke-linecap="round" stroke-linejoin="round"/>
<path d="M28.8079 33.3887L29.1778 33.3147C29.6513 33.2186 30.147 33.2186 30.6205 33.3147L30.9904 33.3887C31.449 33.3887 31.7376 33.9066 31.5156 34.3283L29.9028 35.9633L28.2901 34.3283C28.0681 33.9066 28.3566 33.3887 28.8153 33.3887H28.8079Z" stroke="#FAFAFA" stroke-linecap="round" stroke-linejoin="round"/>
<path d="M24.7685 28.3359C25.3405 28.3359 25.8043 27.8722 25.8043 27.3001C25.8043 26.7281 25.3405 26.2644 24.7685 26.2644C24.1965 26.2644 23.7328 26.7281 23.7328 27.3001C23.7328 27.8722 24.1965 28.3359 24.7685 28.3359Z" fill="#FAFAFA"/>
<path d="M35.0298 28.3359C35.6018 28.3359 36.0655 27.8722 36.0655 27.3001C36.0655 26.7281 35.6018 26.2644 35.0298 26.2644C34.4577 26.2644 33.994 26.7281 33.994 27.3001C33.994 27.8722 34.4577 28.3359 35.0298 28.3359Z" fill="#FAFAFA"/>
</svg>
